<svg id="Layer_1" data-name="Layer 1" xmlns="http://www.w3.org/2000/svg" viewBox="0 0 655.01 501.7"><g id="Group_26" data-name="Group 26"><path id="Path_2" data-name="Path 2" d="M192.64-1.63c146.63,0,456.17,112.29,456.17,243.49S529.94,479.4,383.31,479.4c-52.35,0-106.91,46.5-190.67,0S48.27,377.77,48.27,293.41C48.27,162.22,46-1.63,192.64-1.63Z" transform="translate(-3.8 1.63)" fill="#43b02a" opacity="0.3" style="isolation:isolate"/><path id="Path_1" data-name="Path 1" d="M202.64-1.63c146.63,0,456.17,110.11,456.17,238.75S539.94,470,393.31,470c-52.35,0-106.91,45.59-190.67,0S58.27,370.39,58.27,287.67C58.27,159,56-1.63,202.64-1.63Z" transform="translate(-3.8 1.63)" fill="#43b02a"/><circle id="Ellipse_28" data-name="Ellipse 28" cx="398.01" cy="259.72" r="189" fill="#43b02a" opacity="0.42" style="isolation:isolate"/></g><path d="M349.94,470.86c0-.13-2.79-13.45,2.86-24.51s17.73-15.94,17.85-16l.55-.22.13.61c0,.13,2.8,13.45-2.86,24.51s-17.72,15.94-17.84,16l-.56.22Zm20.5-39.24c-2.42,1.1-12,5.9-16.73,15.24s-3.34,20.39-2.88,23.13c2.42-1.1,12-5.89,16.74-15.24s3.33-20.39,2.87-23.13Z" transform="translate(-3.8 1.63)" fill="#3f3d56"/><path d="M364.15,451.38c-10.16,6.45-14.08,19.26-14.08,19.26s12.57,2.35,22.73-4.1,14.08-19.25,14.08-19.25S374.31,444.93,364.15,451.38Z" transform="translate(-3.8 1.63)" fill="#d0cde1"/><path d="M143.36,412.58c-1.21,0-2.43,0-3.63-.06l0-.92c1.72.06,3.48.07,5.21,0v.92Zm6.86-.22-.05-.91c1.72-.11,3.47-.26,5.19-.45l.09.91C153.71,412.1,152,412.26,150.22,412.36Zm-15.72-.14c-1.74-.14-3.5-.32-5.22-.55l.1-.91c1.72.22,3.46.41,5.18.54Zm26.15-1-.13-.91c1.71-.27,3.43-.59,5.12-.94l.17.9C164.11,410.61,162.37,410.93,160.65,411.21Zm-36.56-.34c-1.72-.3-3.45-.66-5.15-1l.18-.9c1.69.38,3.41.73,5.11,1Zm46.84-1.82-.21-.89c1.68-.44,3.37-.92,5-1.44l.24.88C174.33,408.12,172.63,408.61,170.93,409.05Zm-57.09-.52c-1.68-.48-3.38-1-5-1.55l.26-.87c1.64.55,3.32,1.06,5,1.53ZM181,405.91l-.29-.87c1.63-.6,3.27-1.24,4.88-1.92l.32.85C184.28,404.65,182.63,405.31,181,405.91Zm-77.16-.72c-1.64-.64-3.28-1.32-4.89-2l.34-.85c1.59.71,3.23,1.39,4.85,2Zm86.88-3.39-.36-.83c1.57-.75,3.14-1.55,4.68-2.38l.4.81C193.88,400.24,192.29,401.05,190.71,401.8Zm9.32-5-.43-.8c1.5-.9,3-1.85,4.46-2.82l.46.77C203.06,394.91,201.55,395.87,200,396.78Zm8.85-5.91-.49-.75c1.41-1,2.82-2.14,4.19-3.25l.53.73C211.73,388.72,210.31,389.82,208.88,390.87ZM76.11,389.58c-1.4-1.08-2.81-2.21-4.17-3.36l.54-.72c1.36,1.14,2.75,2.26,4.15,3.33Zm141.08-5.44-.56-.71c1.32-1.17,2.63-2.39,3.9-3.63l.59.67C219.84,381.72,218.52,383,217.19,384.14ZM67.92,382.67c-1.31-1.21-2.61-2.47-3.87-3.74l.6-.66c1.25,1.26,2.54,2.51,3.84,3.71Zm157-6-.62-.65c1.22-1.3,2.42-2.64,3.57-4l.65.61c-1.16,1.36-2.37,2.72-3.6,4ZM60.35,375c-1.2-1.33-2.39-2.71-3.53-4.09l.66-.6c1.13,1.37,2.31,2.74,3.5,4.06Zm171.56-6.6-.67-.59c1.1-1.41,2.18-2.86,3.21-4.32l.7.55C234.11,365.52,233,367,231.91,368.41ZM53.48,366.66c-1.08-1.44-2.14-2.92-3.16-4.41l.71-.54c1,1.48,2.06,3,3.13,4.38Zm184.72-7.12-.72-.51c1-1.51,1.92-3.07,2.82-4.62l.75.48C240.13,356.46,239.18,358,238.2,359.54ZM47.36,357.69c-1-1.53-1.88-3.11-2.76-4.69l.75-.47c.87,1.57,1.79,3.14,2.74,4.66Zm196.33-7.59-.76-.44c.84-1.6,1.65-3.23,2.41-4.87l.79.41c-.78,1.64-1.6,3.3-2.44,4.9Zm4.65-9.93-.79-.37c.69-1.67,1.36-3.38,2-5.09l.81.33c-.63,1.72-1.3,3.45-2,5.13Zm-210.76-2c-.67-1.69-1.31-3.42-1.9-5.14l.81-.32c.59,1.71,1.23,3.43,1.89,5.11Zm214.53-8.37-.83-.29c.55-1.73,1.06-3.49,1.53-5.25l.84.25c-.48,1.77-1,3.55-1.54,5.29ZM34,327.81c-.52-1.75-1-3.54-1.45-5.32l.84-.23c.44,1.76.92,3.54,1.44,5.27Zm221-8.64-.85-.21c.39-1.77.75-3.58,1.06-5.37l.86.17C255.7,315.57,255.34,317.39,255,319.17ZM31.34,317.11c-.37-1.8-.7-3.63-1-5.44l.86-.15c.28,1.8.61,3.61,1,5.4Zm225.51-8.82-.87-.12c.24-1.8.44-3.63.59-5.45l.87.08C257.28,304.63,257.08,306.48,256.85,308.29ZM29.62,306.2c-.21-1.82-.37-3.67-.5-5.51l.87-.07c.12,1.82.29,3.66.5,5.47Zm228.17-8.92-.87,0c.08-1.82.12-3.67.12-5.49h.87C257.91,293.58,257.87,295.45,257.79,297.28ZM28.85,295.17c0-1.13,0-2.28,0-3.42,0-.71,0-1.41,0-2.12l.87,0c0,.7,0,1.4,0,2.1,0,1.13,0,2.27.05,3.39Zm1-11-.86-.05c.1-1.84.25-3.69.44-5.52l.87.1c-.19,1.81-.34,3.65-.45,5.47Zm226.58-5.6c-.17-1.81-.41-2.7-.67-4.5l.86-.13c.26,1.81.48,3.2.65,5ZM31,273.25l-.87-.14c.27-1.82.58-3.65.93-5.45l.85.19c-.34,1.78-.65,3.6-.91,5.4Zm223.9-4.6c-.33-1.79-.7-3.6-1.11-5.36l.85-.22c.41,1.78.78,3.6,1.12,5.4ZM33.09,262.49l-.85-.22c.43-1.78.9-3.57,1.4-5.33l.83.26C34,259,33.51,260.73,33.09,262.49ZM252.47,258c-.48-1.75-1-3.51-1.58-5.23l.83-.3c.56,1.74,1.1,3.51,1.59,5.28ZM36.09,252l-.82-.31c.57-1.74,1.2-3.48,1.85-5.19l.81.35C37.28,248.51,36.66,250.24,36.09,252Zm213-4.37c-.64-1.69-1.32-3.38-2-5l.79-.38c.71,1.67,1.4,3.38,2,5.09ZM40,241.77l-.79-.39c.72-1.67,1.5-3.34,2.3-5l.77.42C41.49,238.45,40.72,240.11,40,241.77Zm204.83-4.15c-.78-1.63-1.61-3.25-2.46-4.83l.76-.46c.86,1.6,1.69,3.24,2.47,4.87ZM44.78,232l-.76-.46c.87-1.59,1.79-3.18,2.73-4.73l.73.49C46.55,228.84,45.64,230.42,44.78,232Zm194.93-3.92c-.92-1.55-1.89-3.09-2.87-4.58l.72-.52c1,1.5,2,3.05,2.89,4.61ZM50.39,222.74l-.72-.53c1-1.5,2.06-3,3.12-4.45l.69.56C52.42,219.76,51.38,221.25,50.39,222.74Zm183.39-3.67c-1.05-1.45-2.14-2.9-3.25-4.29l.67-.59c1.12,1.4,2.22,2.86,3.28,4.32Zm-177-5-.67-.6c1.13-1.39,2.31-2.78,3.5-4.13l.63.63C59.05,211.29,57.89,212.67,56.77,214.06Zm170.33-3.41c-1.17-1.34-2.38-2.67-3.61-4l.62-.65c1.23,1.29,2.45,2.63,3.63,4ZM63.87,206l-.61-.66c1.25-1.28,2.53-2.55,3.83-3.77l.58.68c-1.29,1.21-2.56,2.48-3.8,3.75Zm155.85-3.11c-1.28-1.23-2.61-2.44-3.94-3.6l.56-.71c1.34,1.17,2.67,2.39,4,3.63Zm-148.09-4.2-.55-.71c1.35-1.16,2.74-2.3,4.14-3.39l.52.73c-1.39,1.09-2.77,2.22-4.11,3.37ZM80,192.19l-.48-.76c1.44-1,2.93-2,4.41-3l.45.78c-1.47,1-2.94,1.94-4.38,3Zm8.88-5.7-.41-.8c1.52-.88,3.09-1.74,4.65-2.54l.38.82C91.93,184.77,90.38,185.62,88.86,186.49ZM194,184.36c-1.55-.81-3.14-1.6-4.72-2.34l.35-.84c1.59.75,3.19,1.54,4.75,2.36Zm-95.8-2.68-.35-.84c1.59-.73,3.22-1.43,4.85-2.08l.31.86C101.4,180.26,99.78,181,98.2,181.68Zm86.26-1.76c-1.61-.66-3.27-1.29-4.91-1.87l.28-.88c1.65.59,3.32,1.23,4.94,1.89Zm-76.55-2.13-.27-.88c1.66-.57,3.35-1.11,5-1.6l.23.89C111.23,176.68,109.55,177.22,107.91,177.79Zm66.67-1.37c-1.66-.5-3.36-1-5-1.38l.2-.9c1.7.42,3.4.89,5.08,1.4Zm-56.64-1.57-.19-.89c1.69-.41,3.42-.79,5.13-1.11l.16.9C121.34,174.08,119.62,174.45,117.94,174.85Zm46.51-.95c-1.69-.33-3.42-.63-5.13-.89l.12-.91c1.72.26,3.46.56,5.17.9Zm-36.27-1-.11-.91c1.72-.24,3.47-.45,5.21-.61l.07.92C131.63,172.46,129.89,172.66,128.18,172.9Zm26-.53c-1.72-.17-3.47-.3-5.19-.39l0-.91c1.74.09,3.5.22,5.23.39Zm-15.6-.42,0-.92c1.6-.07,3.23-.11,4.85-.11h.4v.92h-.39C141.76,171.84,140.14,171.88,138.55,172Z" transform="translate(-3.8 1.63)" fill="#3f3d56"/><rect x="73.61" y="472.23" width="319.26" height="0.92" fill="#3f3d56"/><path d="M264.27,316.11l4.35,71.21s10.46,28,10,54.67c0,0-3.92,10.57-.87,12.41s4.79,3.21,3.05,4.59-3.05,4.59-1.74,5.51,1.74,2.3,1.3,2.3H267.32s2.61-6.89-1.31-8.73-1.74-6.43-1.74-6.43l-29.18-90.05L212,444.29s3.92,2.75.87,4.13-4.35-1.38-3.05,1.38-.43,4.14-.43,4.6S196.32,453,196.32,453s6.53-6,3.49-7.35-4.36-2.76-3.49-3.68,4.36-9.65,4.36-9.65,1.74-33.07,2.17-34.45,0-7.81,0-11-.43-16.08.88-19.29,2.61-42.73,9.58-47.32S264.27,316.11,264.27,316.11Z" transform="translate(-3.8 1.63)" fill="#2f2e41"/><path d="M209,452.1s8.71,18.83,2.62,21.13-13.94.46-15.68,3.22-20.91,6-21.35-.92,20.91-19.76,20.91-19.76l2.78-4.72Z" transform="translate(-3.8 1.63)" fill="#2f2e41"/><path d="M279.51,465.88s8.71,18.84,2.62,21.13-13.94.46-15.68,3.22-20.91,6-21.35-.92S266,469.56,266,469.56l2.78-4.73Z" transform="translate(-3.8 1.63)" fill="#2f2e41"/><ellipse cx="235.42" cy="215.98" rx="14.37" ry="15.16" fill="#a0616a"/><polygon points="245.22 224.02 243.48 237.34 230.41 247.91 226.93 242.85 226.93 225.4 245.22 224.02" fill="#a0616a"/><path d="M228.55,239.39s13.5,1.38,20.47-3.68L263,322.54s-49.22,4.14-51.39,1.38v-27.1l8.71-44.11Z" transform="translate(-3.8 1.63)" fill="#3f3d56"/><path d="M247.82,231.56l4.69,4.15s19.16,3.22,17.86,8.73l-5.23,65.24,1.74,22.05s-14.81-4.13-26.13,0-2.33-88.85-2.33-88.85S248.8,232.92,247.82,231.56Z" transform="translate(-3.8 1.63)" fill="#d0cde1"/><path d="M230.73,236.59s-13.94,10.61-15.68,17.5-7.4,79.48-7.4,79.48,2.61-1.38,3.92.92S232.91,240.22,230.73,236.59Z" transform="translate(-3.8 1.63)" fill="#d0cde1"/><path d="M224.86,213.69a7.53,7.53,0,0,1-1-5.11,16.25,16.25,0,0,0,.42-4.61,47.94,47.94,0,0,1,2.51-6.69c1.26-2.4.66-3.41,4.61-4.17s2.33-6.19,12.75-.32a3,3,0,0,0,3.17,1.27c2.15-.44,2.93,2.71,2.93,2.71s1.44-.88,2,.38,4.38-.76,4.38,7.76-4.37,16.14-4.37,16.14.32-14.34-6.81-15.79-14.78-5.68-16.63-.25A42.39,42.39,0,0,1,224.86,213.69Z" transform="translate(-3.8 1.63)" fill="#2f2e41"/><ellipse cx="248.63" cy="216.75" rx="1.4" ry="1.98" fill="#a0616a"/><path d="M193.4,357.19a15,15,0,0,0-9.18-1.85c.6,1.55,2.4,5.5,5.85,7.69a14.94,14.94,0,0,0,9.18,1.85C198.65,363.34,196.85,359.38,193.4,357.19Z" transform="translate(-3.8 1.63)" fill="#d0cde1"/><path d="M209.59,400.57H188.05a5.12,5.12,0,0,0,0,10.23h21.54a5.12,5.12,0,0,0,0-10.23Z" transform="translate(-3.8 1.63)" fill="#d0cde1"/><path d="M307.14,346.61H186.37c-5.91,0-10.7,5.05-10.7,11.29h0V420c0,6.23,4.79,11.29,10.7,11.29H307.14c5.91,0,10.7-5.06,10.7-11.29h0V357.9c0-6.24-4.79-11.29-10.7-11.29Zm-123.76,7.7c.24-.05,5.89-1.06,10.57,1.91s6.49,8.72,6.56,9l.19.62-.61.11a14.4,14.4,0,0,1-2.62.21,14.93,14.93,0,0,1-8-2.12c-4.68-3-6.48-8.71-6.55-9l-.19-.62Zm26.21,57.62H188.05a6.25,6.25,0,0,1,0-12.49h21.54a6.25,6.25,0,0,1,0,12.49Zm98-1.13a6.67,6.67,0,0,1-6.47,6.81H285a6.65,6.65,0,0,1-6.46-6.81V400.57a6.65,6.65,0,0,1,6.46-6.81h16.15a6.66,6.66,0,0,1,6.47,6.81Z" transform="translate(-3.8 1.63)" fill="#d0cde1"/><path d="M290.1,408.81h-7a2,2,0,0,0,0,4h7a2,2,0,0,0,0-4Zm0,2.84h-7a.85.85,0,0,1,0-1.7h7a.85.85,0,0,1,0,1.7Z" transform="translate(-3.8 1.63)" fill="#d0cde1"/><path d="M303,408.81h-7a2,2,0,0,0,0,4h7a2,2,0,0,0,0-4Zm0,2.84h-7a.83.83,0,0,1-.81-.85.81.81,0,0,1,.8-.85h7a.85.85,0,0,1,0,1.7Z" transform="translate(-3.8 1.63)" fill="#d0cde1"/><path d="M290.1,403.7h-7a2,2,0,0,0,0,4h7a2,2,0,0,0,0-4Zm0,2.84h-7a.84.84,0,0,1-.81-.85.84.84,0,0,1,.81-.86h7a.84.84,0,0,1,.81.86A.83.83,0,0,1,290.1,406.54Z" transform="translate(-3.8 1.63)" fill="#d0cde1"/><path d="M303,403.7h-7a2,2,0,0,0,0,4h7a2,2,0,0,0,0-4Zm0,2.84h-7a.83.83,0,0,1-.81-.85.84.84,0,0,1,.81-.86h7a.84.84,0,0,1,.81.86.84.84,0,0,1-.81.85Z" transform="translate(-3.8 1.63)" fill="#d0cde1"/><path d="M290.1,398.59h-7a2,2,0,0,0,0,4h7a2,2,0,0,0,0-4Zm0,2.84h-7a.84.84,0,0,1-.81-.86.84.84,0,0,1,.81-.85h7a.83.83,0,0,1,.81.85A.84.84,0,0,1,290.1,401.43Z" transform="translate(-3.8 1.63)" fill="#d0cde1"/><path d="M303,398.59h-7a2,2,0,0,0,0,4h7a2,2,0,0,0,0-4Zm0,2.84h-7a.84.84,0,0,1-.81-.86.83.83,0,0,1,.81-.85h7a.84.84,0,0,1,.81.85.84.84,0,0,1-.81.86Z" transform="translate(-3.8 1.63)" fill="#d0cde1"/><path d="M269.06,332.65l-3.12,10.75s-.8,20-11.25,17.27,3.05-26.18,3.05-26.18l3-5.06Z" transform="translate(-3.8 1.63)" fill="#a0616a"/><path d="M209.82,332.65,206.7,343.4s-.8,20-11.25,17.27,3.05-26.18,3.05-26.18l3.05-5.06Z" transform="translate(-3.8 1.63)" fill="#a0616a"/><path d="M266.88,241.23s7-1.84,9.15,10.56,4.79,47.78,4.79,47.78l-10.45,37.21s-10.46-6-12.63-5L266,299.42,259,266.49S265.14,241.23,266.88,241.23Z" transform="translate(-3.8 1.63)" fill="#d0cde1"/><polygon points="252.95 268.75 262.1 300.91 252.95 333.53 258.18 300.91 252.95 268.75" opacity="0.15" style="isolation:isolate"/><path d="M215.05,266.49l-15.68,65.24s8.27,2.88,11.32,5.18Z" transform="translate(-3.8 1.63)" fill="#d0cde1"/><ellipse cx="46.76" cy="386.13" rx="43.56" ry="45.94" fill="#3f3d56"/><ellipse cx="46.76" cy="386.13" rx="37.46" ry="39.51" opacity="0.1" style="isolation:isolate"/><path d="M48.77,407.81v-5.75a12.19,12.19,0,0,1-7.27-2.5l1.14-3.82a11.18,11.18,0,0,0,6.84,2.45,5.38,5.38,0,0,0,5.66-5.58c0-3.13-1.86-5.07-5.37-6.77-4.85-2.28-7.84-4.9-7.84-9.85,0-4.73,2.8-8.32,7.17-9.17v-5.75h2.95v5.52a11.1,11.1,0,0,1,6.17,2L57,372.34a10.12,10.12,0,0,0-6-1.93,4.69,4.69,0,0,0-5,4.89c0,3,1.76,4.44,5.89,6.49,4.9,2.4,7.37,5.36,7.37,10.42,0,4.5-2.61,8.71-7.51,9.68v5.92Z" transform="translate(-3.8 1.63)" fill="#43b02a"/><path d="M96.57,478A298.17,298.17,0,0,1,3.8,478v-11a331.37,331.37,0,0,0,92.77,0Z" transform="translate(-3.8 1.63)" fill="#3f3d56"/><path d="M96.57,461A298.17,298.17,0,0,1,3.8,461v-11a331.37,331.37,0,0,0,92.77,0Z" transform="translate(-3.8 1.63)" fill="#3f3d56"/><path d="M96.57,444A298.17,298.17,0,0,1,3.8,444v-11a332.13,332.13,0,0,0,92.77,0Z" transform="translate(-3.8 1.63)" fill="#3f3d56"/></svg>