<svg id="Layer_1" data-name="Layer 1" xmlns="http://www.w3.org/2000/svg" xmlns:xlink="http://www.w3.org/1999/xlink" viewBox="0 0 612.48 395.56"><defs><linearGradient id="linear-gradient" x1="181.99" y1="346.51" x2="182.85" y2="347.63" gradientTransform="matrix(118.89, 0, 0, -213.86, -21246.07, 74471.64)" gradientUnits="userSpaceOnUse"><stop offset="0" stop-color="gray" stop-opacity="0.25"/><stop offset="0.54" stop-color="gray" stop-opacity="0.12"/><stop offset="1" stop-color="gray" stop-opacity="0.1"/></linearGradient><linearGradient id="linear-gradient-2" x1="188.14" y1="343.06" x2="188.14" y2="344.17" gradientTransform="matrix(15.96, 0, 0, -23.84, -2601.71, 8411.37)" xlink:href="#linear-gradient"/></defs><g id="Group_26" data-name="Group 26"><g id="Group_55" data-name="Group 55" opacity="0.47"><path id="Path_2" data-name="Path 2" d="M155.84,0C299.9,0,604,88.54,604,192S487.22,379.26,343.16,379.26c-51.43,0-105,36.66-187.32,0S14,299.13,14,232.62C14,129.18,11.78,0,155.84,0Z" transform="translate(0 0)" fill="#ffe345" opacity="0.3" style="isolation:isolate"/><path id="Path_1" data-name="Path 1" d="M164.31,0C308.37,0,612.48,86.68,612.48,188S495.69,371.33,351.63,371.33c-51.42,0-105,35.9-187.32,0S22.48,292.88,22.48,227.76C22.48,126.48,20.25,0,164.31,0Z" transform="translate(0 0)" fill="#43b02a"/></g><path id="Path_2-2" data-name="Path 2-2" d="M141.84,0C285.9,0,590,88.54,590,192S473.22,379.26,329.16,379.26c-51.43,0-105,36.66-187.32,0S0,299.13,0,232.62C0,129.18-2.22,0,141.84,0Z" transform="translate(0 0)" fill="#43b02a" opacity="0.3" style="isolation:isolate"/><path id="Path_1-2" data-name="Path 1-2" d="M150.31,12.19c144.06,0,448.17,84,448.17,182S481.7,371.83,337.64,371.83c-51.43,0-105,34.77-187.33,0s-141.83-76-141.83-139C8.48,134.69,6.25,12.19,150.31,12.19Z" transform="translate(0 0)" fill="#43b02a"/></g><g id="undraw_mobile_apps_4wgf" data-name="undraw mobile apps 4wgf"><path id="Path_722" data-name="Path 722" d="M354.64,339c4.27.29,8.79,1.86,12.67,0,1-.48,1.91-1.18,3-1.57,2.39-.9,5,0,7.42.81a314.27,314.27,0,0,0,57.9,14.23c4.05.6,8.29,1.1,12.15-.29,2.82-1,5.27-3,8.07-4.06,4.57-1.79,9.62-1.13,14.49-.85a88.44,88.44,0,0,0,37.48-6l.63-.25a18.17,18.17,0,0,1,18.08,2.55,44.69,44.69,0,0,0,6.44,4.15c7.59,4,10.76,13.69,7.15,21.8l-.08.19c-2,4.55-3.64,9.67-7.53,12.55-3.67,2.74-8.49,2.85-13,2.86l-27.56.07a34.45,34.45,0,0,1-8.53-.71,33.66,33.66,0,0,1-7.12-3.07L464,374.89c-5-2.6-10.41-5.28-15.84-4.08s-9.56,6.14-14.4,9.24a24.31,24.31,0,0,1-25.15.47c-3.67-2.17-6.85-5.33-10.86-6.7-6.61-2.26-13.64.86-20.45,2.36-13.24,2.91-28.84-1.07-39-10.7C325.2,353.08,340.54,338,354.64,339Z" transform="translate(0 0)" fill="#f0e4e4"/><path id="Path_723" data-name="Path 723" d="M304.56,359.68s-10.1-36.11,1.9-62.73a59.78,59.78,0,0,0,4.38-35.8A99.48,99.48,0,0,0,306,244.33" transform="translate(0 0)" fill="none" stroke="#535461" stroke-miterlimit="10" stroke-width="2.17"/><path id="Path_724" data-name="Path 724" d="M313.49,227.53c0,4.43-7.61,17.27-7.61,17.27s-7.61-12.84-7.61-17.27a7.62,7.62,0,1,1,15.22,0Z" transform="translate(0 0)" fill="#ffc107"/><path id="Path_725" data-name="Path 725" d="M326.07,252.06c-2.29,3.72-15.3,10.14-15.3,10.14s.24-15.14,2.52-18.86A7.39,7.39,0,0,1,323.82,241a8.27,8.27,0,0,1,2.25,11.09Z" transform="translate(0 0)" fill="#ffc107"/><path id="Path_726" data-name="Path 726" d="M325.52,294c-3.75,2-18,.61-18,.61s7.46-12.94,11.21-14.93a7.43,7.43,0,0,1,10.25,3.47,8.24,8.24,0,0,1-3.3,10.8l-.09.05Z" transform="translate(0 0)" fill="#ffc107"/><path id="Path_727" data-name="Path 727" d="M318.33,325.6c-3.38,2.63-17.7,3.82-17.7,3.82s5.27-14.08,8.65-16.71a7.36,7.36,0,0,1,10.66,1.53,8.32,8.32,0,0,1-1.46,11.24l-.15.12Z" transform="translate(0 0)" fill="#ffc107"/><path id="Path_728" data-name="Path 728" d="M294.79,263.06c3,3.08,17.06,6.28,17.06,6.28s-3.44-14.7-6.45-17.78a7.35,7.35,0,0,0-10.77,0,8.33,8.33,0,0,0,0,11.34l.14.15Z" transform="translate(0 0)" fill="#ffc107"/><path id="Path_729" data-name="Path 729" d="M286.83,300.16c3.75,2,18,.62,18,.62s-7.46-12.95-11.21-14.94a7.46,7.46,0,0,0-10.1,3.93,8.23,8.23,0,0,0,3.27,10.39Z" transform="translate(0 0)" fill="#ffc107"/><path id="Path_730" data-name="Path 730" d="M283.77,337.31c3.38,2.64,17.7,3.83,17.7,3.83s-5.27-14.08-8.65-16.72a7.34,7.34,0,0,0-10.67,1.45,8.29,8.29,0,0,0,1.37,11.24l.25.2Z" transform="translate(0 0)" fill="#ffc107"/><path id="Path_731" data-name="Path 731" d="M313.49,227.53c0,4.43-7.61,17.27-7.61,17.27s-7.61-12.84-7.61-17.27a7.62,7.62,0,1,1,15.22,0Z" transform="translate(0 0)" fill="#43b02a" opacity="0.25" style="isolation:isolate"/><path id="Path_732" data-name="Path 732" d="M326.07,252.06c-2.29,3.72-15.3,10.14-15.3,10.14s.24-15.14,2.52-18.86A7.39,7.39,0,0,1,323.82,241a8.27,8.27,0,0,1,2.25,11.09Z" transform="translate(0 0)" fill="#43b02a" opacity="0.25" style="isolation:isolate"/><path id="Path_733" data-name="Path 733" d="M325.52,294c-3.75,2-18,.61-18,.61s7.46-12.94,11.21-14.93a7.43,7.43,0,0,1,10.25,3.47,8.24,8.24,0,0,1-3.3,10.8l-.09.05Z" transform="translate(0 0)" fill="#43b02a" opacity="0.25" style="isolation:isolate"/><path id="Path_734" data-name="Path 734" d="M318.33,325.6c-3.38,2.63-17.7,3.82-17.7,3.82s5.27-14.08,8.65-16.71a7.36,7.36,0,0,1,10.66,1.53,8.32,8.32,0,0,1-1.46,11.24l-.15.12Z" transform="translate(0 0)" fill="#43b02a" opacity="0.25" style="isolation:isolate"/><path id="Path_735" data-name="Path 735" d="M294.79,263.06c3,3.08,17.06,6.28,17.06,6.28s-3.44-14.7-6.45-17.78a7.35,7.35,0,0,0-10.77,0,8.33,8.33,0,0,0,0,11.34l.14.15Z" transform="translate(0 0)" fill="#43b02a" opacity="0.25" style="isolation:isolate"/><path id="Path_736" data-name="Path 736" d="M286.83,300.16c3.75,2,18,.62,18,.62s-7.46-12.95-11.21-14.94a7.46,7.46,0,0,0-10.1,3.93,8.23,8.23,0,0,0,3.27,10.39Z" transform="translate(0 0)" fill="#43b02a" opacity="0.25" style="isolation:isolate"/><path id="Path_737" data-name="Path 737" d="M283.77,337.31c3.38,2.64,17.7,3.83,17.7,3.83s-5.27-14.08-8.65-16.72a7.34,7.34,0,0,0-10.67,1.45,8.29,8.29,0,0,0,1.37,11.24l.25.2Z" transform="translate(0 0)" fill="#43b02a" opacity="0.25" style="isolation:isolate"/><path id="Path_738" data-name="Path 738" d="M488.73,259.55c-1.28-10.61,2.74-21.52.35-31.9-1.84-8-7.29-14.71-9.08-22.74-2.63-11.91,3.39-24.13,11.07-33.27,5.28-6.3,11.91-12,19.81-13.17a25.5,25.5,0,0,1,14.4,2.5,37.86,37.86,0,0,1,19.64,22.73c1,3.25,1.64,6.66,2.92,9.81,2.2,5.44,6.24,9.83,8.76,15.11a30,30,0,0,1,.92,23.17c-2.91,7.66-9,14.07-9.92,22.26-.66,5.9,1.44,12.37-1.29,17.58-2.06,3.92-6.3,5.9-10.32,7.39-9.35,3.43-22.42,9-31.79,3.7A31.4,31.4,0,0,1,488.73,259.55Z" transform="translate(0 0)" fill="#89ce79"/><path id="Path_739" data-name="Path 739" d="M515,267.08s13.76-5.85,15.5-9.14,4.16-22.67,4.16-22.67" transform="translate(0 0)" fill="none" stroke="#333" stroke-miterlimit="10" stroke-width="3.25"/><line id="Line_1" data-name="Line 1" x1="514.83" y1="356.67" x2="514.83" y2="230.53" fill="none" stroke="#333" stroke-miterlimit="10" stroke-width="3.25"/><g id="Group_48" data-name="Group 48" opacity="0.5"><path id="Path_740" data-name="Path 740" d="M498.4,131.84l-115.37.3a4.88,4.88,0,0,0-4.73,5l.52,227.36a4.89,4.89,0,0,0,4.76,5l115.38-.3a4.88,4.88,0,0,0,4.73-5l-.52-227.36a4.89,4.89,0,0,0-4.76-5h0Z" transform="translate(0 0)" fill="url(#linear-gradient)"/></g><path id="Rectangle_91" data-name="Rectangle 91" d="M394.36,135.21l92.72-.24c7.95,0,14.41,6.75,14.42,15.12L502,350.84c0,8.37-6.41,15.17-14.35,15.19l-92.72.24c-7.95,0-14.4-6.75-14.42-15.12L380,150.41C380,142,386.42,135.23,394.36,135.21Z" transform="translate(0 0)" fill="#535461"/><path id="Path_741" data-name="Path 741" d="M498.93,355.35a4.75,4.75,0,0,1-4.6,4.87l-106.19.27a4.73,4.73,0,0,1-4.62-4.85l-.08-32.81L383,145.9a4.74,4.74,0,0,1,4.6-4.88l22.21-.05a10,10,0,0,0,9.71,8.8l42-.11a10,10,0,0,0,9.72-8.86l22.55-.05a4.74,4.74,0,0,1,4.63,4.84l.43,177.23Z" transform="translate(0 0)" fill="#fff"/><path id="Path_742" data-name="Path 742" d="M498.93,355.35a4.76,4.76,0,0,1-4.61,4.87l-106.18.27a4.74,4.74,0,0,1-4.63-4.85l-.07-32.81H498.85Z" transform="translate(0 0)" fill="#e6e6e6"/><path id="Rectangle_92" data-name="Rectangle 92" d="M426.94,143.87l25.38-.4a.86.86,0,0,1,.86.87h0a.87.87,0,0,1-.83.91l-25.38.4a.86.86,0,0,1-.86-.88h0A.86.86,0,0,1,426.94,143.87Z" transform="translate(0 0)" fill="#fff"/><ellipse id="Ellipse_46" data-name="Ellipse 46" cx="458.93" cy="144.07" rx="1.02" ry="1.07" fill="#fff"/><path id="Path_743" data-name="Path 743" d="M528.64,259.55c-1.29-10.61,2.74-21.52.34-31.9-1.83-8-7.28-14.71-9.07-22.74-2.63-11.91,3.38-24.13,11.06-33.27,5.28-6.3,11.91-12,19.81-13.17a25.49,25.49,0,0,1,14.4,2.5,37.8,37.8,0,0,1,19.64,22.73c1,3.25,1.64,6.66,2.92,9.81,2.21,5.44,6.25,9.83,8.77,15.11a30.09,30.09,0,0,1,.91,23.19c-2.91,7.65-9,14.06-9.93,22.25-.65,5.91,1.45,12.38-1.28,17.58-2.06,3.93-6.3,5.91-10.32,7.39-9.34,3.42-22.41,9-31.78,3.69A31.37,31.37,0,0,1,528.64,259.55Z" transform="translate(0 0)" fill="#43b02a"/><path id="Path_744" data-name="Path 744" d="M528.64,259.55c-1.29-10.61,2.74-21.52.34-31.9-1.83-8-7.28-14.71-9.07-22.74-2.63-11.91,3.38-24.13,11.06-33.27,5.28-6.3,11.91-12,19.81-13.17a25.49,25.49,0,0,1,14.4,2.5,37.8,37.8,0,0,1,19.64,22.73c1,3.25,1.64,6.66,2.92,9.81,2.21,5.44,6.25,9.83,8.77,15.11a30.09,30.09,0,0,1,.91,23.19c-2.91,7.65-9,14.06-9.93,22.25-.65,5.91,1.45,12.38-1.28,17.58-2.06,3.93-6.3,5.91-10.32,7.39-9.34,3.42-22.41,9-31.78,3.69A31.37,31.37,0,0,1,528.64,259.55Z" transform="translate(0 0)" opacity="0.2" style="isolation:isolate"/><path id="Path_745" data-name="Path 745" d="M554.87,267.08s13.76-5.85,15.5-9.14,4.16-22.67,4.16-22.67" transform="translate(0 0)" fill="none" stroke="#333" stroke-miterlimit="10" stroke-width="3.25"/><line id="Line_2" data-name="Line 2" x1="554.74" y1="356.67" x2="554.74" y2="230.53" fill="none" stroke="#333" stroke-miterlimit="10" stroke-width="3.25"/><path id="Path_746" data-name="Path 746" d="M329.77,374.38s-4.41-15.79.83-27.42a26.11,26.11,0,0,0,1.91-15.65,43.08,43.08,0,0,0-2.1-7.34" transform="translate(0 0)" fill="none" stroke="#535461" stroke-miterlimit="10" stroke-width="2.17"/><path id="Path_747" data-name="Path 747" d="M333.67,316.63c0,1.94-3.32,7.55-3.32,7.55s-3.33-5.61-3.33-7.55a3.33,3.33,0,1,1,6.66,0Z" transform="translate(0 0)" fill="#ffc107"/><path id="Path_748" data-name="Path 748" d="M339.17,327.35c-1,1.63-6.68,4.44-6.68,4.44s.1-6.62,1.1-8.24a3.22,3.22,0,0,1,4.61-1,3.63,3.63,0,0,1,1,4.79Z" transform="translate(0 0)" fill="#ffc107"/><path id="Path_749" data-name="Path 749" d="M338.93,345.67c-1.64.87-7.89.27-7.89.27s3.25-5.65,4.9-6.52a3.25,3.25,0,0,1,4.48,1.51,3.58,3.58,0,0,1-1.44,4.71Z" transform="translate(0 0)" fill="#ffc107"/><path id="Path_750" data-name="Path 750" d="M335.79,359.49c-1.48,1.15-7.74,1.67-7.74,1.67s2.31-6.16,3.78-7.32a3.23,3.23,0,0,1,4.64.83,3.65,3.65,0,0,1-.68,4.81Z" transform="translate(0 0)" fill="#ffc107"/><path id="Path_751" data-name="Path 751" d="M325.49,332.16c1.32,1.35,7.45,2.75,7.45,2.75s-1.5-6.43-2.82-7.78a3.21,3.21,0,0,0-4.7.05,3.65,3.65,0,0,0,.05,5l0,0Z" transform="translate(0 0)" fill="#ffc107"/><path id="Path_752" data-name="Path 752" d="M322,348.37c1.64.87,7.9.27,7.9.27s-3.26-5.66-4.9-6.53a3.25,3.25,0,0,0-4.48,1.51,3.59,3.59,0,0,0,1.43,4.72l0,0Z" transform="translate(0 0)" fill="#ffc107"/><path id="Path_753" data-name="Path 753" d="M320.69,364.61c1.47,1.15,7.73,1.67,7.73,1.67s-2.3-6.15-3.78-7.31a3.2,3.2,0,0,0-4.66.63,3.62,3.62,0,0,0,.6,4.92l.1.08Z" transform="translate(0 0)" fill="#ffc107"/><path id="Path_754" data-name="Path 754" d="M333.67,316.63c0,1.94-3.32,7.55-3.32,7.55s-3.33-5.61-3.33-7.55a3.33,3.33,0,1,1,6.66,0Z" transform="translate(0 0)" fill="#43b02a" opacity="0.25" style="isolation:isolate"/><path id="Path_755" data-name="Path 755" d="M339.17,327.35c-1,1.63-6.68,4.44-6.68,4.44s.1-6.62,1.1-8.24a3.22,3.22,0,0,1,4.61-1,3.63,3.63,0,0,1,1,4.79Z" transform="translate(0 0)" fill="#43b02a" opacity="0.25" style="isolation:isolate"/><path id="Path_756" data-name="Path 756" d="M338.93,345.67c-1.64.87-7.89.27-7.89.27s3.25-5.65,4.9-6.52a3.25,3.25,0,0,1,4.48,1.51,3.58,3.58,0,0,1-1.44,4.71Z" transform="translate(0 0)" fill="#43b02a" opacity="0.25" style="isolation:isolate"/><path id="Path_757" data-name="Path 757" d="M335.79,359.49c-1.48,1.15-7.74,1.67-7.74,1.67s2.31-6.16,3.78-7.32a3.23,3.23,0,0,1,4.64.83,3.65,3.65,0,0,1-.68,4.81Z" transform="translate(0 0)" fill="#43b02a" opacity="0.25" style="isolation:isolate"/><path id="Path_758" data-name="Path 758" d="M325.49,332.16c1.32,1.35,7.45,2.75,7.45,2.75s-1.5-6.43-2.82-7.78a3.21,3.21,0,0,0-4.7.05,3.65,3.65,0,0,0,.05,5l0,0Z" transform="translate(0 0)" fill="#43b02a" opacity="0.25" style="isolation:isolate"/><path id="Path_759" data-name="Path 759" d="M322,348.37c1.64.87,7.9.27,7.9.27s-3.26-5.66-4.9-6.53a3.25,3.25,0,0,0-4.48,1.51,3.59,3.59,0,0,0,1.43,4.72l0,0Z" transform="translate(0 0)" fill="#43b02a" opacity="0.25" style="isolation:isolate"/><path id="Path_760" data-name="Path 760" d="M320.69,364.61c1.47,1.15,7.73,1.67,7.73,1.67s-2.3-6.15-3.78-7.31a3.2,3.2,0,0,0-4.66.63,3.62,3.62,0,0,0,.6,4.92l.1.08Z" transform="translate(0 0)" fill="#43b02a" opacity="0.25" style="isolation:isolate"/><path id="Path_761" data-name="Path 761" d="M574.32,365.45s-5.47-19.56,1-34a32.39,32.39,0,0,0,2.37-19.38,54.75,54.75,0,0,0-2.61-9.1" transform="translate(0 0)" fill="none" stroke="#535461" stroke-miterlimit="10" stroke-width="2.17"/><path id="Path_762" data-name="Path 762" d="M579.16,293.9c0,2.4-4.12,9.35-4.12,9.35s-4.12-6.95-4.12-9.35a4.13,4.13,0,1,1,8.24,0Z" transform="translate(0 0)" fill="#ffc107"/><path id="Path_763" data-name="Path 763" d="M586,307.18c-1.23,2-8.28,5.48-8.28,5.48s.13-8.19,1.37-10.21a4,4,0,0,1,5.71-1.22,4.48,4.48,0,0,1,1.2,5.94Z" transform="translate(0 0)" fill="#ffc107"/><path id="Path_764" data-name="Path 764" d="M585.67,329.87c-2,1.1-9.78.34-9.78.34s4-7,6.07-8.09a4,4,0,0,1,5.53,1.92,4.45,4.45,0,0,1-1.82,5.83Z" transform="translate(0 0)" fill="#ffc107"/><path id="Path_765" data-name="Path 765" d="M581.77,347c-1.82,1.43-9.58,2.07-9.58,2.07s2.86-7.62,4.68-9.05a4,4,0,0,1,5.77.91A4.5,4.5,0,0,1,581.77,347Z" transform="translate(0 0)" fill="#ffc107"/><path id="Path_766" data-name="Path 766" d="M569,313.14c1.63,1.67,9.24,3.4,9.24,3.4s-1.86-8-3.49-9.63a4,4,0,0,0-5.82.3,4.51,4.51,0,0,0,.07,5.92Z" transform="translate(0 0)" fill="#ffc107"/><path id="Path_767" data-name="Path 767" d="M564.72,333.21c2,1.1,9.78.34,9.78.34s-4-7-6.07-8.09a4,4,0,0,0-5.53,1.92,4.45,4.45,0,0,0,1.82,5.83Z" transform="translate(0 0)" fill="#ffc107"/><path id="Path_768" data-name="Path 768" d="M563.07,353.34c1.83,1.42,9.58,2.06,9.58,2.06s-2.85-7.62-4.68-9a4,4,0,0,0-5.76.91,4.48,4.48,0,0,0,.86,6.07h0Z" transform="translate(0 0)" fill="#ffc107"/><path id="Path_769" data-name="Path 769" d="M579.16,293.9c0,2.4-4.12,9.35-4.12,9.35s-4.12-6.95-4.12-9.35a4.13,4.13,0,1,1,8.24,0Z" transform="translate(0 0)" fill="#43b02a" opacity="0.5" style="isolation:isolate"/><path id="Path_770" data-name="Path 770" d="M586,307.18c-1.23,2-8.28,5.48-8.28,5.48s.13-8.19,1.37-10.21a4,4,0,0,1,5.71-1.22,4.48,4.48,0,0,1,1.2,5.94Z" transform="translate(0 0)" fill="#43b02a" opacity="0.5" style="isolation:isolate"/><path id="Path_771" data-name="Path 771" d="M585.67,329.87c-2,1.1-9.78.34-9.78.34s4-7,6.07-8.09a4,4,0,0,1,5.53,1.92,4.45,4.45,0,0,1-1.82,5.83Z" transform="translate(0 0)" fill="#43b02a" opacity="0.5" style="isolation:isolate"/><path id="Path_772" data-name="Path 772" d="M581.77,347c-1.82,1.43-9.58,2.07-9.58,2.07s2.86-7.62,4.68-9.05a4,4,0,0,1,5.77.91A4.5,4.5,0,0,1,581.77,347Z" transform="translate(0 0)" fill="#43b02a" opacity="0.5" style="isolation:isolate"/><path id="Path_773" data-name="Path 773" d="M569,313.14c1.63,1.67,9.24,3.4,9.24,3.4s-1.86-8-3.49-9.63a4,4,0,0,0-5.82.3,4.51,4.51,0,0,0,.07,5.92Z" transform="translate(0 0)" fill="#43b02a" opacity="0.5" style="isolation:isolate"/><path id="Path_774" data-name="Path 774" d="M564.72,333.21c2,1.1,9.78.34,9.78.34s-4-7-6.07-8.09a4,4,0,0,0-5.53,1.92,4.45,4.45,0,0,0,1.82,5.83Z" transform="translate(0 0)" fill="#43b02a" opacity="0.5" style="isolation:isolate"/><path id="Path_775" data-name="Path 775" d="M563.07,353.34c1.83,1.42,9.58,2.06,9.58,2.06s-2.85-7.62-4.68-9a4,4,0,0,0-5.76.91,4.48,4.48,0,0,0,.86,6.07h0Z" transform="translate(0 0)" fill="#43b02a" opacity="0.5" style="isolation:isolate"/><g id="Group_49" data-name="Group 49" opacity="0.6"><path id="Rectangle_93" data-name="Rectangle 93" d="M400.06,169.09h.06c6.12,0,11.08,5.22,11.08,11.66v.07c0,6.44-5,11.67-11.08,11.67h-.06c-6.12,0-11.07-5.23-11.07-11.67v-.07C389,174.31,393.94,169.09,400.06,169.09Z" transform="translate(0 0)" fill="#43b02a"/><path id="Rectangle_94" data-name="Rectangle 94" d="M427.48,169.09h.06c6.11,0,11.07,5.22,11.07,11.66v.07c0,6.44-5,11.67-11.07,11.67h-.06c-6.12,0-11.08-5.23-11.08-11.67v-.07C416.4,174.31,421.36,169.09,427.48,169.09Z" transform="translate(0 0)" fill="#43b02a"/><path id="Rectangle_95" data-name="Rectangle 95" d="M454.89,169.09H455c6.12,0,11.07,5.22,11.07,11.66v.07c0,6.44-4.95,11.67-11.07,11.67h-.06c-6.12,0-11.07-5.23-11.07-11.67v-.07C443.82,174.31,448.77,169.09,454.89,169.09Z" transform="translate(0 0)" fill="#43b02a"/><path id="Rectangle_96" data-name="Rectangle 96" d="M482.3,169.09h.06c6.12,0,11.08,5.22,11.08,11.66v.07c0,6.44-5,11.67-11.08,11.67h-.06c-6.11,0-11.07-5.23-11.07-11.67v-.07C471.23,174.31,476.19,169.09,482.3,169.09Z" transform="translate(0 0)" fill="#43b02a"/></g><path id="Rectangle_97" data-name="Rectangle 97" d="M400,204.19H400c6.11,0,11.07,5.22,11.07,11.66v.07c0,6.44-5,11.67-11.07,11.67H400c-6.12,0-11.08-5.23-11.08-11.67v-.07C388.87,209.41,393.83,204.19,400,204.19Z" transform="translate(0 0)" fill="#43b02a"/><path id="Rectangle_98" data-name="Rectangle 98" d="M427.36,204.19h.06c6.12,0,11.08,5.22,11.08,11.66v.07c0,6.44-5,11.67-11.08,11.67h-.06c-6.11,0-11.07-5.23-11.07-11.67v-.07C416.29,209.41,421.25,204.19,427.36,204.19Z" transform="translate(0 0)" fill="#43b02a" opacity="0.6" style="isolation:isolate"/><path id="Rectangle_99" data-name="Rectangle 99" d="M454.77,204.19h.07c6.11,0,11.07,5.22,11.07,11.66v.07c0,6.44-5,11.67-11.07,11.67h-.07c-6.11,0-11.07-5.23-11.07-11.67v-.07C443.7,209.41,448.66,204.19,454.77,204.19Z" transform="translate(0 0)" fill="#43b02a" opacity="0.6" style="isolation:isolate"/><path id="Rectangle_100" data-name="Rectangle 100" d="M482.19,204.19h.06c6.12,0,11.07,5.22,11.07,11.66v.07c0,6.44-4.95,11.67-11.07,11.67h-.06c-6.12,0-11.07-5.23-11.07-11.67v-.07C471.12,209.41,476.07,204.19,482.19,204.19Z" transform="translate(0 0)" fill="#43b02a" opacity="0.6" style="isolation:isolate"/><g id="Group_50" data-name="Group 50" opacity="0.6"><path id="Rectangle_101" data-name="Rectangle 101" d="M399.83,239.29h.06C406,239.29,411,244.51,411,251V251c0,6.44-5,11.67-11.08,11.67h-.06c-6.11,0-11.07-5.23-11.07-11.67V251C388.76,244.51,393.72,239.29,399.83,239.29Z" transform="translate(0 0)" fill="#43b02a"/><path id="Rectangle_102" data-name="Rectangle 102" d="M427.25,239.29h.06c6.11,0,11.07,5.22,11.07,11.66V251c0,6.44-5,11.67-11.07,11.67h-.06c-6.12,0-11.08-5.23-11.08-11.67V251C416.17,244.51,421.13,239.29,427.25,239.29Z" transform="translate(0 0)" fill="#43b02a"/><path id="Rectangle_103" data-name="Rectangle 103" d="M454.66,239.29h.06c6.12,0,11.07,5.22,11.07,11.66V251c0,6.44-5,11.67-11.07,11.67h-.06c-6.12,0-11.07-5.23-11.07-11.67V251C443.59,244.51,448.54,239.29,454.66,239.29Z" transform="translate(0 0)" fill="#43b02a"/><path id="Rectangle_104" data-name="Rectangle 104" d="M482.07,239.29h.07c6.11,0,11.07,5.22,11.07,11.66V251c0,6.44-5,11.67-11.07,11.67h-.07C476,262.69,471,257.46,471,251V251C471,244.51,476,239.29,482.07,239.29Z" transform="translate(0 0)" fill="#43b02a"/></g><g id="Group_51" data-name="Group 51" opacity="0.6"><path id="Rectangle_105" data-name="Rectangle 105" d="M399.72,274.39h.06c6.12,0,11.08,5.22,11.08,11.66v.07c0,6.44-5,11.67-11.08,11.67h-.06c-6.11,0-11.07-5.23-11.07-11.67v-.07C388.65,279.61,393.61,274.39,399.72,274.39Z" transform="translate(0 0)" fill="#43b02a"/><path id="Rectangle_106" data-name="Rectangle 106" d="M427.14,274.39h.06c6.11,0,11.07,5.22,11.07,11.66v.07c0,6.44-5,11.67-11.07,11.67h-.06c-6.12,0-11.08-5.23-11.08-11.67v-.07C416.06,279.61,421,274.39,427.14,274.39Z" transform="translate(0 0)" fill="#43b02a"/><path id="Rectangle_107" data-name="Rectangle 107" d="M454.55,274.39h.06c6.12,0,11.07,5.22,11.07,11.66v.07c0,6.44-4.95,11.67-11.07,11.67h-.06c-6.12,0-11.07-5.23-11.07-11.67v-.07C443.48,279.61,448.43,274.39,454.55,274.39Z" transform="translate(0 0)" fill="#43b02a"/><path id="Rectangle_108" data-name="Rectangle 108" d="M482,274.39H482c6.11,0,11.07,5.22,11.07,11.66v.07c0,6.44-5,11.67-11.07,11.67H482c-6.11,0-11.07-5.23-11.07-11.67v-.07C470.89,279.61,475.85,274.39,482,274.39Z" transform="translate(0 0)" fill="#43b02a"/></g><path id="Path_776" data-name="Path 776" d="M400.45,230.64v2.11L392,227.12l.89-1.17.41.25,6.55-10.11v-5.88l2.49.24v-.94c6.6-8,7.26.94,5.9,3.52a15.13,15.13,0,0,1-3.85,4.45c-1.39,1.23-3.82,10.52-4.4,12.85Z" transform="translate(0 0)" fill="url(#linear-gradient-2)"/><path id="Path_778" data-name="Path 778" d="M398.75,213.33V219l-6.37,9.84,6.37,4.37s2.83-11.5,4.36-12.85a15,15,0,0,0,3.7-4.28c1.31-2.48.65-11.05-5.67-3.38v.9Z" transform="translate(0 0)" fill="#fda57d"/><path id="Path_779" data-name="Path 779" d="M348,226.77l2.52-5.31a1,1,0,0,1,.79-.55l9.58-.51a.94.94,0,0,1,1,.93.91.91,0,0,1-.06.4l-2.47,6.73a.92.92,0,0,1-.95.63l-9.63-.9a1,1,0,0,1-.85-1.07,1.08,1.08,0,0,1,.1-.35Z" transform="translate(0 0)" fill="#fda57d"/><path id="Path_780" data-name="Path 780" d="M348.73,224.49l-1.63,5,16.71-.63-6.42-4.06Z" transform="translate(0 0)" fill="#edeef9"/><path id="Path_781" data-name="Path 781" d="M391.2,229.56l.85-1.13,7.28,4.51v2Z" transform="translate(0 0)" fill="#edeef9"/><path id="Path_782" data-name="Path 782" d="M342.05,279.44a17.51,17.51,0,0,1-1.13,10.31c-2.35,5.19-2.35,10.61.65,16.91l.85,32.69s1.07,15.33,0,18.48.42,18.27.42,18.27h12V366l4.07-30V320.64l7.28,16-8.33,37,10.91,4.73,13.7-41.49s-2.37-32.68-10.93-43.95l-1.61-12.29Z" transform="translate(0 0)" fill="#7a7478"/><path id="Path_783" data-name="Path 783" d="M342.63,384.44V376.1h12.2s.85,3.38,6.42,4-2.57,4.74-2.57,4.74Z" transform="translate(0 0)" fill="#333"/><path id="Path_784" data-name="Path 784" d="M355.81,379.24l2.12-8,11.75,3.45s0,3.49,5.15,5.72-3.68,3.83-3.68,3.83Z" transform="translate(0 0)" fill="#333"/><path id="Path_785" data-name="Path 785" d="M369.91,281.3l-27.86-1.19a17.64,17.64,0,0,1,.21,5.33,3.31,3.31,0,0,0,4,2.29l24.37-.79Z" transform="translate(0 0)" opacity="0.1" style="isolation:isolate"/><path id="Path_786" data-name="Path 786" d="M347.66,227.65l-1.11.79a22.57,22.57,0,0,0-8.84,22.21h0s6.21,12.8,4.28,25.59,4.28,10.83,4.28,10.83l24.5-.8,1.82-38.81s14.76,2.21,21.39-3.2l5.35-8.61-8.13-5.91-2.77,4.18a101.34,101.34,0,0,1-13.5-4,19.66,19.66,0,0,0-7-1.59Z" transform="translate(0 0)" fill="#4d8af0"/><path id="Path_787" data-name="Path 787" d="M347.88,290.09s-1.5,7.89,7.06,21" transform="translate(0 0)" opacity="0.1" style="isolation:isolate"/><path id="Path_788" data-name="Path 788" d="M372.68,247.49s10.27-3.61,14.77-3.61,3.74,2.05,3.74,2.05S384,249.29,372.68,247.49Z" transform="translate(0 0)" opacity="0.1" style="isolation:isolate"/><path id="Path_789" data-name="Path 789" d="M361.05,220.86l-4.09.51c-.13,0-.25.19-.32.46.9,1.71,2,2.72,3.25,2.72a2.48,2.48,0,0,0,1.24-.36l.31-2C361.55,221.53,361.34,220.82,361.05,220.86Z" transform="translate(0 0)" opacity="0.1" style="isolation:isolate"/><ellipse id="Ellipse_47" data-name="Ellipse 47" cx="358.2" cy="210.95" rx="12.48" ry="13.15" fill="#fda57d"/><path id="Path_790" data-name="Path 790" d="M368.81,203.5h0l-.64.61a2.36,2.36,0,0,0-.13,3.21,2.15,2.15,0,0,0,.77.57h0s-5.59,5.89-6.37,7,.13,4,.13,4,2.47,4.8-10.53,3.7c0,0-8.58-1.92-7.67-14.11.09-1.22-1.82-4.38,3.9-6h0a8.15,8.15,0,0,1,6-7.2,20.56,20.56,0,0,1,6.76-.63A8.78,8.78,0,0,1,368.81,203.5Z" transform="translate(0 0)" opacity="0.1" style="isolation:isolate"/><path id="Path_791" data-name="Path 791" d="M369.08,202.79h0s1.33.43,1.39,5l-1.88-.14s-4.36,12.29-3.91,10.69c1.69-5.89-1.68-4.8-2.47-3.7s.13,4,.13,4,2.47,4.79-10.53,3.7c0,0-8.58-1.92-7.67-14.11.09-1.22-1.82-4.39,3.91-6h0a8.15,8.15,0,0,1,6-7.21,20.62,20.62,0,0,1,6.77-.62C365.23,194.75,369.08,198.15,369.08,202.79Z" transform="translate(0 0)" fill="#72351c"/><g id="Group_52" data-name="Group 52" opacity="0.6"><path id="Rectangle_109" data-name="Rectangle 109" d="M400.07,330.14h.06c6.12,0,11.07,5.22,11.07,11.67v.06c0,6.45-4.95,11.67-11.07,11.67h-.06c-6.12,0-11.08-5.22-11.08-11.67v-.06C389,335.36,394,330.14,400.07,330.14Z" transform="translate(0 0)" fill="#ffc107"/><path id="Rectangle_110" data-name="Rectangle 110" d="M427.48,330.14h.06c6.12,0,11.08,5.22,11.08,11.67v.06c0,6.45-5,11.67-11.08,11.67h-.06c-6.11,0-11.07-5.22-11.07-11.67v-.06C416.41,335.36,421.37,330.14,427.48,330.14Z" transform="translate(0 0)" fill="#ffc107"/><path id="Rectangle_111" data-name="Rectangle 111" d="M454.9,330.14H455c6.11,0,11.07,5.22,11.07,11.67v.06c0,6.45-5,11.67-11.07,11.67h-.06c-6.12,0-11.08-5.22-11.08-11.67v-.06C443.82,335.36,448.78,330.14,454.9,330.14Z" transform="translate(0 0)" fill="#ffc107"/><path id="Rectangle_112" data-name="Rectangle 112" d="M482.31,330.14h.06c6.12,0,11.08,5.22,11.08,11.67v.06c0,6.45-5,11.67-11.08,11.67h-.06c-6.12,0-11.07-5.22-11.07-11.67v-.06C471.24,335.36,476.19,330.14,482.31,330.14Z" transform="translate(0 0)" fill="#ffc107"/></g><g id="Group_53" data-name="Group 53" opacity="0.1"><path id="Rectangle_113" data-name="Rectangle 113" d="M400.07,330.14h.06c6.12,0,11.07,5.22,11.07,11.67v.06c0,6.45-4.95,11.67-11.07,11.67h-.06c-6.12,0-11.08-5.22-11.08-11.67v-.06C389,335.36,394,330.14,400.07,330.14Z" transform="translate(0 0)" fill="#43b02a"/><path id="Rectangle_114" data-name="Rectangle 114" d="M427.48,330.14h.06c6.12,0,11.08,5.22,11.08,11.67v.06c0,6.45-5,11.67-11.08,11.67h-.06c-6.11,0-11.07-5.22-11.07-11.67v-.06C416.41,335.36,421.37,330.14,427.48,330.14Z" transform="translate(0 0)" fill="#43b02a"/><path id="Rectangle_115" data-name="Rectangle 115" d="M454.9,330.14H455c6.11,0,11.07,5.22,11.07,11.67v.06c0,6.45-5,11.67-11.07,11.67h-.06c-6.12,0-11.08-5.22-11.08-11.67v-.06C443.82,335.36,448.78,330.14,454.9,330.14Z" transform="translate(0 0)" fill="#43b02a"/><path id="Rectangle_116" data-name="Rectangle 116" d="M482.31,330.14h.06c6.12,0,11.08,5.22,11.08,11.67v.06c0,6.45-5,11.67-11.08,11.67h-.06c-6.12,0-11.07-5.22-11.07-11.67v-.06C471.24,335.36,476.19,330.14,482.31,330.14Z" transform="translate(0 0)" fill="#43b02a"/></g></g><path d="M406.4,185l-1.27-2,.11-.92h.17a.51.51,0,0,0,.52-.5V181a.51.51,0,0,0-.52-.49h-.72v-.65h0a.15.15,0,0,0,0-.11h0L404,179v-.63a.39.39,0,0,0-.4-.38h-.73l0,0a2.17,2.17,0,0,0-.74-.62.26.26,0,0,1-.13-.23v-.46a.22.22,0,0,0,.13-.2v-1a.62.62,0,0,0-.64-.6h-.69a.62.62,0,0,0-.64.6v1a.21.21,0,0,0,.13.2v.46a.26.26,0,0,1-.13.23l-.22.14v0a1,1,0,0,0-1.95,0,1.36,1.36,0,0,0,0,.2l.06.27a.73.73,0,0,0-.67.11.62.62,0,0,0-.1.93l.1.1.55.41a1.39,1.39,0,0,0-.52,1h-.88l0-.07h0c.59-.29,1.07-.78.87-1.13s-.89-.24-1.48.05h0l-.25-.44h0a2.51,2.51,0,0,0,.71-.52c.27-.31.22-.52.16-.61s-.21-.26-.63-.22a2.53,2.53,0,0,0-.85.27h0l-.18-.33a1.21,1.21,0,0,1-.16-.59,1.24,1.24,0,0,1,.71-1.1,1.34,1.34,0,0,1,1-.09,1.27,1.27,0,0,1,.78.61l.32.56a.2.2,0,0,0,.25.07.17.17,0,0,0,.07-.24l-.31-.56a1.74,1.74,0,0,0-2.29-.65,1.56,1.56,0,0,0-.89,1.4,1.53,1.53,0,0,0,.2.75l1.59,2.83h-.75a.51.51,0,0,0-.52.49v.56a.51.51,0,0,0,.52.5h.16l.12.92-1.27,2a.43.43,0,0,0-.06.38.49.49,0,0,0,.24.31.6.6,0,0,0,.19.06h.08a.53.53,0,0,0,.45-.25l.57-.89,0,.33a.17.17,0,0,0,.18.15h0a.17.17,0,0,0,.16-.19l-.09-.78,1.3-2h5.83l1.31,2-.23,1.86a.45.45,0,0,1-.45.38h-7.08a.45.45,0,0,1-.45-.38l-.05-.39a.17.17,0,0,0-.2-.15.17.17,0,0,0-.16.19l0,.39a.81.81,0,0,0,.82.68h7.08a.81.81,0,0,0,.82-.68l.17-1.41.57.89a.54.54,0,0,0,.72.18A.49.49,0,0,0,406.4,185Zm-10.3-5.32c.59-.3.95-.25,1-.2s-.13.37-.72.67h0l-.26-.46Zm-.86-1.52a2.59,2.59,0,0,1,.72-.23c.18,0,.26,0,.27,0s0,.1-.12.23a2.2,2.2,0,0,1-.6.43h0l-.26-.47Zm9.58,4.35-.27-.43h.33Zm-3.71-2v-.59l.58-.69h2.06l.38.45h-.83a.18.18,0,0,0-.18.18.18.18,0,0,0,.18.17h1v.48Zm2.54-2.14v.52h-1.87v-.52s0,0,0,0h1.8A0,0,0,0,1,403.65,178.36Zm-2.85-3.13h.69a.27.27,0,0,1,.27.26v.84h-1.24v-.84A.28.28,0,0,1,400.8,175.23Zm-.45,2.4a.61.61,0,0,0,.31-.52v-.43h1v.43a.6.6,0,0,0,.3.52,4.13,4.13,0,0,1,.49.35h-.6a.39.39,0,0,0-.4.38V179l-.63.75a.15.15,0,0,0,0,.11v.65h-.25a1.39,1.39,0,0,0-.52-1l.22-.17.33-.24a.94.94,0,0,0,.1-.1.62.62,0,0,0-.1-.93.75.75,0,0,0-.51-.15h0A4.37,4.37,0,0,1,400.35,177.63Zm-.63.9c0-.07.1-.29.34-.31a.3.3,0,0,1,.24.07.3.3,0,0,1,.12.21.31.31,0,0,1-.12.28L400,179l-.3.24-.1,0Zm-.76-1.66a.59.59,0,0,1,.61.57.49.49,0,0,1,0,.12l-.07.32h0l-.28,1.23a1,1,0,0,0-.25,0,1,1,0,0,0-.24,0h0c-.06-.29-.13-.59-.34-1.55a.5.5,0,0,1,0-.12A.59.59,0,0,1,399,176.87Zm-1.38,1.86a.3.3,0,0,1,.05-.44.33.33,0,0,1,.5.1l.08.14.15.65v0l-.1,0Zm1.38.71a1.16,1.16,0,0,1,1.18,1.06h-2.35A1.15,1.15,0,0,1,399,179.44Zm-3,2.61h.33l-.27.43Zm-.93,3.26a.18.18,0,0,1-.17.07h0l-.06,0a.2.2,0,0,1-.07-.09.16.16,0,0,1,0-.12l1.3-2.05h0l.72-1.13h0l.4-.63a.13.13,0,0,1,.1-.07h0l.08,0a.14.14,0,0,1,.05.21l-.18.29h0Zm2.71-3.61,0,0a.49.49,0,0,0,.06-.37.53.53,0,0,0-.24-.31.56.56,0,0,0-.4-.06.6.6,0,0,0-.33.23l-.35.55h-1.08a.15.15,0,0,1-.15-.15V181a.15.15,0,0,1,.15-.15h10a.15.15,0,0,1,.15.15v.56a.15.15,0,0,1-.15.15h-1.08l-.35-.55a.6.6,0,0,0-.33-.23.56.56,0,0,0-.4.06.53.53,0,0,0-.24.31.49.49,0,0,0,.06.37l0,0Zm8.27,3.68a.19.19,0,0,1-.16-.07c-.13-.22-2.3-3.62-2.42-3.82a.14.14,0,0,1,.05-.21.16.16,0,0,1,.22.05c.14.21,1,1.56,1.13,1.76h0l1.3,2.05A.15.15,0,0,1,406,185.38Z" transform="translate(0 0)" fill="#fff"/><path d="M398.51,183.55V183a.49.49,0,0,0-1,0v.57a.49.49,0,0,0,1,0Zm-.61,0V183a.12.12,0,0,1,.24,0v.57a.12.12,0,0,1-.24,0Z" transform="translate(0 0)" fill="#fff"/><path d="M399.7,185.42v-.57a.49.49,0,0,0-1,0v.57a.49.49,0,0,0,1,0Zm-.61,0v-.57a.12.12,0,0,1,.24,0v.57a.12.12,0,1,1-.24,0Z" transform="translate(0 0)" fill="#fff"/><path d="M400.89,183.55V183a.49.49,0,0,0-1,0v.57a.49.49,0,0,0,1,0Zm-.61,0V183a.12.12,0,0,1,.24,0v.57a.12.12,0,0,1-.24,0Z" transform="translate(0 0)" fill="#fff"/><path d="M402.08,185.42v-.57a.49.49,0,0,0-1,0v.57a.49.49,0,0,0,1,0Zm-.61,0v-.57a.12.12,0,0,1,.24,0v.57a.12.12,0,0,1-.24,0Z" transform="translate(0 0)" fill="#fff"/><path d="M403.27,183.55V183a.49.49,0,0,0-1,0v.57a.49.49,0,0,0,1,0Zm-.61,0V183a.12.12,0,0,1,.24,0v.57a.12.12,0,0,1-.24,0Z" transform="translate(0 0)" fill="#fff"/><path d="M461.11,178.32a1.48,1.48,0,0,0-1-.36h-3v-1.39a.37.37,0,0,0-.4-.32h-2.12a.37.37,0,0,0-.4.32V178h-3.71l-.1-.59a1.32,1.32,0,0,0-1.24-1.12h-.71a.36.36,0,0,0-.39.32.36.36,0,0,0,.39.32h.71a.66.66,0,0,1,.46.57l1.13,6.86a1.23,1.23,0,0,0,.54.79,1.93,1.93,0,0,0,.77.31.91.91,0,0,0-.18.56,1.5,1.5,0,0,0,2.92,0,.94.94,0,0,0-.17-.54h2.08a1,1,0,0,0-.16.54,1.5,1.5,0,0,0,2.92,0,1,1,0,0,0-.16-.54h1a.36.36,0,0,0,.39-.32.36.36,0,0,0-.39-.32h-8a.81.81,0,0,1-.81-.57l-.09-.5h7.83a1.87,1.87,0,0,0,1.06-.33,1.23,1.23,0,0,0,.54-.79l.57-3.44A.93.93,0,0,0,461.11,178.32ZM454,186a.68.68,0,1,1-.66-.54A.61.61,0,0,1,454,186Zm4.68,0a.69.69,0,1,1-.67-.54A.61.61,0,0,1,458.65,186ZM455,176.89h1.33v1.39h0V180a.37.37,0,0,0,.4.32h.14l-1.18.94-1.18-.94h.1A.36.36,0,0,0,455,180Zm5.66,2.19-.57,3.44a.81.81,0,0,1-.81.57h-7.93l-.75-4.49h3.61v1.07h-.66a.41.41,0,0,0-.37.2.29.29,0,0,0,.09.35l2.14,1.71a.48.48,0,0,0,.56,0l2.14-1.71a.27.27,0,0,0,.09-.35.41.41,0,0,0-.37-.2h-.7V178.6h3a.58.58,0,0,1,.41.14A.37.37,0,0,1,460.63,179.08Z" transform="translate(0 0)" fill="#fff"/><path d="M433.32,210.52h-1.63v.62a.16.16,0,0,1-.16.14h-.35a.16.16,0,0,1-.16-.14v-.62h-1.63a.21.21,0,0,0-.22.2v3.17a.21.21,0,0,0,.22.2h3.93a.21.21,0,0,0,.22-.2v-3.17A.21.21,0,0,0,433.32,210.52Z" transform="translate(0 0)" fill="#fff"/><path d="M431.05,221.43a1.64,1.64,0,1,1,1.79-1.64A1.73,1.73,0,0,1,431.05,221.43Zm0-2.45a.81.81,0,1,0,0,1.62.81.81,0,1,0,0-1.62Z" transform="translate(0 0)" fill="#fff"/><path d="M421.07,221.43a1.64,1.64,0,1,1,1.8-1.64A1.73,1.73,0,0,1,421.07,221.43Zm0-2.45a.81.81,0,1,0,.89.81A.86.86,0,0,0,421.07,219Z" transform="translate(0 0)" fill="#fff"/><path d="M431.9,216.59v-.44h1.26a.49.49,0,0,0,.51-.47v-.33a.49.49,0,0,0-.51-.47h-6.29a.49.49,0,0,0-.51.47v.33a.49.49,0,0,0,.51.47h.7v1.79h-3.48a3.41,3.41,0,0,0-1-.91l1.37-4.49h1.26a.47.47,0,1,0,0-.93h-1.8a.64.64,0,0,0-.23,0,.42.42,0,0,0-.19.16l-3.65,5a.54.54,0,0,0-.13.49.58.58,0,0,0,.73.25,2.82,2.82,0,0,1,.71-.09,2.33,2.33,0,0,1,2.43,2.2.49.49,0,0,0,.51.47h4a.49.49,0,0,0,.51-.47,2.44,2.44,0,0,1,4.85,0,.52.52,0,0,0,1,0A3.22,3.22,0,0,0,431.9,216.59Z" transform="translate(0 0)" fill="#fff"/><path d="M488.52,210.49a.77.77,0,0,0-.25-.56.83.83,0,0,0-.6-.24.91.91,0,0,0-.6.24,3.53,3.53,0,0,0-.25.28.19.19,0,0,0,0,.27.22.22,0,0,0,.29,0c.1-.12.19-.21.23-.25a.46.46,0,0,1,.31-.13h0a.48.48,0,0,1,.31.13.39.39,0,0,1,.13.29.39.39,0,0,1-.14.3,6.18,6.18,0,0,1-.71.52,1.28,1.28,0,0,0-1.09-.6h-2.94a1.49,1.49,0,0,0-1.05.41l-5.88,5.58a.58.58,0,0,0,0,.84l3.94,3.74a.62.62,0,0,0,.44.18.66.66,0,0,0,.45-.18L487,215.7a1.36,1.36,0,0,0,.44-1v-2.79a1,1,0,0,0,0-.25,6,6,0,0,0,.85-.61A.77.77,0,0,0,488.52,210.49Zm-1.47,4.22a1,1,0,0,1-.32.72L480.85,221a.22.22,0,0,1-.32,0l-3.94-3.74a.22.22,0,0,1,0-.3l5.88-5.58a1.12,1.12,0,0,1,.77-.3h2.94a.87.87,0,0,1,.76.43l-.78.47,0,0a.88.88,0,0,0-1.19,0,.77.77,0,0,0,0,1.13.86.86,0,0,0,1.19,0,.78.78,0,0,0,.22-.77c.24-.13.48-.27.7-.41h0v2.79Zm-1.7-2.1a.21.21,0,0,0,.18.11l.09,0,.35-.18a.39.39,0,0,1-.12.3.45.45,0,0,1-.63,0,.41.41,0,0,1,0-.59.47.47,0,0,1,.31-.12.48.48,0,0,1,.26.07l-.35.17A.19.19,0,0,0,485.35,212.61Z" transform="translate(0 0)" fill="#fff"/><path d="M482.11,213.57a.2.2,0,0,0-.2.2v4a.2.2,0,0,0,.4,0v-4A.2.2,0,0,0,482.11,213.57Z" transform="translate(0 0)" fill="#fff"/><path d="M481.19,215.21a.88.88,0,0,0-1.19,0,.77.77,0,0,0,0,1.13.86.86,0,0,0,1.19,0,.76.76,0,0,0,0-1.13Zm-.28.86a.45.45,0,0,1-.63,0,.41.41,0,0,1,0-.59.47.47,0,0,1,.31-.12.47.47,0,0,1,.32.12.42.42,0,0,1,.12.3A.4.4,0,0,1,480.91,216.07Z" transform="translate(0 0)" fill="#fff"/><path d="M484.22,215.21a.88.88,0,0,0-1.19,0,.77.77,0,0,0,0,1.13.84.84,0,0,0,.59.24.86.86,0,0,0,.6-.24A.77.77,0,0,0,484.22,215.21Zm-.29.86a.44.44,0,0,1-.62,0,.41.41,0,0,1,0-.59.47.47,0,0,1,.31-.12.45.45,0,0,1,.31.12A.39.39,0,0,1,483.93,216.07Z" transform="translate(0 0)" fill="#fff"/><path d="M434.79,257h-.28v-6.88a2.13,2.13,0,0,0,1-1.81.2.2,0,0,0,0-.11L433.6,245a.77.77,0,0,0-.66-.37H421.7a.77.77,0,0,0-.66.37l-1.91,3.22a.2.2,0,0,0,0,.11,2.13,2.13,0,0,0,1,1.81V257h-.28a.23.23,0,1,0,0,.46h14.94a.23.23,0,1,0,0-.46Zm-15.19-8.46h.77a.23.23,0,1,0,0-.46h-.62l1.71-2.87a.28.28,0,0,1,.24-.13h11.24a.28.28,0,0,1,.24.13l1.71,2.87h-.62a.23.23,0,1,0,0,.46H435a1.76,1.76,0,0,1-3.47,0h1.67a.23.23,0,1,0,0-.46H421.4a.23.23,0,1,0,0,.46h1.67a1.76,1.76,0,0,1-3.47,0Zm11.45,0a1.76,1.76,0,0,1-3.47,0Zm-4,0a1.76,1.76,0,0,1-3.47,0Zm5.68,8.46h-2.61v-.78h2.61Zm0-1.24h-2.61v-4.24h2.61ZM434,257h-.81v-5.72a.23.23,0,0,0-.24-.23h-3.09a.24.24,0,0,0-.24.23V257h-9v-6.65a2.46,2.46,0,0,0,.72.11,2.28,2.28,0,0,1,4,0,2.28,2.28,0,0,1,4,0,2.28,2.28,0,0,1,4,0,2.46,2.46,0,0,0,.72-.11Z" transform="translate(0 0)" fill="#fff"/><path d="M428.61,251.06h-6.95a.24.24,0,0,0-.25.23V256a.24.24,0,0,0,.25.23h6.95a.23.23,0,0,0,.24-.23v-4.71A.24.24,0,0,0,428.61,251.06Zm-.24,4.71H421.9v-4.24h6.47Z" transform="translate(0 0)" fill="#fff"/><path d="M484.47,280.91a2.24,2.24,0,0,0-2.29-1.7,2.47,2.47,0,0,0-1.87.81.22.22,0,0,0,.06.33.3.3,0,0,0,.38-.05,1.89,1.89,0,0,1,1.43-.62,1.71,1.71,0,0,1,1.75,1.3.26.26,0,0,0,.27.2h0A.25.25,0,0,0,484.47,280.91Z" transform="translate(0 0)" fill="#fff"/><path d="M488.4,283.53l-.81-1.17a.29.29,0,0,0-.24-.11h-.78a.23.23,0,1,0,0,.46h.63l.49.71h-11l.49-.71h.29a.23.23,0,1,0,0-.46H477a.29.29,0,0,0-.24.11l-.81,1.17a.21.21,0,0,0,0,.23.27.27,0,0,0,.24.12h12a.27.27,0,0,0,.24-.12A.21.21,0,0,0,488.4,283.53Z" transform="translate(0 0)" fill="#fff"/><path d="M487,281.37a.23.23,0,0,0-.16-.1l-3.71-.75a.36.36,0,0,0-.21,0,.25.25,0,0,0-.12.15l-.28,1a.23.23,0,0,0,.2.28.28.28,0,0,0,.33-.18l.22-.8,3.18.64-.5,1.84a.23.23,0,0,0,.2.28h.06a.27.27,0,0,0,.27-.18l.56-2.06A.2.2,0,0,0,487,281.37Z" transform="translate(0 0)" fill="#fff"/><path d="M482.32,281.93l-.24-1.8A.23.23,0,0,0,482,280a.26.26,0,0,0-.2-.05l-4.55.46a.25.25,0,0,0-.24.26l.42,3a.25.25,0,0,0,.27.2h0a.25.25,0,0,0,.24-.26l-.38-2.77,4-.41.21,1.57a.28.28,0,0,0,.31.21A.25.25,0,0,0,482.32,281.93Z" transform="translate(0 0)" fill="#fff"/><path d="M484.48,283.56l-.54-1.93a.22.22,0,0,0-.13-.14.24.24,0,0,0-.2,0l-4.39.9a.25.25,0,0,0-.2.29l.27,1a.27.27,0,0,0,.33.17.22.22,0,0,0,.2-.28l-.21-.74,3.86-.79.48,1.7a.26.26,0,0,0,.26.18h.07A.24.24,0,0,0,484.48,283.56Z" transform="translate(0 0)" fill="#fff"/><path d="M488.44,283.64a.26.26,0,0,0-.27-.22h-12a.26.26,0,0,0-.27.22l-.54,9.11a.21.21,0,0,0,.07.18.32.32,0,0,0,.2.07h13.06a.32.32,0,0,0,.2-.07.21.21,0,0,0,.07-.18Zm-12.51,8.89.52-8.65h11.46l.52,8.65Z" transform="translate(0 0)" fill="#fff"/><path d="M484.22,284.35a.71.71,0,1,0,.82.7A.77.77,0,0,0,484.22,284.35Zm0,.94a.26.26,0,0,1-.27-.24.27.27,0,0,1,.54,0A.26.26,0,0,1,484.22,285.29Z" transform="translate(0 0)" fill="#fff"/><path d="M480.14,284.35a.71.71,0,1,0,.82.7A.77.77,0,0,0,480.14,284.35Zm0,.94a.26.26,0,0,1-.27-.24.27.27,0,0,1,.54,0A.26.26,0,0,1,480.14,285.29Z" transform="translate(0 0)" fill="#fff"/><path d="M484.22,285.05h0a.26.26,0,0,0-.27.24.29.29,0,0,0,0,.09v1.19a1.79,1.79,0,0,1-3.54,0v-1.28a.27.27,0,0,0-.54,0v1.28a2.34,2.34,0,0,0,4.62,0v-1.28A.26.26,0,0,0,484.22,285.05Z" transform="translate(0 0)" fill="#fff"/><path d="M428.71,279.61h-5.3a.27.27,0,0,0-.28.25.28.28,0,0,0,.28.25h5.3a.27.27,0,0,0,.28-.25A.26.26,0,0,0,428.71,279.61Z" transform="translate(0 0)" fill="#fff"/><path d="M428.71,281.13h-5.3a.25.25,0,1,0,0,.49h5.3a.25.25,0,1,0,0-.49Z" transform="translate(0 0)" fill="#fff"/><path d="M423.92,290.83h-1.35a.25.25,0,1,0,0,.49h1.35a.25.25,0,1,0,0-.49Z" transform="translate(0 0)" fill="#fff"/><path d="M426.74,290.83h-1.35a.25.25,0,1,0,0,.49h1.35a.25.25,0,1,0,0-.49Z" transform="translate(0 0)" fill="#fff"/><path d="M429.55,290.83H428.2a.25.25,0,1,0,0,.49h1.35a.25.25,0,1,0,0-.49Z" transform="translate(0 0)" fill="#fff"/><path d="M423.92,292h-1.35a.25.25,0,1,0,0,.49h1.35a.25.25,0,1,0,0-.49Z" transform="translate(0 0)" fill="#fff"/><path d="M426.74,292h-1.35a.25.25,0,1,0,0,.49h1.35a.25.25,0,1,0,0-.49Z" transform="translate(0 0)" fill="#fff"/><path d="M429.55,292H428.2a.25.25,0,1,0,0,.49h1.35a.25.25,0,1,0,0-.49Z" transform="translate(0 0)" fill="#fff"/><path d="M423.92,293.07h-1.35a.25.25,0,1,0,0,.49h1.35a.25.25,0,1,0,0-.49Z" transform="translate(0 0)" fill="#fff"/><path d="M426.74,293.07h-1.35a.25.25,0,1,0,0,.49h1.35a.25.25,0,1,0,0-.49Z" transform="translate(0 0)" fill="#fff"/><path d="M429.55,293.07H428.2a.25.25,0,1,0,0,.49h1.35a.25.25,0,1,0,0-.49Z" transform="translate(0 0)" fill="#fff"/><path d="M430.4,284.63a.55.55,0,0,0-.59-.52h-7.5a.55.55,0,0,0-.58.52v.71a.26.26,0,0,0,.28.25.27.27,0,0,0,.28-.25v-.71l0,0h7.5s0,0,0,0v2.59s0,0,0,0h-7.5l0,0v-.71a.27.27,0,0,0-.28-.25.26.26,0,0,0-.28.25v.71a.55.55,0,0,0,.58.52h7.5a.55.55,0,0,0,.59-.52v-2.59Z" transform="translate(0 0)" fill="#fff"/><path d="M424.31,288.83a.53.53,0,0,0-.56-.49h-1.37a.51.51,0,0,0-.54.61l.18.68a.55.55,0,0,0,.54.38h1.19a.53.53,0,0,0,.56-.5Zm-1.75.68-.18-.68h1.37v.68Z" transform="translate(0 0)" fill="#fff"/><path d="M427.34,289.51v-.68a.53.53,0,0,0-.56-.49h-1.44a.53.53,0,0,0-.56.49v.68a.53.53,0,0,0,.56.5h1.44A.53.53,0,0,0,427.34,289.51Zm-2,0v-.68h1.44v.68Z" transform="translate(0 0)" fill="#fff"/><path d="M430.1,289.63l.19-.68a.52.52,0,0,0-.55-.61h-1.37a.53.53,0,0,0-.56.49v.68a.53.53,0,0,0,.56.5h1.19A.55.55,0,0,0,430.1,289.63Zm-.54-.12h-1.19v-.68h1.37Z" transform="translate(0 0)" fill="#fff"/><path d="M434.29,280.46h-1.52v-1.14h0a1.35,1.35,0,0,0-1.42-1.22h-8.22a1.42,1.42,0,0,0-1.49,1.33v2.12a1.57,1.57,0,0,0-1.43,1.48v3.32c0,1.86.37,2.37.37,4.19v3.27a1.35,1.35,0,0,0,1.42,1.26h8.12a1.34,1.34,0,0,0,1.42-1.26v-1a.26.26,0,0,0-.28-.25.27.27,0,0,0-.28.25v1a.82.82,0,0,1-.86.77H422a.83.83,0,0,1-.86-.77v-3.27c0-1.86-.37-2.38-.37-4.19V283a1,1,0,0,1,.87-1v.64a.68.68,0,0,0,.72.64h7.4a.69.69,0,0,0,.73-.64v-.64a1,1,0,0,1,.86,1v3.32c0,1.81-.37,2.33-.37,4.19v1.07a.27.27,0,0,0,.28.25.26.26,0,0,0,.28-.25v-1.07c0-1.81.37-2.34.37-4.19v-2.25h1.72a1.35,1.35,0,0,0,1.42-1.27v-1.68a.73.73,0,0,0-.76-.68Zm-4.36,2.23a.17.17,0,0,1-.17.15h-7.4a.17.17,0,0,1-.17-.15v-3.27a.89.89,0,0,1,.94-.83h7.09a1.16,1.16,0,0,0-.29.76Zm2,.9V283a1.56,1.56,0,0,0-1.42-1.48v-2.19a.87.87,0,0,1,1.72,0v3.5a1.18,1.18,0,0,0,.29.77Zm2.58-.77a.82.82,0,0,1-.88.77.81.81,0,0,1-.84-.77V281h1.52a.19.19,0,0,1,.2.18Z" transform="translate(0 0)" fill="#fff"/></svg>