<svg id="_76d98801-3a87-461e-b488-021b663cdcb4" data-name="76d98801-3a87-461e-b488-021b663cdcb4" xmlns="http://www.w3.org/2000/svg" viewBox="0 0 1056.28 808.89"><path d="M1035.84,218.55A257.26,257.26,0,0,0,994,151.79l-581.3-5.73,478.6-67.22a271.79,271.79,0,0,0-97.11-19.26A272.17,272.17,0,0,0,469,48.58a271,271,0,0,0-124.43-30C215.43,18.58,107.81,108,83.67,226.66Z" transform="translate(0 -0.01)" fill="#43b02a" opacity="0.1" style="isolation:isolate"/><path d="M1056.28,318a251.31,251.31,0,0,0-18.11-93.9L30.71,329.89A253.18,253.18,0,0,0,7.14,389.5l312,46.5L0,469.91C9.6,604.2,124.72,710.24,265.35,710.24c70.79,0,135.12-26.87,182.78-70.69,47.81,44.65,112.76,72.11,184.31,72.11,106.17,0,197.8-60.45,240.47-147.85,85.61-27.17,152.11-95.39,174.87-180.74L653.24,321.88h403C1056.26,320.6,1056.28,319.32,1056.28,318Z" transform="translate(0 -0.01)" fill="#43b02a" opacity="0.1" style="isolation:isolate"/><ellipse cx="28.11" cy="738.79" rx="25.82" ry="3.55" fill="#43b02a" opacity="0.1" style="isolation:isolate"/><ellipse cx="127.02" cy="748.82" rx="25.82" ry="3.55" fill="#43b02a" opacity="0.1" style="isolation:isolate"/><ellipse cx="243.53" cy="735.24" rx="25.82" ry="3.55" fill="#43b02a" opacity="0.1" style="isolation:isolate"/><ellipse cx="87.43" cy="777.38" rx="18.36" ry="2.52" fill="#43b02a" opacity="0.1" style="isolation:isolate"/><ellipse cx="190.1" cy="774.86" rx="18.36" ry="2.52" fill="#43b02a" opacity="0.1" style="isolation:isolate"/><path d="M127.58,748s-36.22-118.72,5.66-166.27c31.34-35.58,66.9-31.32,82.83-26.92a29.45,29.45,0,0,1,19,15.79c5.57,12,4.56,31.51-34.75,54.27-65.82,38.11-69.91,90.38-69.91,90.38Z" transform="translate(0 -0.01)" fill="#43b02a"/><path d="M210.4,571.68S103.64,605.06,127.58,748" transform="translate(0 -0.01)" fill="none" stroke="#565987" stroke-miterlimit="10"/><path d="M148.05,583.65s14.7,9.9,10,24.79" transform="translate(0 -0.01)" fill="none" stroke="#565987" stroke-miterlimit="10"/><path d="M199.69,592.45s-9-9.14-19.92-4.1" transform="translate(0 -0.01)" fill="none" stroke="#565987" stroke-miterlimit="10"/><path d="M157.49,638.45s-15.78-8-19.86,2" transform="translate(0 -0.01)" fill="none" stroke="#565987" stroke-miterlimit="10"/><path d="M118.44,655.13s11.85-.94,12.07,4.73" transform="translate(0 -0.01)" fill="none" stroke="#565987" stroke-miterlimit="10"/><path d="M126.14,749s42.42-86.29,54.07-84.4c5.53.9,8.08,6.34,9.24,11.81a34.78,34.78,0,0,1-2.31,21.06C181.14,711.2,164.92,737.45,126.14,749Z" transform="translate(0 -0.01)" fill="#43b02a"/><path d="M179.86,681s-44.52,64.56-53.12,67.39" transform="translate(0 -0.01)" fill="none" stroke="#565987" stroke-miterlimit="10"/><line x1="183.96" y1="691.02" x2="173.57" y2="691.02" fill="none" stroke="#565987" stroke-miterlimit="10"/><line x1="171.51" y1="714.64" x2="155.23" y2="715.34" fill="none" stroke="#565987" stroke-miterlimit="10"/><line x1="161.6" y1="695.75" x2="163.37" y2="704.23" fill="none" stroke="#565987" stroke-miterlimit="10"/><line x1="144.28" y1="721.57" x2="144.6" y2="729.28" fill="none" stroke="#565987" stroke-miterlimit="10"/><path d="M127.37,749S85,662.69,73.3,664.58c-5.53.9-8.08,6.34-9.24,11.81a34.67,34.67,0,0,0,2.32,21C72.39,711.2,88.56,737.45,127.37,749Z" transform="translate(0 -0.01)" fill="#43b02a"/><path d="M73.62,681s44.52,64.56,53.12,67.39" transform="translate(0 -0.01)" fill="none" stroke="#565987" stroke-miterlimit="10"/><line x1="69.53" y1="691.02" x2="79.92" y2="691.02" fill="none" stroke="#565987" stroke-miterlimit="10"/><line x1="81.97" y1="714.64" x2="98.26" y2="715.34" fill="none" stroke="#565987" stroke-miterlimit="10"/><line x1="91.89" y1="695.75" x2="90.12" y2="704.23" fill="none" stroke="#565987" stroke-miterlimit="10"/><line x1="109.21" y1="721.57" x2="108.89" y2="729.28" fill="none" stroke="#565987" stroke-miterlimit="10"/><path d="M200.2,769.13a7.34,7.34,0,0,0,2.42-3.64,3.24,3.24,0,0,0-1.69-3.71c-1.55-.6-3.21.48-4.46,1.56s-2.7,2.33-4.34,2.1a6.62,6.62,0,0,0,2-6.18,2.57,2.57,0,0,0-.56-1.26c-.86-.92-2.42-.52-3.45.2-3.28,2.3-4.19,6.75-4.21,10.76a20.51,20.51,0,0,1-.06-4.43,4.52,4.52,0,0,0-1.67-3.92,4.85,4.85,0,0,0-2.53-.6c-1.48,0-3.11.09-4.12,1.17-1.25,1.34-.93,3.58.16,5.06a16.33,16.33,0,0,0,4.26,3.41,9.44,9.44,0,0,1,3,2.9,3.38,3.38,0,0,1,.22.52h9.23A25.7,25.7,0,0,0,200.2,769.13Z" transform="translate(0 -0.01)" fill="#43b02a"/><path d="M38.57,734.38A7.34,7.34,0,0,0,41,730.74,3.26,3.26,0,0,0,39.3,727c-1.55-.59-3.2.49-4.46,1.57s-2.69,2.32-4.34,2.09a6.56,6.56,0,0,0,2-6.18,2.56,2.56,0,0,0-.57-1.25c-.86-.92-2.42-.53-3.45.2-3.28,2.3-4.19,6.75-4.21,10.76a20.59,20.59,0,0,1-.06-4.44,4.5,4.5,0,0,0-1.66-3.91,5,5,0,0,0-2.54-.6c-1.47-.06-3.11.09-4.12,1.17-1.25,1.34-.92,3.58.16,5a15.7,15.7,0,0,0,4.27,3.42,9.34,9.34,0,0,1,3,2.9,3.43,3.43,0,0,1,.23.52h9.23A25.77,25.77,0,0,0,38.57,734.38Z" transform="translate(0 -0.01)" fill="#43b02a"/><path d="M92.44,769.13a7.34,7.34,0,0,0,2.42-3.64,3.24,3.24,0,0,0-1.69-3.71c-1.55-.6-3.21.48-4.46,1.56s-2.7,2.33-4.34,2.1a6.62,6.62,0,0,0,2-6.18,2.57,2.57,0,0,0-.56-1.26c-.86-.92-2.42-.52-3.45.2-3.28,2.3-4.19,6.75-4.21,10.76a20.51,20.51,0,0,1-.06-4.43c0-1.48-.41-3.13-1.66-3.92a5,5,0,0,0-2.54-.6c-1.47,0-3.11.09-4.12,1.17-1.25,1.34-.93,3.58.16,5.06a16.33,16.33,0,0,0,4.26,3.41,9.44,9.44,0,0,1,3,2.9,3.38,3.38,0,0,1,.22.52h9.23A25.7,25.7,0,0,0,92.44,769.13Z" transform="translate(0 -0.01)" fill="#43b02a"/><path d="M245.21,698.88s3.46,4.53-1.6,11.36-9.22,12.6-7.54,16.86c0,0,7.63-12.69,13.84-12.87S252,706.51,245.21,698.88Z" transform="translate(0 -0.01)" fill="#43b02a"/><path d="M245.21,698.88a5.9,5.9,0,0,1,.71,1.42c6.06,7.12,9.28,13.76,3.46,13.93-5.43.16-11.93,9.86-13.49,12.31.05.19.11.37.18.56,0,0,7.63-12.69,13.84-12.87S252,706.51,245.21,698.88Z" transform="translate(0 -0.01)" opacity="0.1" style="isolation:isolate"/><path d="M251.64,704.65c0,1.59-.18,2.88-.4,2.88s-.4-1.29-.4-2.88.23-.84.45-.84S251.64,703.06,251.64,704.65Z" transform="translate(0 -0.01)" fill="#ffd037"/><path d="M253.85,706.55c-1.4.76-2.62,1.22-2.72,1s.94-1,2.34-1.73.84-.21.95,0S255.25,705.79,253.85,706.55Z" transform="translate(0 -0.01)" fill="#ffd037"/><path d="M226.93,698.88s-3.46,4.53,1.6,11.36,9.23,12.6,7.54,16.86c0,0-7.63-12.69-13.84-12.87S220.14,706.51,226.93,698.88Z" transform="translate(0 -0.01)" fill="#43b02a"/><path d="M226.93,698.88a5.52,5.52,0,0,0-.7,1.42c-6.06,7.12-9.29,13.76-3.47,13.93,5.43.16,11.94,9.86,13.5,12.31-.06.19-.12.37-.19.56,0,0-7.63-12.69-13.84-12.87S220.14,706.51,226.93,698.88Z" transform="translate(0 -0.01)" opacity="0.1" style="isolation:isolate"/><path d="M220.5,704.65c0,1.59.18,2.88.4,2.88s.4-1.29.4-2.88-.22-.84-.44-.84S220.5,703.06,220.5,704.65Z" transform="translate(0 -0.01)" fill="#ffd037"/><path d="M218.29,706.55c1.4.76,2.62,1.22,2.73,1s-1-1-2.34-1.73-.85-.21-1,0S216.9,705.79,218.29,706.55Z" transform="translate(0 -0.01)" fill="#ffd037"/><path d="M221.6,726.5s9.68-.29,12.59-2.37,14.88-4.56,15.61-1.23,14.53,16.56,3.61,16.65-25.37-1.7-28.28-3.47S221.6,726.5,221.6,726.5Z" transform="translate(0 -0.01)" fill="#a8a8a8"/><path d="M253.61,738.39c-10.92.09-25.38-1.7-28.29-3.47-2.22-1.35-3.1-6.19-3.39-8.43h-.33s.62,7.81,3.53,9.58,17.36,3.56,28.28,3.47c3.16,0,4.24-1.15,4.18-2.81C257.14,737.75,256,738.37,253.61,738.39Z" transform="translate(0 -0.01)" opacity="0.2" style="isolation:isolate"/><ellipse cx="612.39" cy="793.95" rx="329.42" ry="14.94" fill="#43b02a" opacity="0.1" style="isolation:isolate"/><path d="M819.74,647.45c-9.51,10.34-16.51,14.41-16.18,3.5,1-33-57-182.2-57-182.2l17.15-1.3C801.14,531.94,815.06,598.26,819.74,647.45Z" transform="translate(0 -0.01)" fill="none"/><path d="M901.55,719.45a82.5,82.5,0,0,1-164.69,7c-.12-1.34-.21-2.68-.25-4v-.07q-.06-1.49-.06-3a82.5,82.5,0,1,1,165,0Z" transform="translate(0 -0.01)" fill="#65617d"/><circle cx="819.05" cy="719.39" r="45" fill="#dce0ed"/><circle cx="819.05" cy="719.39" r="27" fill="#65617d"/><path d="M602.39,562.73l-198.66,4V537.45c1.78-23.57,26-31.84,48-34.43a137.76,137.76,0,0,1,51.33,3.85c42.15,11.16,69,13.32,82.23,13.53a12.61,12.61,0,0,1,12.2,10.26c.63,3.35,1.25,7,1.83,10.6.44,2.82.86,5.6,1.24,8.19C601.66,556.91,602.39,562.73,602.39,562.73Z" transform="translate(0 -0.01)" fill="#65617d"/><path d="M760.88,724.73H348.19A16.24,16.24,0,0,1,333.14,715c-3.11-7.43,1.24-12.17,5.88-15a46.74,46.74,0,0,0,20.32-24.86c4.4-13,8.7-33.34,10.39-65.12,1.74-32.87,13.64-49.12,26.5-57h0c16.61-10.16,34.82-6.35,34.82-6.35l167.33,1.34a32.22,32.22,0,0,1,8.17,5.33c14.91,13.88-6.83,32-6.83,32-46.67,49.33-11.34,99.33-11.34,99.33H674A78.83,78.83,0,0,0,718.85,671c11.57-8,16-15.73,17.78-20.41,1.32-3.58,2.66-7.15,4.26-10.61,22.46-48.71-4.63-128-16.32-157.58-2.9-7.37-4.85-11.67-4.85-11.67l26.85-2,17-1.29h.17c37.42,64.54,51.33,130.86,56,180,.44,4.63.8,9.12,1.09,13.43a60,60,0,0,1-56,63.75C763.51,724.69,762.2,724.73,760.88,724.73Z" transform="translate(0 -0.01)" fill="#43b02a"/><path d="M600.57,549.45H403.73v-8.19h195.6C599.77,544,600.19,546.81,600.57,549.45Z" transform="translate(0 -0.01)" opacity="0.1" style="isolation:isolate"/><path d="M606.56,553.45H397.82a4.09,4.09,0,0,1-1.58-.32c16.61-10.16,34.82-6.35,34.82-6.35l167.33,1.34A32.22,32.22,0,0,1,606.56,553.45Z" transform="translate(0 -0.01)" opacity="0.1" style="isolation:isolate"/><rect x="320.69" y="543.2" width="291.7" height="8.19" rx="4.09" fill="#dce0ed"/><path d="M819.74,647.45c-9.51,10.34-16.51,14.41-16.18,3.5,1-33-57-182.2-57-182.2l17.15-1.3C801.14,531.94,815.06,598.26,819.74,647.45Z" transform="translate(0 -0.01)" opacity="0.1" style="isolation:isolate"/><path d="M901.05,710.36c-9.85,2.36-22,4.76-37,7q-8.37,1.23-18,2.36c-15.33,1.82-33.06,3.41-53.54,4.63q-8.7.52-18.07.95-17.55.8-37.57,1.22l-.25-4v-.07c18.65-7.53,48-27.62,52.72-80a82.54,82.54,0,0,1,111.72,67.94Z" transform="translate(0 -0.01)" opacity="0.1" style="isolation:isolate"/><path d="M721.06,724.73s94.7-10.28,62.08-154.57c0,0,46.79,42.9,75.9,66.74s81,56.71,81,56.71S909.06,722.56,721.06,724.73Z" transform="translate(0 -0.01)" fill="#43b02a"/><path d="M721.06,724.73s94.7-10.28,62.08-154.57c0,0,46.79,42.9,75.9,66.74s81,56.71,81,56.71S909.06,722.56,721.06,724.73Z" transform="translate(0 -0.01)" fill="#fff" opacity="0.1" style="isolation:isolate"/><circle cx="468.06" cy="719.39" r="82.5" fill="#65617d"/><circle cx="468.06" cy="719.39" r="45" fill="#dce0ed"/><circle cx="468.06" cy="719.39" r="27" fill="#65617d"/><path d="M560.56,694.62c0-53.27-42.31-96.46-94.5-96.46s-94.5,43.19-94.5,96.46q0,3.38.23,6.69H560.33Q560.56,698,560.56,694.62Z" transform="translate(0 -0.01)" opacity="0.1" style="isolation:isolate"/><path d="M557.06,693c0-51.3-40.74-92.89-91-92.89s-91,41.59-91,92.89c0,2.17.08,4.31.22,6.44H556.84C557,697.27,557.06,695.13,557.06,693Z" transform="translate(0 -0.01)" fill="#43b02a"/><path d="M557.06,693c0,1.49,0,3-.11,4.44,0,.67-.07,1.33-.11,2H375.28c0-.67-.08-1.33-.11-2-.07-1.47-.11-3-.11-4.44,0-51.3,40.74-92.89,91-92.89S557.06,641.66,557.06,693Z" transform="translate(0 -0.01)" fill="#fff" opacity="0.1" style="isolation:isolate"/><path d="M557,697.45c0,.67-.07,1.33-.11,2H375.28c0-.67-.08-1.33-.11-2Z" transform="translate(0 -0.01)" opacity="0.1" style="isolation:isolate"/><rect x="335.25" y="701.39" width="244.48" height="21.33" rx="10.66" opacity="0.1" style="isolation:isolate"/><rect x="335.25" y="699.39" width="244.48" height="21.33" rx="10.66" fill="#dce0ed"/><ellipse cx="791.04" cy="532.8" rx="11.98" ry="30.16" transform="translate(-149.26 373.21) rotate(-24.33)" opacity="0.1" style="isolation:isolate"/><ellipse cx="792.04" cy="531.8" rx="11.98" ry="30.16" transform="translate(-148.75 373.54) rotate(-24.33)" fill="#dce0ed"/><path d="M763.56,467.45v15.67h-30.5a52.33,52.33,0,0,1-8.48-.68c-2.9-7.37-4.85-11.67-4.85-11.67l26.85-2Z" transform="translate(0 -0.01)" opacity="0.1" style="isolation:isolate"/><path d="M763.56,481.08h-30.5c-26.79,0-48.5-20-48.5-44.77v-4.15c0-24.72,21.71-44.76,48.5-44.76l30.5,2.77Z" transform="translate(0 -0.01)" fill="#43b02a"/><path d="M713.31,413.9s18.25,9.75,7.75,26.25c0,0-12.88,21.12-33.13,19.12l-7.37-45.37S704.81,411.65,713.31,413.9Z" transform="translate(0 -0.01)" fill="#43b02a"/><path d="M706.3,413a19.4,19.4,0,0,1,14.84,7.82c3.25,4.5,5.19,11.06-.06,19.31,0,0-12.88,21.12-33.13,19.12l-7.37-45.37S695.75,412.45,706.3,413Z" transform="translate(0 -0.01)" opacity="0.1" style="isolation:isolate"/><path d="M762.56,390.17h5.88a18.62,18.62,0,0,1,18.62,18.62v53.68a18.62,18.62,0,0,1-18.62,18.62h-5.88V390.17Z" transform="translate(0 -0.01)" opacity="0.1" style="isolation:isolate"/><path d="M763.56,390.17h5.88a18.62,18.62,0,0,1,18.62,18.62v53.68a18.62,18.62,0,0,1-18.62,18.62h-5.88V390.17Z" transform="translate(0 -0.01)" fill="#dce0ed"/><path d="M585.77,437.26l-.33.45A1.06,1.06,0,0,0,585.77,437.26Z" transform="translate(0 -0.01)" opacity="0.1" style="isolation:isolate"/><ellipse cx="678.45" cy="437.49" rx="20.26" ry="24.65" fill="#43b02a"/><polygon points="483.45 405.41 450.88 437.53 343.81 435.66 373.25 405.41 483.45 405.41" fill="#dda2a6"/><polygon points="483.45 515.29 483.45 405.41 450.88 437.53 450.88 545.05 483.45 515.29" fill="#b77b7f"/><polygon points="343.81 435.66 343.81 545.05 450.88 545.05 450.88 437.53 343.81 435.66" fill="#dda2a6"/><polygon points="343.81 435.66 343.81 545.05 450.88 545.05 450.88 437.53 343.81 435.66" fill="#fff" opacity="0.3" style="isolation:isolate"/><polygon points="442.18 467.64 362.55 453.97 352.17 506.25 434.15 521.31 442.18 467.64" fill="#dce0ed"/><polygon points="426.45 479.85 372.92 471.44 371.58 478.42 425.11 487.5 426.45 479.85" fill="#43b02a"/><polygon points="411.73 494.78 381.28 490.36 379.94 498.11 411.73 502.57 411.73 494.78" fill="#43b02a"/><polygon points="470.28 463.08 468.83 419.82 460.46 428.08 461.92 471.44 470.28 463.08" fill="#65617d"/><polygon points="362.48 416.48 465.37 417.87 468.83 419.82 460.46 428.08 457.57 426.38 355.66 423.49 362.48 416.48" fill="#65617d"/></svg>