<svg id="Layer_1" data-name="Layer 1" xmlns="http://www.w3.org/2000/svg" xmlns:xlink="http://www.w3.org/1999/xlink" viewBox="0 0 148.5 115.46"><defs><clipPath id="clip-path" transform="translate(0 0)"><path d="M125.42,113.89a43.68,43.68,0,0,0-4.54-79.13c0-.5,0-1,0-1.48A33.28,33.28,0,0,0,59,16.41h-.37a58.58,58.58,0,0,0-43.8,97.49Z" fill="none"/></clipPath><clipPath id="clip-path-2" transform="translate(0 0)"><path d="M116.71,114.34H99.56a5.23,5.23,0,0,1-5.21-5.21L97,92a5.23,5.23,0,0,1,5.21-5.21h11.07A5.22,5.22,0,0,1,118.44,92l3.47,17.14A5.21,5.21,0,0,1,116.71,114.34Z" fill="none"/></clipPath></defs><g id="elements"><g id="Group_51" data-name="Group 51"><path id="Path_69" data-name="Path 69" d="M125.42,113.89a43.68,43.68,0,0,0-4.54-79.13c0-.5,0-1,0-1.48A33.28,33.28,0,0,0,59,16.41h-.37a58.58,58.58,0,0,0-43.8,97.49Z" transform="translate(0 0)" fill="#5b418e" opacity="0.37" style="isolation:isolate"/><g clip-path="url(#clip-path)"><g id="Group_50" data-name="Group 50"><path id="Path_70" data-name="Path 70" d="M20.54,43.53a58.6,58.6,0,0,0,2.26,67.18" transform="translate(0 0)" fill="none" stroke="#000" stroke-linecap="round" stroke-linejoin="round" stroke-width="1.59"/></g></g></g><circle id="Ellipse_13" data-name="Ellipse 13" cx="78.77" cy="59.52" r="38.67" fill="none" stroke-dasharray="1.86" stroke-linecap="round" stroke-linejoin="round" stroke-width="1.24" stroke="#000"/><g id="elements-2"><rect id="Rectangle_39" data-name="Rectangle 39" x="28.84" y="5.98" width="61.53" height="108.69" rx="12" fill="#fcfcfc" stroke="#000" stroke-linecap="round" stroke-linejoin="round" stroke-width="1.59"/><path id="Path_72" data-name="Path 72" d="M64.82,105.14a4.77,4.77,0,1,1-4.77-4.77h0A4.77,4.77,0,0,1,64.82,105.14Z" transform="translate(0 0)" fill="#5b418e" stroke="#000" stroke-linecap="round" stroke-linejoin="round" stroke-width="0.93"/><rect id="Rectangle_40" data-name="Rectangle 40" x="36.35" y="20.36" width="46.51" height="77.4" fill="#fcfcfc" stroke="#000" stroke-linecap="round" stroke-linejoin="round" stroke-width="1.24"/><path id="Path_73" data-name="Path 73" d="M47.93,15a1.86,1.86,0,1,1-1.86-1.86h0A1.86,1.86,0,0,1,47.93,15Z" transform="translate(0 0)" fill="#fcfcfc" stroke="#000" stroke-linecap="round" stroke-linejoin="round" stroke-width="0.93"/><path id="Rectangle_41" data-name="Rectangle 41" d="M52.11,13.11h15a1.5,1.5,0,0,1,1.5,1.5v.72a1.5,1.5,0,0,1-1.5,1.5h-15a1.5,1.5,0,0,1-1.5-1.5h0v-.72A1.5,1.5,0,0,1,52.11,13.11Z" transform="translate(0 0)" fill="#fcfcfc" stroke="#000" stroke-linecap="round" stroke-linejoin="round" stroke-width="0.93"/><circle id="Ellipse_14" data-name="Ellipse 14" cx="59.61" cy="10.15" r="1.2" stroke-width="0.62" stroke="#000" stroke-linecap="round" stroke-linejoin="round" fill="#fcfcfc"/><path id="Path_74" data-name="Path 74" d="M57.28,105.62a3.26,3.26,0,0,1,3.26-3.26h0" transform="translate(0 0)" fill="none" stroke="#000" stroke-linecap="round" stroke-linejoin="round" stroke-width="1.12"/></g><g id="Group_53" data-name="Group 53"><rect id="Rectangle_42" data-name="Rectangle 42" x="42.58" y="27.16" width="10.53" height="10.12" rx="3.81" fill="#fcfcfc" stroke="#000" stroke-linecap="round" stroke-linejoin="round" stroke-width="0.93"/><g id="Group_52" data-name="Group 52"><line id="Line_21" data-name="Line 21" x1="56.36" y1="30.2" x2="76.64" y2="30.2" stroke-width="0.93" stroke="#000" stroke-linecap="round" stroke-linejoin="round" fill="none"/><line id="Line_22" data-name="Line 22" x1="56.36" y1="34.23" x2="69.52" y2="34.23" stroke-width="0.93" stroke="#000" stroke-linecap="round" stroke-linejoin="round" fill="none"/></g></g><g id="Group_55" data-name="Group 55"><rect id="Rectangle_43" data-name="Rectangle 43" x="42.58" y="40.77" width="10.53" height="10.12" rx="3.81" fill="#5b418e" stroke="#000" stroke-linecap="round" stroke-linejoin="round" stroke-width="0.93"/><g id="Group_54" data-name="Group 54"><line id="Line_23" data-name="Line 23" x1="56.36" y1="43.81" x2="76.64" y2="43.81" stroke-width="0.93" stroke="#000" stroke-linecap="round" stroke-linejoin="round" fill="none"/><line id="Line_24" data-name="Line 24" x1="56.36" y1="47.84" x2="69.52" y2="47.84" stroke-width="0.93" stroke="#000" stroke-linecap="round" stroke-linejoin="round" fill="none"/></g></g><g id="Group_57" data-name="Group 57"><rect id="Rectangle_44" data-name="Rectangle 44" x="42.58" y="54.37" width="10.53" height="10.12" rx="3.81" fill="#fcfcfc" stroke="#000" stroke-linecap="round" stroke-linejoin="round" stroke-width="0.93"/><g id="Group_56" data-name="Group 56"><line id="Line_25" data-name="Line 25" x1="56.36" y1="57.42" x2="76.64" y2="57.42" stroke-width="0.93" stroke="#000" stroke-linecap="round" stroke-linejoin="round" fill="none"/><line id="Line_26" data-name="Line 26" x1="56.36" y1="61.44" x2="69.52" y2="61.44" stroke-width="0.93" stroke="#000" stroke-linecap="round" stroke-linejoin="round" fill="none"/></g></g><g id="Group_59" data-name="Group 59"><rect id="Rectangle_45" data-name="Rectangle 45" x="42.58" y="67.98" width="10.53" height="10.12" rx="3.81" fill="#fcfcfc" stroke="#000" stroke-linecap="round" stroke-linejoin="round" stroke-width="0.93"/><g id="Group_58" data-name="Group 58"><line id="Line_27" data-name="Line 27" x1="56.36" y1="71.02" x2="76.64" y2="71.02" stroke-width="0.93" stroke="#000" stroke-linecap="round" stroke-linejoin="round" fill="none"/><line id="Line_28" data-name="Line 28" x1="56.36" y1="75.05" x2="69.52" y2="75.05" stroke-width="0.93" stroke="#000" stroke-linecap="round" stroke-linejoin="round" fill="none"/></g></g><g id="Group_61" data-name="Group 61"><rect id="Rectangle_46" data-name="Rectangle 46" x="42.58" y="81.58" width="10.53" height="10.12" rx="3.81" fill="#fcfcfc" stroke="#000" stroke-linecap="round" stroke-linejoin="round" stroke-width="0.93"/><g id="Group_60" data-name="Group 60"><line id="Line_29" data-name="Line 29" x1="56.36" y1="84.63" x2="76.64" y2="84.63" stroke-width="0.93" stroke="#000" stroke-linecap="round" stroke-linejoin="round" fill="none"/><line id="Line_30" data-name="Line 30" x1="56.36" y1="88.65" x2="69.52" y2="88.65" stroke-width="0.93" stroke="#000" stroke-linecap="round" stroke-linejoin="round" fill="none"/></g></g><g id="Group_62" data-name="Group 62"><path id="Path_75" data-name="Path 75" d="M49.38,58.61l-3.12,4.47a7.66,7.66,0,0,1-10.43,2.16h0a7.44,7.44,0,0,1-2.67-8.79,28.73,28.73,0,0,0,1.46-4.64l.17-.82s.42-3.47,2.1-3.13S38,53,38,53l5.72-8.36a1.53,1.53,0,0,1,2.12-.38h0a1.83,1.83,0,0,1,.64,2.3L42,53.27" transform="translate(0 0)" fill="#fff" stroke="#000" stroke-linecap="round" stroke-linejoin="round" stroke-width="1.08"/><path id="Path_76" data-name="Path 76" d="M40.87,54.75l3-4.36A1.52,1.52,0,0,1,46,50h0a1.52,1.52,0,0,1,.38,2.11l-3,4.36" transform="translate(0 0)" fill="#fff" stroke="#000" stroke-linecap="round" stroke-linejoin="round" stroke-width="1.08"/><path id="Path_77" data-name="Path 77" d="M43,57l3-4.35a1.51,1.51,0,0,1,2.11-.39h0a1.53,1.53,0,0,1,.39,2.12l-3,4.35" transform="translate(0 0)" fill="#fff" stroke="#000" stroke-linecap="round" stroke-linejoin="round" stroke-width="1.08"/><path id="Path_78" data-name="Path 78" d="M45.52,58.8l2.75-4a1.52,1.52,0,0,1,2.12-.38h0a1.51,1.51,0,0,1,.38,2.11l-3,4.36" transform="translate(0 0)" fill="#fff" stroke="#000" stroke-linecap="round" stroke-linejoin="round" stroke-width="1.08"/></g><path id="Path_79" data-name="Path 79" d="M27.83,17.16H14.06a5.73,5.73,0,0,0-5.71,5.71v8.07a5.72,5.72,0,0,0,5.71,5.7H25.39l2.77,2.89a1.06,1.06,0,0,0,1.5,0,1.09,1.09,0,0,0,.33-.78l0-2.55a5.73,5.73,0,0,0,3.59-5.29V22.87A5.73,5.73,0,0,0,27.83,17.16Z" transform="translate(0 0)" fill="#5b418e" stroke="#000" stroke-linecap="round" stroke-linejoin="round" stroke-width="1.39"/><path id="Path_81" data-name="Path 81" d="M90.11,46h13.78a5.72,5.72,0,0,1,5.7,5.71V59.8a5.72,5.72,0,0,1-5.7,5.71H92.55l-2.76,2.88a1.07,1.07,0,0,1-1.51,0,1,1,0,0,1-.32-.78l0-2.55a5.7,5.7,0,0,1-3.59-5.29V51.73A5.71,5.71,0,0,1,90.11,46Z" transform="translate(0 0)" fill="#fff" stroke="#000" stroke-linecap="round" stroke-linejoin="round" stroke-width="1.39"/><path id="Path_82" data-name="Path 82" d="M106,16.91h13.78a5.73,5.73,0,0,1,5.7,5.71v8.07a5.72,5.72,0,0,1-5.7,5.7H108.45l-2.76,2.89a1.07,1.07,0,0,1-1.51,0,1.09,1.09,0,0,1-.33-.78l0-2.55a5.73,5.73,0,0,1-3.59-5.29V22.62A5.73,5.73,0,0,1,106,16.91Z" transform="translate(0 0)" fill="#fff" stroke="#000" stroke-linecap="round" stroke-linejoin="round" stroke-width="1.39"/><g id="Group_64" data-name="Group 64"><path id="Path_83" data-name="Path 83" d="M116.71,114.34H99.56a5.23,5.23,0,0,1-5.21-5.21L97,92a5.23,5.23,0,0,1,5.21-5.21h11.07A5.22,5.22,0,0,1,118.44,92l3.47,17.14A5.21,5.21,0,0,1,116.71,114.34Z" transform="translate(0 0)" fill="#fff"/><g clip-path="url(#clip-path-2)"><g id="Group_63" data-name="Group 63"><rect id="Rectangle_47" data-name="Rectangle 47" x="92.03" y="96.33" width="32.62" height="8.67" fill="#5b418e" stroke="#000" stroke-linecap="round" stroke-linejoin="round" stroke-width="1.24"/></g></g><path id="Path_85" data-name="Path 85" d="M116.71,114.34H99.56a5.23,5.23,0,0,1-5.21-5.21L97,92a5.23,5.23,0,0,1,5.21-5.21h11.07A5.22,5.22,0,0,1,118.44,92l3.47,17.14A5.21,5.21,0,0,1,116.71,114.34Z" transform="translate(0 0)" fill="none" stroke="#000" stroke-linecap="round" stroke-linejoin="round" stroke-width="1.24"/></g><line id="Line_31" data-name="Line 31" x1="12.29" y1="114.71" x2="137.56" y2="114.71" stroke-width="1.5" stroke="#000" stroke-linecap="round" stroke-linejoin="round" fill="none"/><path id="Path_86" data-name="Path 86" d="M127.54,103.14a6.2,6.2,0,1,1-6.2-6.19,6.2,6.2,0,0,1,6.2,6.19Z" transform="translate(0 0)" fill="#fff" stroke="#000" stroke-linecap="round" stroke-linejoin="round" stroke-width="1.24"/><path id="Path_87" data-name="Path 87" d="M98.84,87.86a9.09,9.09,0,0,1,18.17,0" transform="translate(0 0)" fill="none" stroke="#000" stroke-linecap="round" stroke-linejoin="round" stroke-width="1.31"/><g id="decoration"><g id="Group_65" data-name="Group 65"><line id="Line_32" data-name="Line 32" x1="119.04" y1="78.55" x2="122.02" y2="80.64" stroke-width="0.79" stroke="#000" stroke-linecap="round" stroke-linejoin="round" fill="none"/><line id="Line_33" data-name="Line 33" x1="121.58" y1="78.11" x2="119.48" y2="81.09" stroke-width="0.79" stroke="#000" stroke-linecap="round" stroke-linejoin="round" fill="none"/></g></g><path id="Path_88" data-name="Path 88" d="M123.89,85.43a1.78,1.78,0,1,1-2-1.55,1.79,1.79,0,0,1,2,1.55Z" transform="translate(0 0)" fill="none" stroke="#000" stroke-linecap="round" stroke-linejoin="round" stroke-width="0.69"/><g id="Group_71" data-name="Group 71"><line id="Line_34" data-name="Line 34" x1="119.08" y1="103.07" x2="124.04" y2="103.07" stroke-width="1.08" stroke="#000" stroke-linecap="round" stroke-linejoin="round" fill="none"/><line id="Line_35" data-name="Line 35" x1="121.56" y1="100.59" x2="121.56" y2="105.55" stroke-width="1.08" stroke="#000" stroke-linecap="round" stroke-linejoin="round" fill="none"/></g><path id="Path_92" data-name="Path 92" d="M24.57,41.05a1.6,1.6,0,1,1-1.74-1.46H23A1.55,1.55,0,0,1,24.57,41.05Z" transform="translate(0 0)"/><path d="M97,63.14H88s0,0,0,0V47.71s0-.05,0-.05h18s0,0,0,.05V63.1s0,0,0,0Z" transform="translate(0 0)" fill="#fefefe"/><path d="M105.21,58.19v.22a1.13,1.13,0,0,1-.33.64h0l0,0h0l-.06,0a.64.64,0,0,1-.18.1s-.06.05-.1,0-.09,0-.13.06-.1,0-.15,0H104c-.06,0-.06,0-.06-.06a.76.76,0,0,0,0-.26,2.11,2.11,0,0,1,0-.25,0,0,0,0,1,0,0h0s0,0,0,0h.25a.39.39,0,0,0,.14,0l.07-.05s0,0,0-.07a1,1,0,0,0,0-.16.25.25,0,0,0,0-.15.47.47,0,0,1-.05-.1s0,0,0,0a.54.54,0,0,0-.12-.09H104s0,0,0,0-.13.11-.16.19a0,0,0,0,0,0,0c0,.18,0,.36,0,.54v.52c0,.07,0,.07-.07.07h-2.17c-.07,0-.09,0-.09.07a.57.57,0,0,1-.1.31s0,0,0,0h0l-.06.08a.81.81,0,0,1-.14.12A.46.46,0,0,1,101,60c-.06,0-.1.06-.16.06s-.07,0-.07-.08a2.64,2.64,0,0,1,0-.4c0-.07,0-.15,0-.23a.06.06,0,0,0,0,0h0s0,0,0,0,0-.28,0-.42,0-.13,0-.2,0-.3,0-.45a.21.21,0,0,0-.07-.14l-.12-.09h-.25a.27.27,0,0,0-.22.1.34.34,0,0,0-.09.14h0a.22.22,0,0,0,0,.16s0,0,0,.08a.19.19,0,0,0,.07.13.24.24,0,0,1,.08.06s0,0,0,0,.22,0,.33,0,.09,0,.09.09,0,.28,0,.42,0,.09,0,.13,0,0,0,0h-.33s0,0-.08,0a.09.09,0,0,1-.06,0l-.15,0h0l-.1,0-.12-.08s-.06,0-.06,0h0a.67.67,0,0,1-.15-.14.33.33,0,0,1-.11-.21v0s0,0,0-.06h0l0-.13v-.05h0a.27.27,0,0,1,0-.12,1.79,1.79,0,0,1,0-.23.47.47,0,0,0,0-.16v0s.05,0,0,0v0s0,0,0,0h0a1,1,0,0,1,.12-.17,1.23,1.23,0,0,1,.28-.23s.05,0,.07,0,.06,0,.08,0h0s.05,0,.07,0h0a.07.07,0,0,0,.06,0s0,0,0,0h.18a.42.42,0,0,0,.16,0s0,0,0,0h0a.14.14,0,0,1,.13,0l.09.05s.05,0,.08,0l.14.09.11.11s0,0,0,0,0,0,0,0h0s0,.06.06.06h0s0,.06,0,.08,0,0,0,0,.08.17.1.26a.59.59,0,0,1,0,.13v.36s0,0,0,0h.13s0,0,0,0v0a.69.69,0,0,1-.06-.4.67.67,0,0,1,0-.19,1.47,1.47,0,0,0,.1-.22l0,0,0,0s.09-.11.14-.15.14-.13.24-.15.08-.06.14-.05h0s.08,0,.11,0h.44a0,0,0,0,0,0,0,.25.25,0,0,1,.17.06l.23.11,0,.05s.07,0,.1,0l.09-.08,0,0a.22.22,0,0,0,.11-.05s0,0,.07,0h0s.07-.05.12,0,0,0,.05,0,0,0,0,0h.15a1.62,1.62,0,0,1,.22,0l.1,0c.06,0,.14,0,.19.09l.12.06,0,0a1.49,1.49,0,0,1,.14.12l.06.09h0a.31.31,0,0,1,.1.15h0a.05.05,0,0,1,0,0h0a1.17,1.17,0,0,1,.06.2A.14.14,0,0,0,105.21,58.19Z" transform="translate(0 0)" fill="#5b418d"/><path d="M92.46,58c.05,0,.09-.12.17-.15l.08-.07a.39.39,0,0,1,.14-.05h0c0-.06.08,0,.12,0s0,0,0,0c0,.17,0,.34,0,.51a.49.49,0,0,1,0,.12.58.58,0,0,1,0,.19c0,.05,0,.09,0,.13a.05.05,0,0,1,0,0h0a1,1,0,0,0,.18,0,.35.35,0,0,0,.21-.22v-.9a.77.77,0,0,1,.07-.34.59.59,0,0,1,.21-.26s0,0,.06,0l.09-.06s.1,0,.13,0a.15.15,0,0,1,.13,0s0,0,0,0v1.56a.1.1,0,0,1,0,.07s0,0,0,0,0,.09-.06.14h0s0,0,0,.05a.1.1,0,0,1-.08.11h0a.47.47,0,0,1-.06.09h0c0,.06-.08.08-.12.12l-.07.08s0,0-.07,0h0l0,0h0a.15.15,0,0,1-.07.05,1.76,1.76,0,0,0-.2.09s0,0,0,0a.09.09,0,0,0-.07,0s-.08,0-.12,0-.08,0-.12,0,0,0,0,0V59a.07.07,0,0,0,0-.06v0a1.37,1.37,0,0,1-.16.18l-.15.12a.27.27,0,0,1-.13.07l-.08,0h0s0,0,0,0-.08.05-.14,0h0c0,.05-.1,0-.15,0H92s-.06,0-.1,0,0,0,0,0V59.1s0-.05,0,0h0l0,0h0l0,0h0s-.06,0-.09.08,0,0-.07,0h0s0,0,0,0a.29.29,0,0,0-.1,0l-.1.05h0c-.07,0-.12,0-.19,0H91s0,0,0,0a.16.16,0,0,0,0,.09s0,0,0,.06a0,0,0,0,0,0,0s0,.07-.06.1a1.06,1.06,0,0,1-.15.15s-.1.06-.13.11-.05,0-.07,0-.06,0-.1,0a.18.18,0,0,0-.09,0h0c-.07,0-.13.06-.2,0h-.25s-.06,0-.08,0,0,0,0,0-.11,0-.16,0,0,0-.07,0,0-.06-.1-.06,0,0,0,0h0s-.09,0-.12-.08h0s0,0,0,0h0a1.42,1.42,0,0,1-.12-.13A2,2,0,0,1,89,59.5h0a2.09,2.09,0,0,0-.08-.23v-.21a.17.17,0,0,0,0-.07.5.5,0,0,1,0-.12.29.29,0,0,0,0-.14s0,0,0,0,0-.1.06-.12l0,0a.54.54,0,0,1,.09-.12h0a.81.81,0,0,1,.23-.17s0,0,.06,0h0a.45.45,0,0,1,.12-.06.17.17,0,0,0,.11,0h0s.06,0,.08,0h.34s0,0,0,0v.58a0,0,0,0,1,0,0s0,0-.09,0h-.3s0,0-.06,0l-.09.05h0s0,0,0,0h0a.82.82,0,0,0,0,.35.12.12,0,0,0,0,.08l0,0h0l0,0a.19.19,0,0,0,.14.07h.24s0,0,.08,0a.29.29,0,0,0,.16-.27v-.52a.92.92,0,0,0,0-.16.61.61,0,0,1,0-.19l0,0a.13.13,0,0,0,0-.09l0,0h0s0,0,0-.06h0a.49.49,0,0,1,.21-.24l.09-.07s.08-.05.13-.05.06,0,.1,0H91s0,0,0,.05V58c0,.13,0,.26,0,.39s0,.21,0,.32,0,0,0,0,.11,0,.15,0h0s0,0,.07-.05l0,0h0s0-.06,0-.08h0a.24.24,0,0,0,0-.09s0-.11,0-.16,0,0,0,0a.11.11,0,0,0,0-.07s0-.05,0-.08h0l0-.06a.3.3,0,0,1,.14-.17.39.39,0,0,1,.1-.08h0s0,0,0,0h0s0,0,.08,0h0s0,0,0,0,.13,0,.2,0a0,0,0,0,1,0,0v.68a.28.28,0,0,1,0,.09.17.17,0,0,0,0,.1s0,0,0,.09,0,0,0,.05h.07a.67.67,0,0,0,.14-.09.24.24,0,0,0,.07-.23.48.48,0,0,1,0-.2.64.64,0,0,1,.08-.19S92.45,58,92.46,58Z" transform="translate(0 0)" fill="#2dd2ea"/><path d="M99.54,54.84c0,.14-.05.29-.08.44s0,.24-.07.37v0l0,0,0,.22s0,0,0,0H95.58s-.07,0-.09,0l-.06-.31-.06-.35s0,0,0-.07,0,0,0,0a1.38,1.38,0,0,1,0-.2c0-.1,0-.2,0-.3l-.06-.34,0,0s0,0,0-.06,0-.06-.06,0h-.06s0,0,0,0h.13c.07,0,.11.06.16.09a.26.26,0,0,0,.28,0,.39.39,0,0,0,.1-.08s0,0,.06,0H99a.18.18,0,0,1,.07,0,.24.24,0,0,0,.21.09.2.2,0,0,0,.14-.06.28.28,0,0,1,.24-.09s.08,0,.12,0h-.09s0,0,0,0l-.09.54v.05Z" transform="translate(0 0)" fill="#6c6fc6"/><path d="M97.2,57.66h0s0-.07.09-.08,0,0,.07-.07a.53.53,0,0,1,.17-.08l.08,0s.08-.06.13,0,0,0,.05,0,0,0,0,0h.36s.1,0,.13,0h0s0,0,.06,0l.09,0s.11,0,.15.09.09.06.12.1a.76.76,0,0,1,.11.14h0s0,0,.05.07h0A1.11,1.11,0,0,1,99,58a.16.16,0,0,1,0,.1s0,.05,0,.06h0a.54.54,0,0,1,0,.22.29.29,0,0,0,0,.09.06.06,0,0,1,0,.07h0s0,.06,0,.08h0s0,0,0,.05v0s0,.05,0,.06h0a.14.14,0,0,1,0,.06h0a.9.9,0,0,1-.19.2l0,0c0,.06-.13.08-.18.13a.54.54,0,0,1-.11,0h0v0c-.05,0-.09,0-.13,0s0,0-.08,0-.07,0-.1,0h-.3s-.06,0-.05-.05a1.23,1.23,0,0,0,0-.27.09.09,0,0,0,0-.05h0s0,0,0,0v-.19c0-.06,0-.08.08-.08h.32s.1-.06.14-.1a.25.25,0,0,0,.08-.15.59.59,0,0,0,0-.13s0-.09,0-.14-.08-.13-.17-.16a.16.16,0,0,0-.09,0h-.2a.3.3,0,0,0-.24.15.4.4,0,0,0,0,.15.81.81,0,0,1,0,.22h0a.17.17,0,0,0,0,.1s0,0,0,0a.38.38,0,0,0,0,.21v0c0,.1,0,.2,0,.3s0,.21,0,.32a2.68,2.68,0,0,1,0,.4s0,.1,0,.15,0,0,0,0a.1.1,0,0,1-.1,0h0a.09.09,0,0,1-.07,0s-.08,0-.12-.06l-.06-.06h0l-.06,0s0,0-.07-.08h0a1.29,1.29,0,0,0-.09-.16.32.32,0,0,1,0-.09c0-.07,0-.13,0-.2v-1a.9.9,0,0,1,0-.16h0c0-.08.06-.13.08-.2s.06-.09.07-.15,0,0,0,0l0,0S97.16,57.67,97.2,57.66Z" transform="translate(0 0)" fill="#5b418d"/><path d="M96.41,52.74l.27-.27c.07-.09.16-.17.23-.25l.22-.23c.05,0,.1-.1.15-.15l0,0a.91.91,0,0,1,.23,0,.16.16,0,0,1,.11.05l.27.31c.1.12.21.23.31.34l.17.19c.09.09.17.19.25.28l.23.25.26.28.12.14a.09.09,0,0,0,.07,0h.38s0,0,.05,0a.07.07,0,0,1-.06,0h-.37l.06.07a.6.6,0,0,1,.16.22V54c0,.08-.09.11-.14.15l-.06,0a.14.14,0,0,1-.21,0c-.13-.13-.25-.27-.37-.41l-.09-.08s0,0-.05,0H96.27a.13.13,0,0,0-.14.06l-.25.26-.19.2a.18.18,0,0,1-.24,0l-.14-.1a.14.14,0,0,1,0-.22l.21-.21h-.36a.1.1,0,0,1-.07,0,.66.66,0,0,1,.14,0,2.81,2.81,0,0,1,.29,0l.05,0,.37-.39h0v-1s0,0,0-.05h.45a.07.07,0,0,1,0,.05v.46S96.38,52.73,96.41,52.74Z" transform="translate(0 0)" fill="#6c6fc6"/><path d="M96.28,59.06h0s-.07.11-.14.14l-.11.07c-.07,0-.12.08-.19.08s-.1,0-.14,0,0,0,0,0h-.35s0,0,0,0,0,0-.05,0,0,0,0,0h0s-.09,0-.14,0l0,0a.91.91,0,0,0-.13-.08.63.63,0,0,1-.23-.23s0,0,0-.07h0a.42.42,0,0,1-.09-.14s0-.09,0-.13,0-.06,0-.08h0a.68.68,0,0,1,0-.2V56.9c0-.06,0-.06.06-.06s.08,0,.1,0h0a.32.32,0,0,1,.17.06,1.54,1.54,0,0,1,.19.17.17.17,0,0,1,.06.1h0s0,0,0,.06h0l0,0h0a1,1,0,0,1,.06.3c0,.12,0,.24,0,.36s0,.25,0,.37a.57.57,0,0,0,0,.26h0s0,.06,0,.08h0l0,0h0l0,0h0c.12.07.25,0,.38,0s.06,0,.1,0,.09-.12.14-.17,0,0,0,0v-.13a.36.36,0,0,0-.11-.26s0,0,0,0h0s0,0,0-.06v-.58s0,0,0-.05a.06.06,0,0,1,0,0l.11,0a.08.08,0,0,1,.07,0s0,0,.06,0a1.1,1.1,0,0,0,.14.09s0,0,0,0h0a.05.05,0,0,1,.06,0h0a.24.24,0,0,1,.1.1s0,0,0,0,.07.07.1.12h0l0,0h0a.52.52,0,0,1,.06.13s0,0,0,0,0,.12,0,.18h0a.28.28,0,0,1,0,.18,0,0,0,0,0,0,0,.34.34,0,0,1-.06.24l-.09.19s0,0,0,0l0,0A.1.1,0,0,1,96.28,59.06Z" transform="translate(0 0)" fill="#2dd2ea"/><path d="M95.5,56s0,0,0,0,0,0,0,0h3.75s0,0,0,0a.69.69,0,0,1-.27.45.79.79,0,0,1-.3.12H96.17a.63.63,0,0,1-.47-.2.68.68,0,0,1-.18-.29Z" transform="translate(0 0)" fill="#5b418d"/><path d="M95.06,53.67h.46l-.22.23a.13.13,0,0,0,0,.22l.13.09a.16.16,0,0,0,.22,0l.3-.3a1.19,1.19,0,0,1,.19-.2l0,0h2.41a.06.06,0,0,1,.06,0l.13.13c.1.11.19.22.29.32l0,.05a.14.14,0,0,0,.18,0,1.09,1.09,0,0,0,.17-.13.09.09,0,0,0,0-.06.06.06,0,0,0,0-.06c0-.06-.07-.09-.1-.14s-.1-.09-.14-.16h.46a.15.15,0,0,1,.13.11,1.07,1.07,0,0,1,0,.31c0,.06-.06.08-.11.1h-.22s-.08,0-.11.07a.27.27,0,0,1-.4,0l0,0H95.88s0,0-.06,0l-.06.06a.28.28,0,0,1-.38,0,.34.34,0,0,0-.33-.08c-.09,0-.11-.06-.12-.15a1.93,1.93,0,0,1,0-.24A.12.12,0,0,1,95.06,53.67Z" transform="translate(0 0)" fill="#5b418d"/><path d="M94.15,56.47h0s0,0-.05.05h0l-.06,0h0a.07.07,0,0,1,0,0h0l0,0,0,0-.07,0h0l0,0,0,0-.07,0h0l0,0-.14.1-.58.46,0,0,0,0c-.06.05-.07.06-.12,0s-.17-.19-.25-.28l0,0,0,0,0,0h0s0,0,0-.07h0s0,0,0,0h0l0,0h0l0,0,0,0,0,0h0l0,0,0,0,.06,0h0l.07-.06h0s.07-.05.1-.08h0l.06,0h0l.06,0h0l0,0,0,0,.06-.05h0a.1.1,0,0,0,.05,0h0l0,0h0l0,0,0,0,0,0h0s0,0,.06,0h0l.11-.09h0l0,0h0l.06,0h0l.06,0,0,0s0,0,0,0h0l0,0h0l.07,0h0s0,0,.06,0v0a.75.75,0,0,0,.16,0l.2,0s0,0,0,0h0a.13.13,0,0,1,.12,0h0s0,0,0,0h0s0,0,.07,0l0,0s0,0,.07,0h0l0,0a0,0,0,0,1,.06,0h0s0,0,0,.07h0l-.06,0h0l-.06,0h0s0,0,0,0h0l0,0h0l-.06,0h0l-.05,0h0l0,0,0,0,0,0h0l0,0h0s0,0-.06,0l0,0,0,0,0,0a.18.18,0,0,1-.07,0h0S94.18,56.46,94.15,56.47Z" transform="translate(0 0)" fill="#2dd2ea"/><path d="M96.86,49.2a.57.57,0,0,1,.25.11s0,0,.06,0a.72.72,0,0,1,.13.28v.14a.06.06,0,0,0,0,0,.48.48,0,0,1-.13.23.46.46,0,0,1-.58.08.44.44,0,0,1-.22-.33.49.49,0,0,1,.42-.6Z" transform="translate(0 0)" fill="#febe67"/><path d="M96.29,52a.44.44,0,0,1-.25-.15A.46.46,0,0,1,96,51.5a.4.4,0,0,1,.32-.3h.14a.43.43,0,0,1,.23.12.34.34,0,0,1,.08.17.4.4,0,0,1,0,.35.39.39,0,0,1-.34.18Z" transform="translate(0 0)" fill="#a5be47"/><path d="M95.52,61.4h-.13s0,0,0,0,0-.22,0-.33V61h0l0,.18a1.6,1.6,0,0,1,0,.21s0,0,0,0h-.14c0-.14-.08-.27-.11-.41,0,0,0,0,0,0v.38h-.12s0,0,0,0v-.57h.28c0,.11.06.23.09.36,0-.13.08-.25.11-.37h.25s0,0,0,0C95.52,61,95.53,61.2,95.52,61.4Z" transform="translate(0 0)" fill="#5b418e"/><path d="M95.72,60.23s-.1-.07-.13-.13l0-.06a.34.34,0,0,1,0-.29h0s0,0,0,0h0a.35.35,0,0,1,.46,0l0,0,0,0h0a.3.3,0,0,1,0,.34h0l0,.06s0,0,0,0h0l0,0h0l-.07,0h-.2Z" transform="translate(0 0)" fill="#2dd2ea"/><path d="M93.75,60.78a.18.18,0,0,1,.16.11c0,.1,0,.17-.1.22l0,0a.58.58,0,0,1,.17.23s0,0,0,0h-.21a.07.07,0,0,1-.06,0l-.09-.18s-.05,0-.08,0,0,0,0,0a.61.61,0,0,0,0,.19s0,0,0,0h-.17s0,0,0,0v-.54s0,0,0,0Z" transform="translate(0 0)" fill="#5b418d"/><path d="M95.71,51a.29.29,0,0,1-.25-.25.21.21,0,0,1,0-.11.3.3,0,0,1,.26-.25h.06a.31.31,0,0,1,.25.2.3.3,0,0,1-.24.41Z" transform="translate(0 0)" fill="#2dd2ea"/><path d="M92.76,61.3v0c0,.08,0,.08-.12.08h-.12c0-.06,0-.12.07-.18a2.9,2.9,0,0,0,.16-.41.05.05,0,0,1,0,0H93s0,0,0,0l.22.57a0,0,0,0,1,0,0h-.16s-.06,0-.06,0,0,0,0-.06Z" transform="translate(0 0)" fill="#5b418d"/><path d="M94,61.4h0a1.21,1.21,0,0,1,.09-.2.85.85,0,0,0,.06-.17l.09-.23s0,0,0,0h.21a3.84,3.84,0,0,0,.14.36,2.77,2.77,0,0,0,.1.26h-.19s0,0,0,0,0,0,0-.06h-.24c0,.11-.09.11-.17.1Z" transform="translate(0 0)" fill="#5b418d"/><path d="M95.83,61.3s0,.08,0,.1h-.21l.25-.62h.23c.07.21.17.41.24.62h-.19s0,0,0,0a.24.24,0,0,0,0-.08Z" transform="translate(0 0)" fill="#5b418d"/><path d="M101,61a.43.43,0,0,1-.09.1l.06,0a.16.16,0,0,1,0,.24.25.25,0,0,1-.17,0h-.33a.07.07,0,0,1,0,0c0-.17,0-.35,0-.52s0-.06,0-.06h.33a.21.21,0,0,1,.16.12Z" transform="translate(0 0)" fill="#2dd2ea"/><path d="M91.86,60.78H92s0,0,0,0,.1.26.15.4a.58.58,0,0,1,0-.14c0-.09,0-.18.08-.26s0,0,.05,0h.13s0,0,0,0-.14.34-.2.51,0,.08-.12.08h-.08c-.07,0-.07,0-.09-.07a2,2,0,0,0-.1-.26c0-.09-.07-.18-.11-.26Z" transform="translate(0 0)" fill="#5b418d"/><path d="M98.87,61h.07s0,0,0,0,.18-.08.27,0,0,0,0,0a.18.18,0,0,1,.28.06v.36s-.09,0-.12,0,0-.07,0-.12v-.15c0-.06,0-.09-.07-.09s-.08,0-.08.09a1.34,1.34,0,0,0,0,.2c0,.08,0,.08-.07.08h0c0-.08,0-.16,0-.23s0,0,0-.06,0-.08-.06-.08a.09.09,0,0,0-.1.08v.25s0,0,0,0h-.07A3.38,3.38,0,0,1,98.87,61Z" transform="translate(0 0)" fill="#2dd2ea"/><path d="M98.16,61.4h-.1s0,0,0,0v-.2s0,0,0,0h-.2s0,0,0,0v.2a0,0,0,0,1,0,0h-.1v-.58s0,0,0,0h.09V61s0,0,0,0H98s0,0,0,0v-.21h.12s0,0,0,0v.54S98.17,61.39,98.16,61.4Z" transform="translate(0 0)" fill="#2dd2ea"/><path d="M96.59,60.78c0,.14,0,.29,0,.43s0,0,0,0h.24s0,0,0,0,0,.11-.12.11h-.36s-.05,0-.05,0v-.58Z" transform="translate(0 0)" fill="#5b418d"/><path d="M97.53,61.4h-.48s0,0,0,0v-.58h.19s0,0,0,0v.37a.07.07,0,0,0,0,.05h.31A.75.75,0,0,1,97.53,61.4Z" transform="translate(0 0)" fill="#5b418e"/><path d="M96.06,49a.19.19,0,0,1,.16-.18.21.21,0,0,1,.23.07.23.23,0,0,1,0,.27.22.22,0,0,1-.32.08.19.19,0,0,1-.09-.17A.08.08,0,0,1,96.06,49Z" transform="translate(0 0)" fill="#50d288"/><path d="M98.49,61.41a.2.2,0,0,1-.2-.13.26.26,0,0,1,0-.28.22.22,0,0,1,.21-.06.24.24,0,0,1,.22.2.08.08,0,0,1,0,.07.25.25,0,0,1-.22.2A.06.06,0,0,1,98.49,61.41Z" transform="translate(0 0)" fill="#2dd2ea"/><path d="M101.35,61.41a.22.22,0,0,1-.19-.1.28.28,0,0,1,0-.25.26.26,0,0,1,.32-.11.24.24,0,0,1,.15.19v.07a.23.23,0,0,1-.22.2A.06.06,0,0,1,101.35,61.41Z" transform="translate(0 0)" fill="#2dd2ea"/><path d="M99.86,61.41a.21.21,0,0,1-.2-.21A.23.23,0,0,1,100,61a.22.22,0,0,1,.15.23s0,0,0,0h-.24s0,0,0,0,0,.06.07.05h.05s0,0,0,0,0,0,0,0l.1,0s0,0,0,0-.09.09-.15.1A.11.11,0,0,1,99.86,61.41Z" transform="translate(0 0)" fill="#2dd2ea"/><path d="M102.17,61a1.19,1.19,0,0,0-.15.18.06.06,0,0,0,0,.06l.16.21H102l0,0-.06-.07s0,0-.06,0a.13.13,0,0,1-.17.09h0a1.15,1.15,0,0,1,.14-.17s0-.07,0-.12l-.12-.16h0a.13.13,0,0,1,.17.09s0,0,0,0L102,61h.17Z" transform="translate(0 0)" fill="#2dd2ea"/><path d="M96.59,50.9a.18.18,0,0,1-.17-.17.08.08,0,0,1,0-.07.18.18,0,0,1,.21-.16.2.2,0,0,1,0,.4Z" transform="translate(0 0)" fill="#fe7891"/><path d="M101.33,59.73s0,0,0,0a.66.66,0,0,0,.09-.28c0-.07,0-.08.08-.08h2.19s.05,0,.05,0v-1a.28.28,0,0,1,.09-.23A.23.23,0,0,1,104,58h.18a.3.3,0,0,1,.22.1h0s0,0-.07,0,0-.05-.1-.05H104s0,0-.07.05,0,0,0,0,0,0,0,0l0,0v0s0,0,0,.07a1,1,0,0,1,0,.24,2.26,2.26,0,0,0,0,.26c0,.19,0,.38,0,.58s0,.07-.08.07h-2.16c-.07,0-.09,0-.09.09A.5.5,0,0,1,101.33,59.73Z" transform="translate(0 0)" fill="#fcfcfc"/><path d="M95,57.2a.61.61,0,0,0-.2-.22.39.39,0,0,0-.14-.08.54.54,0,0,0-.21,0s0,0,0,0v1.57s0,.06,0,.1,0-.05,0-.06a.13.13,0,0,1,0-.06V56.91a.13.13,0,0,1,0-.06.17.17,0,0,1,.17,0h0c.06,0,.09,0,.14,0l0,0a2.11,2.11,0,0,1,.23.19A.18.18,0,0,1,95,57.2Z" transform="translate(0 0)" fill="#fcfcfc"/><path d="M96.07,49.85s0,.09-.11.08a.09.09,0,0,1-.1-.08.06.06,0,0,1,0-.06q0-.09.09-.09c.06,0,.09,0,.12.09A.06.06,0,0,1,96.07,49.85Z" transform="translate(0 0)" fill="#fe9268"/><path d="M97.61,58.48v-.24A.29.29,0,0,1,97.7,58a.3.3,0,0,1,.19-.08h.24a.21.21,0,0,1,.14.07.36.36,0,0,1,.12.28.47.47,0,0,1,0,.17c0,.05-.06.12-.13.14s-.07,0-.08.05,0,0-.05,0h-.28s-.07,0-.07.07V59s0,0,0,0v-.19a.09.09,0,0,1,0-.08h.36s.05,0,.07-.05h0l.1-.07v0s0,0,0,0a.31.31,0,0,0,0-.21.14.14,0,0,0-.05-.11s0,0,0,0l0,0A.18.18,0,0,0,98.1,58h-.2a.29.29,0,0,0-.2.09.23.23,0,0,0-.08.17,1.33,1.33,0,0,1,0,.2S97.63,58.47,97.61,58.48Z" transform="translate(0 0)" fill="#fcfcfc"/><path d="M101.78,57.75a.84.84,0,0,0-.11.21.67.67,0,0,0-.07.42.39.39,0,0,0,.06.21s0,0,0,.07,0,0,0,0h-.18s0,0,0,0,0-.24,0-.37a.9.9,0,0,0,0-.16c0-.08-.07-.14-.09-.22a.09.09,0,0,0,0,0s0,0,0-.05l0,0s0,0-.05-.06a.7.7,0,0,1,.13.17s0,0,0,0,0,0,0,0,0,.12.07.17,0,0,0,0,0,0,0,0,0,.05,0,.08v.34s0,0,0,0h.14s0,0,0,0a.94.94,0,0,1-.06-.24.45.45,0,0,1,0-.23.14.14,0,0,0,0-.07.2.2,0,0,1,.06-.15l.06-.14S101.75,57.75,101.78,57.75Z" transform="translate(0 0)" fill="#fcfcfc"/><path d="M99.32,56H95.55s0,0-.06,0v0h3.79s0,0,0,0S99.34,56,99.32,56Z" transform="translate(0 0)" fill="#7f7fcb"/><path d="M92.25,58.65a.25.25,0,0,1-.2.1s0,0,0,0a1,1,0,0,0,.08-.45c0-.17,0-.35,0-.52s0-.06,0-.06-.07,0-.1,0h0s0,0,0,0,0,0,0,0,.14-.06.22,0,0,0,0,.06v.71s0,0,0,0,0,.06,0,.1,0,.06,0,.1,0,0,0,.05a0,0,0,0,0,.06,0Z" transform="translate(0 0)" fill="#fcfcfc"/><path d="M90.34,58.29a1.21,1.21,0,0,0,0,.19c0,.25,0,.5,0,.74a.24.24,0,0,1-.11.19s-.06,0-.08.05h-.23a.25.25,0,0,1-.22-.08h0a0,0,0,0,0,0,0h0l0,0h.25a.07.07,0,0,0,.06,0s.1,0,.13-.11,0,0,0,0a.15.15,0,0,0,0-.09v-.81s0-.08,0-.11Z" transform="translate(0 0)" fill="#fcfcfc"/><path d="M97.17,59.87s.07.08.14.08l0,0s.08,0,.11,0,.07,0,.1,0,0,0,0,0a1.63,1.63,0,0,0,0-.44.62.62,0,0,1,0-.23,1.55,1.55,0,0,0,0-.48,1.49,1.49,0,0,1,0-.21v0h0c0,.22,0,.43,0,.65a1.33,1.33,0,0,0,0,.2c0,.11,0,.22,0,.33s0,.16,0,.23,0,0,0,0a.11.11,0,0,1-.15,0,.14.14,0,0,1-.12,0s-.06,0-.09,0S97.17,59.9,97.17,59.87Z" transform="translate(0 0)" fill="#fcfcfc"/><path d="M96.93,58.13a.9.9,0,0,0,0,.23c0,.32,0,.64,0,1a.76.76,0,0,0,0,.21c0,.08.08.14.1.22a.61.61,0,0,1-.11-.21s0,0,0,0a1.08,1.08,0,0,1,0-.19v-1A.21.21,0,0,1,96.93,58.13Z" transform="translate(0 0)" fill="#fcfcfc"/><path d="M89.55,60c.06,0,.11.06.17,0s.15,0,.23,0a.31.31,0,0,0,.19,0c.07,0,.15,0,.21-.08a.23.23,0,0,1,.1,0s.06,0,.08,0a2.11,2.11,0,0,0,.27-.25v0h0c0,.06-.07.09-.1.12l-.18.15s-.06,0-.11,0,0,0-.06,0a.27.27,0,0,1-.17.06s0,0-.06,0H90s0,0,0,0a0,0,0,0,1-.07,0l0,0h-.11a.11.11,0,0,0-.13,0s0,0,0,0h0s-.07,0-.09-.07,0,0-.08,0,0,0,0,0,0,0,0,0a.19.19,0,0,1,.1,0S89.54,60,89.55,60Z" transform="translate(0 0)" fill="#fefefe"/><path d="M98.88,57.76a.77.77,0,0,0-.17-.19l-.19-.13-.13-.06c-.06,0-.09-.05-.15,0s-.16,0-.24,0a.41.41,0,0,0-.19,0l-.11,0a.15.15,0,0,0-.07,0l-.09,0s-.06,0-.1,0h0a.34.34,0,0,1-.12.09l-.1.09s0-.08.09-.09h0a.63.63,0,0,1,.13-.11.17.17,0,0,0,.12-.05l.06,0c.05,0,.08-.06.13-.05s0,0,0,0,0,0,0,0H98a.22.22,0,0,0,.08,0,.6.6,0,0,1,.23.06l.1,0,.1,0h.06s0,0,0,0h0c0,.06.1.08.15.13l0,0a.06.06,0,0,0,0,.06A.07.07,0,0,1,98.88,57.76Z" transform="translate(0 0)" fill="#fcfcfc"/><path d="M103.75,57.39l-.09,0-.13.07s-.07.09-.14.08l0,0a.91.91,0,0,0-.16-.11,1.63,1.63,0,0,1-.19-.09.15.15,0,0,0-.09,0h0s-.07,0-.11,0h-.21a.65.65,0,0,0-.2,0,1.15,1.15,0,0,0-.17.06l0,0h0s0,0,0,0,.07,0,.11,0,0,0,.06,0,0,0,.06,0l0,0h.22a.66.66,0,0,1,.2,0,1.29,1.29,0,0,1,.21.07.51.51,0,0,0,.15.07s0,0,0,0,0,0,0,0,0,0,.08.06.06,0,.08-.06,0-.06.09-.07.05,0,.08,0l0,0Z" transform="translate(0 0)" fill="#fcfcfc"/><path d="M100.07,58.06a.25.25,0,0,1,.21-.11h.25s0,0,.06,0a.29.29,0,0,1,.16.18s0,0,0,.08v.19s0,.05,0,.08a2,2,0,0,1,0,.25c0,.18,0,.35,0,.52v0s0,0,0-.05,0-.28,0-.42,0-.2,0-.3,0-.23,0-.34,0-.07,0-.11l0,0-.05,0a0,0,0,0,0,0,0s0,0,0,0h-.29l-.06,0s0,0,0,0l0,0h0Z" transform="translate(0 0)" fill="#fcfcfc"/><path d="M100.25,59.32a.05.05,0,0,0,0,0h.24c.07,0,.08,0,.07-.08a.76.76,0,0,1,0-.3,1,1,0,0,0,0-.25,0,0,0,0,0,0,0h-.27s0,0-.08,0,0,0-.08,0l-.06,0s0,0,0,0h0s.06,0,.09.06h0s.07,0,.1,0a2.26,2.26,0,0,0,.26,0s.06,0,.09,0a.29.29,0,0,1,0,.09c0,.14,0,.28,0,.43s0,.08,0,.13,0,0,0,0h-.3s0,0,0,0a0,0,0,0,1,0,0Z" transform="translate(0 0)" fill="#fcfcfc"/><path d="M94,58.69s0-.07,0-.1h0c0-.06,0-.11,0-.17V56.89s0-.06,0,0-.07,0-.11,0a.38.38,0,0,1-.1,0l-.1.06c0-.05,0,0,.08-.06s.1,0,.14-.06a.15.15,0,0,1,.13,0s0,0,0,0v1.59a.25.25,0,0,1-.05.16.06.06,0,0,0,0,0s0,0,0,0Z" transform="translate(0 0)" fill="#fcfcfc"/><path d="M92.85,58.89s0,0,0,0,0,0,0,0v.42a.06.06,0,0,0,.07.06h.12s.07,0,.09,0h0a.25.25,0,0,0,.16-.06s.07,0,.11,0,0,0,.08-.05a.09.09,0,0,1-.08.06l-.11,0a.21.21,0,0,1-.14,0,.09.09,0,0,0,0,0,.22.22,0,0,1-.16,0s0,0-.07,0a.06.06,0,0,1,0-.08v-.38S92.87,58.89,92.85,58.89Z" transform="translate(0 0)" fill="#fcfcfc"/><path d="M90.2,58.71s0,0,0,0c0-.18,0-.36,0-.55,0,0,0,0,0,0h-.25s-.07,0-.1,0h0a.46.46,0,0,0-.2,0l-.13.05s.06-.07.11-.06a.21.21,0,0,0,.1,0l.09,0a.07.07,0,0,0,.06,0h.34s0,0,0,0,0,.38,0,.58a.05.05,0,0,1,0,.05A0,0,0,0,1,90.2,58.71Z" transform="translate(0 0)" fill="#fcfcfc"/><path d="M96.12,57.62,96,57.53s-.07,0-.09-.05h0c-.06,0-.09,0-.14,0h0s0,0-.06,0,0,0,0,.06V58a.06.06,0,0,0,0,.06s0,0,0-.06v-.37a2.18,2.18,0,0,1,0-.25h.08s0,0,0,0l0,0s.05,0,.08,0,0,0,.07,0l0,0,.12.08Z" transform="translate(0 0)" fill="#fcfcfc"/><path d="M91.25,58.71s-.1,0-.15,0,0,0,0,0v-1c0-.06,0-.06-.06-.06s-.08,0-.1,0,0,0,0,0a.29.29,0,0,0-.13,0h0s0,0,0,0a.26.26,0,0,1,.12,0s.06,0,.1,0h0s.06,0,.06.06V58c0,.14,0,.28,0,.42a2.44,2.44,0,0,0,0,.27s0,0,0,0a.11.11,0,0,1,.08,0,0,0,0,0,0,0,0S91.24,58.71,91.25,58.71Z" transform="translate(0 0)" fill="#fcfcfc"/><path d="M94.37,56.85v1s0,0,0,0a.11.11,0,0,1,0,0V56.9S94.34,56.86,94.37,56.85Z" transform="translate(0 0)" fill="#fefefe"/><path d="M100.75,59.31s0,0,0,0a4.61,4.61,0,0,0,0,.53s0,.08,0,.13,0,0,0,0,.08,0,.11,0h0s.08,0,.12,0a.53.53,0,0,0,.1-.06,1.29,1.29,0,0,0,.17-.16,0,0,0,0,1,0,0c0,.06-.07.09-.1.14s0,0-.06.06A.4.4,0,0,0,101,60h0a.11.11,0,0,0-.08,0,.13.13,0,0,1-.12,0s0,0,0,0a3.13,3.13,0,0,1,0-.53A1.08,1.08,0,0,0,100.75,59.31Z" transform="translate(0 0)" fill="#fcfcfc"/><path d="M104.43,58.05a.35.35,0,0,1,.09.31s0,.07,0,.11,0,.12-.12.15a.16.16,0,0,0-.09.05s0,0,0,0H104s0,0,0,0,0,0,0,0h.28s0,0,0,0a.06.06,0,0,1,0,0s0,0,0,0l.05,0s0,0,.06,0,0-.07,0-.11v0s0-.06,0-.1a.25.25,0,0,0,0-.13s0-.06,0-.07a0,0,0,0,1,0,0Z" transform="translate(0 0)" fill="#fcfcfc"/><path d="M95.69,58.09c.06,0,.08.08.12.12s0,.1,0,.15a.34.34,0,0,0,0,.1.26.26,0,0,1-.08.2.25.25,0,0,1-.25.11h-.16c-.05,0-.1,0-.14,0s0,0,0,0,0,0,0,0h.29s.07,0,.1,0,0-.07.09-.09l0,0a.25.25,0,0,0,0-.25.3.3,0,0,0-.14-.24S95.69,58.1,95.69,58.09Z" transform="translate(0 0)" fill="#fcfcfc"/><path d="M95.16,59.36h0c.06,0,.1,0,.16,0h.31s0,0,.06,0h0s.09,0,.14,0,0,0,.07,0a1.19,1.19,0,0,0,.22-.12.46.46,0,0,0,.12-.12s0,.06-.06.1l0,0c-.05,0-.09.06-.15.08s0,0,0,0l-.06,0a1.67,1.67,0,0,1-.2.08,1.57,1.57,0,0,1-.43,0s0,0-.06,0,0,0-.06,0S95.15,59.39,95.16,59.36Z" transform="translate(0 0)" fill="#fcfcfc"/><path d="M105,57.73a1,1,0,0,0-.14-.15.9.9,0,0,0-.2-.14c-.06,0-.11-.07-.18-.06s-.1,0-.13-.06h-.23s0,0,0,0a.14.14,0,0,0,.09,0,.52.52,0,0,1,.21,0,.35.35,0,0,1,.16.06c.07.05.17.06.22.14h0s0,0,.05,0a.54.54,0,0,1,.09.12S105,57.72,105,57.73Z" transform="translate(0 0)" fill="#fcfcfc"/><path d="M97.75,59s0,0,0,.05a1,1,0,0,1,0,.25c0,.06,0,.07.06.07H98s.07,0,.09,0h0s.07,0,.09,0h0s.1,0,.15,0a0,0,0,0,1,0,0h-.05s0,0-.06,0h-.06a.09.09,0,0,1-.1,0,.05.05,0,0,1-.07,0h-.23c-.1,0-.1,0-.1-.09a.05.05,0,0,1,0,0Z" transform="translate(0 0)" fill="#fcfcfc"/><path d="M101.22,57.71s0,0-.06,0,0,0,0-.06l-.13-.1s0-.05-.09-.06-.08,0-.11-.05l-.09,0h0c-.07,0-.13-.05-.2,0s-.08,0-.13,0a1,1,0,0,1,.24,0s0,0,0,0,.08,0,.12,0a.78.78,0,0,0,.21.09s0,0,0,0h0s.09,0,.1.09a0,0,0,0,1,0,0S101.21,57.65,101.22,57.71Z" transform="translate(0 0)" fill="#fcfcfc"/><path d="M95.13,58.59a.34.34,0,0,1,0-.2v-.83a.71.71,0,0,0,0-.2.13.13,0,0,0,0-.06s0,.05,0,.08a1.41,1.41,0,0,1,0,.46s0,.09,0,.14,0,0,0,.05v.43a.08.08,0,0,0,0,.07S95.13,58.57,95.13,58.59Z" transform="translate(0 0)" fill="#fcfcfc"/><path d="M104.22,59.32s.09,0,.12,0,.1,0,.14-.05.06,0,.09,0l.12-.07s.08-.06.13-.08h0s0,0,0,0,0,0,0,0l0,0s0,0,0,0l-.14.07h0s0,0,0,0,0,0-.07,0h0a.11.11,0,0,1-.11,0s0,0-.07,0H104c-.08,0-.07,0-.07-.07h0v0s0,0,0,0Z" transform="translate(0 0)" fill="#fcfcfc"/><path d="M94.56,58.91l.11.16a1.12,1.12,0,0,0,.22.16l.1.07a.44.44,0,0,0,.15.05h0a.28.28,0,0,1-.21-.08l-.14-.07,0,0s0,0-.06,0a.32.32,0,0,1-.11-.12s0,0,0,0S94.55,58.94,94.56,58.91Z" transform="translate(0 0)" fill="#fcfcfc"/><path d="M104.86,59.05a.58.58,0,0,0,.15-.16,1.25,1.25,0,0,0,.08-.12,1.29,1.29,0,0,0,.08-.28s0-.06,0-.08a.53.53,0,0,1,0,.17c0,.06,0,.13-.07.19a.88.88,0,0,1-.18.25l0,0A0,0,0,0,1,104.86,59.05Z" transform="translate(0 0)" fill="#fcfcfc"/><path d="M92.33,59.31s0,0,.08,0,.08,0,.12-.06.16-.15.25-.22,0-.06.07-.09h0s0,0,0,.06,0,0,0,.05-.07.08-.12.11-.13.13-.23.15S92.36,59.32,92.33,59.31Z" transform="translate(0 0)" fill="#fcfcfc"/><path d="M91,59.4h.22s0,0,0,0a.3.3,0,0,0,.18-.06s.07,0,.11,0h0s0,0,0,0-.05,0-.08,0a.39.39,0,0,0-.11.06s0,0-.07,0,0,0,0,0a.54.54,0,0,1-.18,0S91,59.43,91,59.4Z" transform="translate(0 0)" fill="#fefefe"/><path d="M93.75,60.78h-.39s0,0,0,0v.59a.06.06,0,0,1,0,0v-.54s0,0,0,0h.39Z" transform="translate(0 0)" fill="#fcfcfc"/><path d="M95.94,52.19c0,.24,0,.48,0,.72v.29s0,0,0,0c0-.34,0-.67,0-1C95.93,52.22,95.92,52.2,95.94,52.19Z" transform="translate(0 0)" fill="#fefefe"/><path d="M96.35,59a.33.33,0,0,0,.06-.1,1.14,1.14,0,0,0,.13-.3v0c0-.09,0-.18,0-.27s0,0,0,0v.12c0,.06,0,.12,0,.18s0,.08,0,.11,0,0,0,0-.07.12-.11.19S96.38,59,96.35,59Z" transform="translate(0 0)" fill="#fcfcfc"/><path d="M98.41,59.25a.83.83,0,0,0,.16-.09l.11-.07.15-.14s0,0,0,0a.18.18,0,0,1,.08-.09v0l0,0c0,.08-.11.13-.17.19s0,0,0,0,0,0,0,0-.08,0-.12.07Z" transform="translate(0 0)" fill="#fcfcfc"/><path d="M100.86,60.78h-.33s0,0,0,0v.59s0,0,0,0v-.54s0,0,0,0h.34Z" transform="translate(0 0)" fill="#fcfcfc"/><path d="M99,58.57s0-.08,0-.12a.34.34,0,0,0,0-.2.14.14,0,0,0,0-.09s0-.1,0-.15-.05-.1-.07-.16v0s0,.06.06.1l0,0S99,58,99,58a0,0,0,0,1,0,.07.46.46,0,0,1,0,.26s0,0,0,.05,0,0,0,0h0s0,.06,0,.09Z" transform="translate(0 0)" fill="#fcfcfc"/><path d="M103.89,59.26h0a1.28,1.28,0,0,1,0-.19.11.11,0,0,1,0-.08s0,0,0,0v.22S103.9,59.25,103.89,59.26Z" transform="translate(0 0)" fill="#fefefe"/><path d="M94.36,58a.05.05,0,0,1,0,0v.43s0,0,0,0V58Z" transform="translate(0 0)" fill="#fefefe"/><path d="M95.52,61.4v-.6s0,0,0,0h0s0,0,0,0v.59Z" transform="translate(0 0)" fill="#fcfcfc"/><path d="M91.78,59.07s0,0,0,0,0,.21,0,.31,0,0,0,0,.06,0,.09,0h0l0,0h-.06s0,0,0,0v-.24S91.81,59.07,91.78,59.07Z" transform="translate(0 0)" fill="#fcfcfc"/><path d="M89.05,58.56a.52.52,0,0,0-.06.13s0,.05,0,.08a.49.49,0,0,0,0,.24s0,0,0,.05V59a.34.34,0,0,1,0-.1.71.71,0,0,0,.08-.18s0-.06,0-.09S89,58.58,89.05,58.56Z" transform="translate(0 0)" fill="#fcfcfc"/><path d="M102.18,57.43a.39.39,0,0,0-.16.1.88.88,0,0,0-.15.12s0,.07-.07.07h0l.15-.15s0,0,.06,0,0-.05,0,0,0,0,0,0l.06,0a0,0,0,0,1,.06,0Z" transform="translate(0 0)" fill="#fcfcfc"/><path d="M99.36,58.65a1.87,1.87,0,0,0,.16.28l.11.11,0,0s-.06,0-.09-.07a.32.32,0,0,1-.11-.12s0,0,0-.06,0-.1-.06-.13A.07.07,0,0,1,99.36,58.65Z" transform="translate(0 0)" fill="#fcfcfc"/><path d="M89.66,59.36a.19.19,0,0,1-.08-.16V59a.88.88,0,0,1,0-.15.21.21,0,0,0,0,.08v0s0,.06,0,.09,0,.13,0,.19v0S89.65,59.33,89.66,59.36Z" transform="translate(0 0)" fill="#fefefe"/><path d="M98.16,61.4v-.59s0,0,0,0H98a.3.3,0,0,1,.13,0s0,0,0,0v.6Z" transform="translate(0 0)" fill="#fcfcfc"/><path d="M99.89,57.42h0c-.08,0-.12.08-.19.11s-.09.1-.15.13h0s0,0,0,0,.05-.07.1-.09,0,0,0,0l0,0h0s0,0,0,0,0,0,.07,0,0,0,0,0Z" transform="translate(0 0)" fill="#fcfcfc"/><path d="M97.76,60.78c-.13,0-.13,0-.13.1v.52a.06.06,0,0,1,0,0c0-.18,0-.36,0-.54s0-.06,0,0S97.73,60.76,97.76,60.78Z" transform="translate(0 0)" fill="#fcfcfc"/><path d="M96.14,59.69a.64.64,0,0,0-.19-.08.36.36,0,0,0-.25.06l0,0A.35.35,0,0,1,96,59.6.26.26,0,0,1,96.14,59.69Z" transform="translate(0 0)" fill="#fcfcfc"/><path d="M97.12,57.77s-.05,0,0,0v0c-.07.06-.06.16-.12.23s0,.06,0,.08a.34.34,0,0,1,0-.1s0,0,0-.05,0,0,0,0,0,0,0,0a.31.31,0,0,1,.11-.18h0S97.13,57.76,97.12,57.77Z" transform="translate(0 0)" fill="#fcfcfc"/><path d="M97.22,61.24s0,0,0,0v-.38s0,0,0,0H97a.69.69,0,0,1,.2,0s0,0,0,0Z" transform="translate(0 0)" fill="#fcfcfc"/><path d="M91.75,57.81l-.14.12a.31.31,0,0,0-.1.15s0,0,0,0a0,0,0,0,1,0,0l0,0a.58.58,0,0,1,.24-.25Z" transform="translate(0 0)" fill="#fcfcfc"/><path d="M89,59.5s0,0,0,0a1,1,0,0,0,.21.29s0,0,0,0A.91.91,0,0,1,89,59.5Z" transform="translate(0 0)" fill="#fefefe"/><path d="M100.35,57.31s-.1,0-.14,0-.06,0-.08,0h0s0,0-.06,0h0c-.06,0-.09,0-.14,0h0s0,0,0,0,0,0,0,0h0s.09,0,.14,0S100.27,57.31,100.35,57.31Z" transform="translate(0 0)" fill="#fcfcfc"/><path d="M99.36,58a1.34,1.34,0,0,0-.07.4.53.53,0,0,1,0,.12s0-.06,0-.1a.71.71,0,0,1,0-.14s0,0,0,0h0v0s0,0,0-.06,0-.09,0-.14S99.35,57.94,99.36,58Z" transform="translate(0 0)" fill="#fcfcfc"/><path d="M103.89,59.26v0a1,1,0,0,0,0-.24h0a.38.38,0,0,1,0-.15v-.11a0,0,0,0,1,0,0,.14.14,0,0,0,0,.07v0c0,.14,0,.26,0,.4s0,0,0,0Z" transform="translate(0 0)" fill="#fcfcfc"/><path d="M90.32,58.51v0a.07.07,0,0,1,0-.05c0-.07,0-.14,0-.21s0,0,0,0h0a0,0,0,0,1,0,0s0,.06,0,.09S90.3,58.46,90.32,58.51Z" transform="translate(0 0)" fill="#fefefe"/><path d="M90.73,57.75l-.18.14a.61.61,0,0,0-.12.16.2.2,0,0,1,.06-.12s0,0,.06-.06l.15-.12Z" transform="translate(0 0)" fill="#fcfcfc"/><path d="M99.67,59.08l.13.08s.1.05.15.09-.15-.07-.22-.11,0,0-.06,0S99.66,59.09,99.67,59.08Z" transform="translate(0 0)" fill="#fcfcfc"/><path d="M92,59.4a.38.38,0,0,1,.15,0s0,0,.05,0,0,0,0,0,.1,0,.15,0v0s-.07.05-.11,0a.06.06,0,0,0-.06,0s-.05,0-.08,0Z" transform="translate(0 0)" fill="#fcfcfc"/><path d="M94.51,55.61h0a1.37,1.37,0,0,0-.35.08s0,0,0,0l.22-.06h.1S94.49,55.56,94.51,55.61Z" transform="translate(0 0)" fill="#fcfcfc"/><path d="M96.41,52.74h0a.06.06,0,0,1,0,0v-.52s0,0,0,.05v.45S96.39,52.73,96.41,52.74Z" transform="translate(0 0)" fill="#fcfcfc"/><path d="M89.46,58.22a.93.93,0,0,0-.26.18l0,0a.29.29,0,0,1,.11-.11s.09-.05.13-.09Z" transform="translate(0 0)" fill="#fcfcfc"/><path d="M96.21,60.09a.37.37,0,0,0,0-.34A.27.27,0,0,1,96.21,60.09Z" transform="translate(0 0)" fill="#fcfcfc"/><path d="M105.18,58.14a1.29,1.29,0,0,0-.05-.21h0a.68.68,0,0,1,.07.23S105.19,58.15,105.18,58.14Z" transform="translate(0 0)" fill="#fcfcfc"/><path d="M94.4,58.56h0c0,.06,0,.1,0,.15a.29.29,0,0,0,.09.16,0,0,0,0,1,0,0c-.06,0-.07-.08-.09-.12s0-.1,0-.14S94.41,58.59,94.4,58.56Z" transform="translate(0 0)" fill="#fcfcfc"/><path d="M104.12,57.31s-.08,0-.12,0-.06,0-.07,0h0s-.09,0-.14,0v0s.06,0,.1,0,0,0,.07,0,0,0,0,0Z" transform="translate(0 0)" fill="#fcfcfc"/><path d="M93.55,59.16a.23.23,0,0,0,.1-.07l.16-.16c0,.06-.06.08-.09.11l-.1.09S93.58,59.16,93.55,59.16Z" transform="translate(0 0)" fill="#fcfcfc"/><path d="M94.94,61.4V61s0,0,0,0a.13.13,0,0,0,0,.06v.31S95,61.39,94.94,61.4Z" transform="translate(0 0)" fill="#fcfcfc"/><path d="M90.2,58.71v0h-.38s0,0,0,0,0,0,0,0h.24S90.16,58.75,90.2,58.71Z" transform="translate(0 0)" fill="#8be6f3"/><path d="M98.87,61c0,.09,0,.19,0,.29s0,.11,0,.16a0,0,0,0,1,0,0V61S98.86,61,98.87,61Z" transform="translate(0 0)" fill="#fcfcfc"/><path d="M95.61,59.75a.37.37,0,0,0,0,.29h0a.43.43,0,0,1,0-.16A.2.2,0,0,1,95.61,59.75Z" transform="translate(0 0)" fill="#fcfcfc"/><path d="M88.88,59.27a.49.49,0,0,1,.08.23s0-.1-.06-.15l0,0Z" transform="translate(0 0)" fill="#fcfcfc"/><path d="M91.42,58.28a.05.05,0,0,0,0,0,1.09,1.09,0,0,0,0,.18.15.15,0,0,1,0,.07.91.91,0,0,0,0-.23s0-.05,0-.06h0Z" transform="translate(0 0)" fill="#fcfcfc"/><path d="M89.66,58.85a.24.24,0,0,1,.08-.06h0C89.74,58.85,89.72,58.86,89.66,58.85Z" transform="translate(0 0)" fill="#fefefe"/><path d="M97.43,60s.1,0,.15,0a0,0,0,0,1-.07,0S97.43,60.08,97.43,60Z" transform="translate(0 0)" fill="#fefefe"/><path d="M89.81,58.76h.37a.05.05,0,0,1-.05,0Z" transform="translate(0 0)" fill="#fcfcfc"/><path d="M100,58.44c0-.08-.06-.16,0-.24v0s0,0,0,0a1.1,1.1,0,0,0,0,.18Z" transform="translate(0 0)" fill="#fcfcfc"/><path d="M90.27,59.32c0,.07-.08.09-.13.11S90.23,59.36,90.27,59.32Z" transform="translate(0 0)" fill="#fefefe"/><path d="M99.57,61.4V61a.2.2,0,0,1,0,.07v.25A.06.06,0,0,1,99.57,61.4Z" transform="translate(0 0)" fill="#fcfcfc"/><path d="M97.42,57.45s-.08.07-.13.11A.2.2,0,0,1,97.42,57.45Z" transform="translate(0 0)" fill="#fefefe"/><path d="M90.89,59.58s0-.07.06-.11a.14.14,0,0,1,0-.06s0,0,0,0-.05.09-.06.13S90.92,59.58,90.89,59.58Z" transform="translate(0 0)" fill="#fefefe"/><path d="M91.56,59.25a.1.1,0,0,0,0,0s.08,0,.11-.08-.06.06-.08.08S91.6,59.26,91.56,59.25Z" transform="translate(0 0)" fill="#fefefe"/><path d="M97,59.75a1.42,1.42,0,0,0,.13.12C97.09,59.85,97.05,59.81,97,59.75Z" transform="translate(0 0)" fill="#fcfcfc"/><path d="M94.32,56.77a0,0,0,0,1,0,0s0,0,0,0,0,0,0,0A0,0,0,0,1,94.32,56.77Z" transform="translate(0 0)" fill="#fefefe"/><path d="M96.55,58.3s0,0,0-.07a.43.43,0,0,1,0-.11s0,0,0,0a0,0,0,0,1,0,0C96.52,58.18,96.55,58.24,96.55,58.3Z" transform="translate(0 0)" fill="#fcfcfc"/><path d="M99.54,57.67c0,.07-.09.11-.12.18v0a.57.57,0,0,1,.11-.16Z" transform="translate(0 0)" fill="#fcfcfc"/><path d="M100,58.2a.25.25,0,0,1,.08-.14h0s0,0,0,0S100,58.16,100,58.2Z" transform="translate(0 0)" fill="#fcfcfc"/><path d="M93,59.37h.16A.15.15,0,0,1,93,59.37Z" transform="translate(0 0)" fill="#fefefe"/><path d="M99,58.56s0-.06,0-.09S99.1,58.54,99,58.56Z" transform="translate(0 0)" fill="#fefefe"/><path d="M101.08,57.58s0-.06-.09-.07,0,0,0,0A.09.09,0,0,1,101.08,57.58Z" transform="translate(0 0)" fill="#fefefe"/><path d="M93.86,58.85v0c.06,0,.06-.08.07-.13h0v.09s0,0,0,0l0,0Z" transform="translate(0 0)" fill="#fcfcfc"/><path d="M99.15,61.11c0,.08,0,.15,0,.23v.06a.17.17,0,0,1,0-.1Z" transform="translate(0 0)" fill="#fcfcfc"/><path d="M100.12,59.29s0,0,0,0,.06,0,.09,0h0a.13.13,0,0,1-.12,0s0,0-.06,0,0,0,0,0Z" transform="translate(0 0)" fill="#fcfcfc"/><path d="M92,59.4h.2a0,0,0,0,1-.05,0,.29.29,0,0,0-.16,0Z" transform="translate(0 0)" fill="#fefefe"/><path d="M100.13,59.32h.12S100.16,59.38,100.13,59.32Z" transform="translate(0 0)" fill="#fefefe"/><path d="M96.47,58.08a.5.5,0,0,0,0-.13s.07.07.07.13S96.47,58.09,96.47,58.08Z" transform="translate(0 0)" fill="#fcfcfc"/><path d="M95.05,60.79a.38.38,0,0,0-.15,0h-.13a.81.81,0,0,1,.22,0S95,60.76,95.05,60.79Z" transform="translate(0 0)" fill="#fcfcfc"/><path d="M100.77,60.05h.12S100.81,60.09,100.77,60.05Z" transform="translate(0 0)" fill="#fefefe"/><path d="M97.6,58.58s0-.08,0-.1v.1Z" transform="translate(0 0)" fill="#fcfcfc"/><path d="M100.15,58.61c-.05,0-.06,0-.09-.06S100.13,58.57,100.15,58.61Z" transform="translate(0 0)" fill="#fefefe"/><path d="M94,56.83h-.13A.11.11,0,0,1,94,56.83Z" transform="translate(0 0)" fill="#fefefe"/><path d="M99,58.11V58s0,0,0,0S99.06,58.11,99,58.11Z" transform="translate(0 0)" fill="#fefefe"/><path d="M105.1,57.88s0,0,0,0-.06-.08-.09-.13A.18.18,0,0,1,105.1,57.88Z" transform="translate(0 0)" fill="#fcfcfc"/><path d="M104.28,59.32h.11S104.31,59.36,104.28,59.32Z" transform="translate(0 0)" fill="#fefefe"/><path d="M94.22,61.3h0Z" transform="translate(0 0)" fill="#fefefe"/><path d="M92.76,61.3h0Z" transform="translate(0 0)" fill="#fefefe"/><path d="M94.46,60.78a.65.65,0,0,0-.24,0v0h.23Z" transform="translate(0 0)" fill="#fcfcfc"/><path d="M96.4,57.91a.58.58,0,0,0-.1-.12s0,0,.06,0S96.41,57.87,96.4,57.91Z" transform="translate(0 0)" fill="#fcfcfc"/><path d="M103.57,57.45s0,.07-.09.07S103.52,57.45,103.57,57.45Z" transform="translate(0 0)" fill="#fefefe"/><path d="M96.06,60.78h-.23A.59.59,0,0,1,96.06,60.78Z" transform="translate(0 0)" fill="#fcfcfc"/><path d="M99.32,58.47l0,.18a.25.25,0,0,1,0-.13A.11.11,0,0,1,99.32,58.47Z" transform="translate(0 0)" fill="#fcfcfc"/><path d="M100,58.44h0s0,.06,0,.06,0,0,0,0h0v0l0,0S100,58.48,100,58.44Z" transform="translate(0 0)" fill="#ac9fc5"/><path d="M100.12,59.29H100s0,0,0,0S100.06,59.28,100.12,59.29Z" transform="translate(0 0)" fill="#a597c1"/><path d="M95.83,61.3h0Z" transform="translate(0 0)" fill="#fefefe"/><path d="M94.65,55.63a.2.2,0,0,0-.13,0h0a.17.17,0,0,1,.12,0A0,0,0,0,1,94.65,55.63Z" transform="translate(0 0)" fill="#fcfcfc"/><path d="M104.86,59.05h0a.13.13,0,0,1-.09.07.05.05,0,0,0,0,0h0a0,0,0,0,0,0,0Z" transform="translate(0 0)" fill="#fefefe"/><path d="M98.13,59.32h.1S98.17,59.36,98.13,59.32Z" transform="translate(0 0)" fill="#fefefe"/><path d="M90.34,58.25h0s0-.06,0-.09,0,0,0,0,0,.1,0,.14Z" transform="translate(0 0)" fill="#fcfcfc"/><path d="M91.47,58.12c0,.05,0,.11,0,.16h0s0,0,0,0S91.43,58.15,91.47,58.12Z" transform="translate(0 0)" fill="#fcfcfc"/><path d="M89.73,59.39h0l0,0S89.73,59.33,89.73,59.39Z" transform="translate(0 0)" fill="#fefefe"/><path d="M96.59,60.78h0Z" transform="translate(0 0)" fill="#fcfcfc"/><path d="M89.17,58.42a.94.94,0,0,1-.09.12A.18.18,0,0,1,89.17,58.42Z" transform="translate(0 0)" fill="#fcfcfc"/><path d="M102.18,57.43c-.05,0-.08,0-.12,0a.13.13,0,0,1,.12-.05Z" transform="translate(0 0)" fill="#fefefe"/><path d="M93.66,56a.31.31,0,0,1-.11.09A.48.48,0,0,1,93.66,56Z" transform="translate(0 0)" fill="#fcfcfc"/><path d="M98.31,58.54s0,.06-.1.07A.17.17,0,0,1,98.31,58.54Z" transform="translate(0 0)" fill="#fefefe"/><path d="M89.23,59.85s.09,0,.12.08S89.26,59.9,89.23,59.85Z" transform="translate(0 0)" fill="#fefefe"/><path d="M91.05,59.41h.18A.28.28,0,0,1,91.05,59.41Z" transform="translate(0 0)" fill="#fefefe"/><path d="M104.43,58.05v0s-.06,0-.07-.06S104.4,58.06,104.43,58.05Z" transform="translate(0 0)" fill="#fefefe"/><path d="M93,56.55l-.1.08C92.89,56.58,92.93,56.57,93,56.55Z" transform="translate(0 0)" fill="#fcfcfc"/><path d="M96.29,57.77a.94.94,0,0,0-.1-.1S96.29,57.73,96.29,57.77Z" transform="translate(0 0)" fill="#fcfcfc"/><path d="M97.2,57.66a.21.21,0,0,0-.06.08h0s0,0,0-.05A0,0,0,0,1,97.2,57.66Z" transform="translate(0 0)" fill="#fcfcfc"/><path d="M91.34,58.64s-.06,0-.09.07S91.31,58.66,91.34,58.64Z" transform="translate(0 0)" fill="#fcfcfc"/><path d="M90.81,59.68s.06,0,.07-.09,0,.06,0,.07,0,0,0,0Z" transform="translate(0 0)" fill="#fefefe"/><path d="M100.18,58s0,0,.06,0S100.21,58,100.18,58Z" transform="translate(0 0)" fill="#fefefe"/><path d="M104.9,57.58a.09.09,0,0,1-.05,0S104.88,57.52,104.9,57.58Z" transform="translate(0 0)" fill="#fefefe"/><path d="M94.93,55.75s0,0-.07,0,0,0,0,0S94.93,55.69,94.93,55.75Z" transform="translate(0 0)" fill="#fcfcfc"/><path d="M97.53,61.4v-.15A.26.26,0,0,1,97.53,61.4Z" transform="translate(0 0)" fill="#fcfcfc"/><path d="M104.39,59.31s0,0,.07,0S104.42,59.32,104.39,59.31Z" transform="translate(0 0)" fill="#fefefe"/><path d="M95.73,57.4h-.08S95.7,57.37,95.73,57.4Z" transform="translate(0 0)" fill="#fefefe"/><path d="M97.17,49.36l-.06,0S97.17,49.31,97.17,49.36Z" transform="translate(0 0)" fill="#fefefe"/><path d="M95.9,57.46s-.06,0-.08,0S95.87,57.42,95.9,57.46Z" transform="translate(0 0)" fill="#fefefe"/><path d="M93.81,58.94l.06-.09A.11.11,0,0,1,93.81,58.94Z" transform="translate(0 0)" fill="#fcfcfc"/><path d="M104.4,58.58s0,0-.05,0S104.38,58.58,104.4,58.58Z" transform="translate(0 0)" fill="#fefefe"/><path d="M101.17,59.93s0-.06.06-.06S101.19,59.91,101.17,59.93Z" transform="translate(0 0)" fill="#fefefe"/><path d="M88.88,58.91V59S88.85,58.94,88.88,58.91Z" transform="translate(0 0)" fill="#fefefe"/><path d="M91.87,57.74l-.08,0S91.83,57.74,91.87,57.74Z" transform="translate(0 0)" fill="#fcfcfc"/><path d="M100.6,58s0,0,.05,0S100.61,58,100.6,58Z" transform="translate(0 0)" fill="#fefefe"/><path d="M99.43,58.83l0,.06S99.43,58.86,99.43,58.83Z" transform="translate(0 0)" fill="#fefefe"/><path d="M90.55,57.87s0,0-.06.06S90.52,57.89,90.55,57.87Z" transform="translate(0 0)" fill="#fefefe"/><path d="M103.32,57.52s0,0,0,0S103.31,57.5,103.32,57.52Z" transform="translate(0 0)" fill="#fefefe"/><path d="M99.9,57.39v0s0,0,0,0S99.86,57.37,99.9,57.39Z" transform="translate(0 0)" fill="#fefefe"/><path d="M90,60.13h.13A.15.15,0,0,1,90,60.13Z" transform="translate(0 0)" fill="#fefefe"/><path d="M98.24,59.31s0,0,.05,0S98.26,59.31,98.24,59.31Z" transform="translate(0 0)" fill="#fefefe"/><path d="M93.71,56.82a.12.12,0,0,1,.07,0S93.74,56.82,93.71,56.82Z" transform="translate(0 0)" fill="#fcfcfc"/><path d="M92.86,56.63a.13.13,0,0,1-.07.06A.11.11,0,0,1,92.86,56.63Z" transform="translate(0 0)" fill="#fcfcfc"/><path d="M96.56,58.44v-.12A.24.24,0,0,1,96.56,58.44Z" transform="translate(0 0)" fill="#fefefe"/><path d="M94.84,55.93s0,0,.06,0A.07.07,0,0,1,94.84,55.93Z" transform="translate(0 0)" fill="#fcfcfc"/><path d="M94.85,55.7s0,0-.07,0S94.84,55.65,94.85,55.7Z" transform="translate(0 0)" fill="#fcfcfc"/><path d="M99.4,57.89s0,0,0,0h0l0,0S99.39,57.88,99.4,57.89Z" transform="translate(0 0)" fill="#9b8bba"/><path d="M94.72,59.13s.06,0,.06,0S94.73,59.16,94.72,59.13Z" transform="translate(0 0)" fill="#fefefe"/><path d="M94.2,56.43l.07,0A.07.07,0,0,1,94.2,56.43Z" transform="translate(0 0)" fill="#fcfcfc"/><path d="M98.93,57.83s0-.06-.05-.07S98.93,57.8,98.93,57.83Z" transform="translate(0 0)" fill="#fcfcfc"/><path d="M100.6,58.67s-.06,0-.09,0S100.57,58.64,100.6,58.67Z" transform="translate(0 0)" fill="#fefefe"/><path d="M92.41,57s0,0,0,.07S92.35,57,92.41,57Z" transform="translate(0 0)" fill="#fcfcfc"/><path d="M97.3,49.76v-.12A.24.24,0,0,1,97.3,49.76Z" transform="translate(0 0)" fill="#fcfcfc"/><path d="M99,58.65s0-.06,0-.08S99,58.63,99,58.65Z" transform="translate(0 0)" fill="#fcfcfc"/><path d="M103.77,58.18s0,0,0-.07S103.82,58.17,103.77,58.18Z" transform="translate(0 0)" fill="#fefefe"/><path d="M100.53,58s0,0,0,0S100.54,58,100.53,58Z" transform="translate(0 0)" fill="#fefefe"/><path d="M95.72,60.23a.19.19,0,0,1,.08,0A.11.11,0,0,1,95.72,60.23Z" transform="translate(0 0)" fill="#fcfcfc"/><path d="M100,59.27h0s0,0-.06,0A0,0,0,0,1,100,59.27Z" transform="translate(0 0)" fill="#fefefe"/><path d="M94.76,55.65s-.06,0-.07,0S94.75,55.61,94.76,55.65Z" transform="translate(0 0)" fill="#fcfcfc"/><path d="M95.16,58.67s0-.06,0-.08S95.15,58.65,95.16,58.67Z" transform="translate(0 0)" fill="#fcfcfc"/><path d="M96.14,60.18l0,0h0S96.17,60.2,96.14,60.18Z" transform="translate(0 0)" fill="#fefefe"/><path d="M95,55.83s0,0,0-.07S95,55.79,95,55.83Z" transform="translate(0 0)" fill="#fcfcfc"/><path d="M96.28,59.06l0,0S96.31,59.06,96.28,59.06Z" transform="translate(0 0)" fill="#fcfcfc"/><path d="M95.46,50.64v.11A.11.11,0,0,1,95.46,50.64Z" transform="translate(0 0)" fill="#fefefe"/><path d="M102,57.48l0,0C102,57.47,102,57.47,102,57.48Z" transform="translate(0 0)" fill="#fefefe"/><path d="M92.76,59s0,0,0-.05S92.79,59,92.76,59Z" transform="translate(0 0)" fill="#fefefe"/><path d="M91.38,58.57a.2.2,0,0,1,0,.08S91.35,58.58,91.38,58.57Z" transform="translate(0 0)" fill="#fcfcfc"/><path d="M99.78,57.45s0,0,0,0S99.75,57.43,99.78,57.45Z" transform="translate(0 0)" fill="#fefefe"/><path d="M105.18,58.14s0,0,0,0v0S105.18,58.16,105.18,58.14Z" transform="translate(0 0)" fill="#9483b5"/><path d="M96.18,57.66s0,0-.06,0S96.18,57.61,96.18,57.66Z" transform="translate(0 0)" fill="#fcfcfc"/><path d="M91,57.65h0S91,57.62,91,57.65Z" transform="translate(0 0)" fill="#fefefe"/><path d="M93.55,56.09l-.06,0S93.52,56.09,93.55,56.09Z" transform="translate(0 0)" fill="#fcfcfc"/><path d="M89.77,58.79h0s.05,0,.06,0h0S89.79,58.79,89.77,58.79Z" transform="translate(0 0)" fill="#fcfcfc"/><path d="M98.25,58.05a0,0,0,0,1,0,0A0,0,0,0,1,98.25,58.05Z" transform="translate(0 0)" fill="#fefefe"/><path d="M93.11,56.44l-.06,0A.07.07,0,0,1,93.11,56.44Z" transform="translate(0 0)" fill="#fcfcfc"/><path d="M93,56.49a.1.1,0,0,1-.06,0S93,56.49,93,56.49Z" transform="translate(0 0)" fill="#fcfcfc"/><path d="M94.52,56.18h0a0,0,0,0,1,0,0s0,0,0,0S94.51,56.19,94.52,56.18Z" transform="translate(0 0)" fill="#fefefe"/><path d="M93.24,56.33l-.06.05A.1.1,0,0,1,93.24,56.33Z" transform="translate(0 0)" fill="#fcfcfc"/><path d="M92.53,56.89s0,0,0,0A.05.05,0,0,1,92.53,56.89Z" transform="translate(0 0)" fill="#fcfcfc"/><path d="M93.29,56.29a.05.05,0,0,1-.05,0A.1.1,0,0,1,93.29,56.29Z" transform="translate(0 0)" fill="#fcfcfc"/><path d="M94.35,56.31s0,0,.06,0A.05.05,0,0,1,94.35,56.31Z" transform="translate(0 0)" fill="#fcfcfc"/><path d="M94.9,55.89s0,0,.06,0A.08.08,0,0,1,94.9,55.89Z" transform="translate(0 0)" fill="#fcfcfc"/><path d="M93.92,55.8a.1.1,0,0,1,0,0A.05.05,0,0,1,93.92,55.8Z" transform="translate(0 0)" fill="#fcfcfc"/><path d="M92.79,56.69l-.06,0A.07.07,0,0,1,92.79,56.69Z" transform="translate(0 0)" fill="#fcfcfc"/><path d="M94.05,55.71s0,0-.07,0S94,55.72,94.05,55.71Z" transform="translate(0 0)" fill="#fcfcfc"/><path d="M94,56.57s0,0,.06,0S94.06,56.56,94,56.57Z" transform="translate(0 0)" fill="#fcfcfc"/><path d="M98.63,59.15s0,0,0,0S98.66,59.15,98.63,59.15Z" transform="translate(0 0)" fill="#fefefe"/><path d="M97,58l0,.05S97,58,97,58Z" transform="translate(0 0)" fill="#fefefe"/><path d="M94.66,56.07l.06,0A.07.07,0,0,1,94.66,56.07Z" transform="translate(0 0)" fill="#fcfcfc"/><path d="M100.06,58.09v0h0S100.08,58.09,100.06,58.09Z" transform="translate(0 0)" fill="#fefefe"/><path d="M98.35,59.27h.05S98.37,59.3,98.35,59.27Z" transform="translate(0 0)" fill="#fefefe"/><path d="M101.64,58.63l0,0s0,0,0,0S101.62,58.64,101.64,58.63Z" transform="translate(0 0)" fill="#fefefe"/><path d="M98.92,58.84a.14.14,0,0,1,0-.06S99,58.83,98.92,58.84Z" transform="translate(0 0)" fill="#fcfcfc"/><path d="M97.75,59.23a.08.08,0,0,1,0,0S97.73,59.23,97.75,59.23Z" transform="translate(0 0)" fill="#fefefe"/><path d="M90.3,59.28s0,0,0,0S90.27,59.28,90.3,59.28Z" transform="translate(0 0)" fill="#fefefe"/><path d="M96.86,49.2h-.09A.14.14,0,0,1,96.86,49.2Z" transform="translate(0 0)" fill="#fcfcfc"/><path d="M94,55.75a.07.07,0,0,1,0,0S94,55.75,94,55.75Z" transform="translate(0 0)" fill="#fcfcfc"/><path d="M93.85,55.86s0,0-.06,0S93.82,55.86,93.85,55.86Z" transform="translate(0 0)" fill="#fcfcfc"/><path d="M93.79,55.91s0,0-.06,0S93.76,55.91,93.79,55.91Z" transform="translate(0 0)" fill="#fcfcfc"/><path d="M94.56,56.17h0s0,0,.06,0S94.57,56.16,94.56,56.17Z" transform="translate(0 0)" fill="#fcfcfc"/><path d="M96.19,60.15h0l0-.06S96.2,60.13,96.19,60.15Z" transform="translate(0 0)" fill="#fcfcfc"/><path d="M93.84,56.71s0,0,.07,0A.1.1,0,0,1,93.84,56.71Z" transform="translate(0 0)" fill="#fcfcfc"/><path d="M89.79,60.14h.09A.08.08,0,0,1,89.79,60.14Z" transform="translate(0 0)" fill="#fefefe"/><path d="M91.83,59.4h.06S91.85,59.43,91.83,59.4Z" transform="translate(0 0)" fill="#fefefe"/><path d="M96,60.26l.07,0A.09.09,0,0,1,96,60.26Z" transform="translate(0 0)" fill="#fcfcfc"/><path d="M92.45,57.13s0,0,0,0A.12.12,0,0,1,92.45,57.13Z" transform="translate(0 0)" fill="#fcfcfc"/><path d="M99.73,57.48s0,0,0,0S99.71,57.48,99.73,57.48Z" transform="translate(0 0)" fill="#fefefe"/><path d="M99.54,57.67h0s0-.06,0,0S99.53,57.65,99.54,57.67Z" transform="translate(0 0)" fill="#fefefe"/><path d="M104.73,59.18s0,0,0,0S104.76,59.18,104.73,59.18Z" transform="translate(0 0)" fill="#fefefe"/><path d="M94.52,56.18v0s0,0,0,0Z" transform="translate(0 0)" fill="#fcfcfc"/><path d="M93.48,56.15a.1.1,0,0,1,0,0S93.45,56.15,93.48,56.15Z" transform="translate(0 0)" fill="#fcfcfc"/><path d="M93.16,56.4a.1.1,0,0,1,0,0S93.13,56.4,93.16,56.4Z" transform="translate(0 0)" fill="#fcfcfc"/><path d="M94.6,56.12l.05,0S94.63,56.12,94.6,56.12Z" transform="translate(0 0)" fill="#fcfcfc"/><path d="M94.15,56.47l.06,0S94.18,56.47,94.15,56.47Z" transform="translate(0 0)" fill="#fcfcfc"/><path d="M94.73,56a.1.1,0,0,1,0,0S94.76,56,94.73,56Z" transform="translate(0 0)" fill="#fcfcfc"/><path d="M94.1,56.52a.12.12,0,0,1,.05-.05S94.12,56.52,94.1,56.52Z" transform="translate(0 0)" fill="#fcfcfc"/><path d="M93.72,56a.07.07,0,0,1,0,0Z" transform="translate(0 0)" fill="#fcfcfc"/><path d="M95,57.3s0,0,0,0S95.05,57.27,95,57.3Z" transform="translate(0 0)" fill="#fcfcfc"/><path d="M94.79,56a.11.11,0,0,1,0,0A.07.07,0,0,1,94.79,56Z" transform="translate(0 0)" fill="#fcfcfc"/><path d="M100.65,58.06s0,0,0,0A.05.05,0,0,1,100.65,58.06Z" transform="translate(0 0)" fill="#fefefe"/><path d="M94,56.61l0,0S94,56.61,94,56.61Z" transform="translate(0 0)" fill="#fcfcfc"/><path d="M95.57,60a.14.14,0,0,1,0,.06s0,0,0,0a0,0,0,0,1,0,0Z" transform="translate(0 0)" fill="#fcfcfc"/><path d="M91.17,58.74h-.08A.11.11,0,0,1,91.17,58.74Z" transform="translate(0 0)" fill="#fefefe"/><path d="M90.43,58.05s0,0,0,.06A.07.07,0,0,1,90.43,58.05Z" transform="translate(0 0)" fill="#fcfcfc"/><path d="M100.11,58.05s0,0,0,0S100.13,58.05,100.11,58.05Z" transform="translate(0 0)" fill="#fefefe"/><path d="M98.94,58.78s0-.05,0-.07,0,0,0,0S99,58.77,98.94,58.78Z" transform="translate(0 0)" fill="#fcfcfc"/><path d="M101,61V60.9A.09.09,0,0,1,101,61Z" transform="translate(0 0)" fill="#fcfcfc"/><path d="M95.34,55.18s0,0,0,0A.06.06,0,0,1,95.34,55.18Z" transform="translate(0 0)" fill="#aaacde"/><path d="M96.47,58.08h0v0S96.46,58.1,96.47,58.08Z" transform="translate(0 0)" fill="#90e7f3"/><path d="M89.83,59.45s0,0,0,0S89.83,59.43,89.83,59.45Z" transform="translate(0 0)" fill="#fefefe"/><path d="M93.66,56.86a.07.07,0,0,1,0,0S93.69,56.86,93.66,56.86Z" transform="translate(0 0)" fill="#fcfcfc"/><path d="M100,59.27H100v0h0S100,59.25,100,59.27Z" transform="translate(0 0)" fill="#fcfcfc"/><path d="M92.6,56.84l0,0S92.57,56.84,92.6,56.84Z" transform="translate(0 0)" fill="#fcfcfc"/><path d="M95.2,58.7s0,0,0,0S95.2,58.67,95.2,58.7Z" transform="translate(0 0)" fill="#fcfcfc"/><path d="M92.48,56.94a.05.05,0,0,1,0,0S92.46,57,92.48,56.94Z" transform="translate(0 0)" fill="#86e5f3"/><path d="M92.39,57.06a.1.1,0,0,1,0,0S92.39,57.09,92.39,57.06Z" transform="translate(0 0)" fill="#fcfcfc"/><path d="M95,57.26l0-.06S95,57.23,95,57.26Z" transform="translate(0 0)" fill="#fcfcfc"/><path d="M95.71,51h.08A.06.06,0,0,1,95.71,51Z" transform="translate(0 0)" fill="#fcfcfc"/><path d="M92.67,56.78s0,0,0,0S92.65,56.78,92.67,56.78Z" transform="translate(0 0)" fill="#fcfcfc"/><path d="M99.86,61.41h.08A.06.06,0,0,1,99.86,61.41Z" transform="translate(0 0)" fill="#fcfcfc"/><path d="M92.85,58.92v0h0c.05,0,0,0,0,0Z" transform="translate(0 0)" fill="#fefefe"/><path d="M95.64,59.7a.06.06,0,0,1,0,0S95.63,59.72,95.64,59.7Z" transform="translate(0 0)" fill="#fcfcfc"/><path d="M93.35,56.25a.07.07,0,0,1,0,0A.07.07,0,0,1,93.35,56.25Z" transform="translate(0 0)" fill="#fcfcfc"/><path d="M96.06,49V49A.08.08,0,0,1,96.06,49Z" transform="translate(0 0)" fill="#fcfcfc"/><path d="M95.5,56a.05.05,0,0,1,0,0S95.49,56,95.5,56Z" transform="translate(0 0)" fill="#fefefe"/><path d="M99.28,58.19v0S99.25,58.2,99.28,58.19Z" transform="translate(0 0)" fill="#fefefe"/><path d="M97,57.92s0,0,0,0S97,57.92,97,57.92Z" transform="translate(0 0)" fill="#fefefe"/><path d="M104.5,58.38s0,0,0,0S104.49,58.4,104.5,58.38Z" transform="translate(0 0)" fill="#fefefe"/><path d="M101.35,57.92s0,0,0,0S101.36,57.9,101.35,57.92Z" transform="translate(0 0)" fill="#fefefe"/><path d="M94.11,55.69a.07.07,0,0,1-.06,0l0,0Z" transform="translate(0 0)" fill="#fcfcfc"/><path d="M99.05,58.46a.06.06,0,0,1,0,0S99.08,58.45,99.05,58.46Z" transform="translate(0 0)" fill="#fefefe"/><path d="M99.4,57.89h0s0,0,0,0,0,0,0,0Z" transform="translate(0 0)" fill="#fefefe"/><path d="M98.34,58.46s0,0,0,0S98.33,58.47,98.34,58.46Z" transform="translate(0 0)" fill="#fefefe"/><path d="M96.18,59.2s0,0,0,0S96.2,59.2,96.18,59.2Z" transform="translate(0 0)" fill="#fefefe"/><path d="M94.78,59.18a0,0,0,0,1,0,0A0,0,0,0,1,94.78,59.18Z" transform="translate(0 0)" fill="#fefefe"/><path d="M103.82,58.08s0,0,0,0A0,0,0,0,1,103.82,58.08Z" transform="translate(0 0)" fill="#fefefe"/><path d="M96,57.52s0,0,0,0S96,57.51,96,57.52Z" transform="translate(0 0)" fill="#fefefe"/><path d="M103.67,57.4s0,0,0,0A0,0,0,0,1,103.67,57.4Z" transform="translate(0 0)" fill="#fefefe"/><path d="M104.28,58.66s0,0,0,0Z" transform="translate(0 0)" fill="#fefefe"/><path d="M92.71,56.75s0,0,0,0S92.69,56.75,92.71,56.75Z" transform="translate(0 0)" fill="#fcfcfc"/><path d="M93.88,58.85s0,0,0,0S93.89,58.85,93.88,58.85Z" transform="translate(0 0)" fill="#fefefe"/><path d="M98.77,61.21v-.07A.08.08,0,0,1,98.77,61.21Z" transform="translate(0 0)" fill="#fcfcfc"/><path d="M104.5,59.27h0S104.51,59.28,104.5,59.27Z" transform="translate(0 0)" fill="#fefefe"/><path d="M101.63,61.21v-.07A.08.08,0,0,1,101.63,61.21Z" transform="translate(0 0)" fill="#fcfcfc"/><path d="M96.42,50.66v.07A.08.08,0,0,1,96.42,50.66Z" transform="translate(0 0)" fill="#fcfcfc"/><path d="M97.28,49.82s0,0,0,0S97.29,49.81,97.28,49.82Z" transform="translate(0 0)" fill="#fed8a4"/><path d="M99.54,54.84s0,0,0,0S99.56,54.84,99.54,54.84Z" transform="translate(0 0)" fill="#fcfcfc"/><path d="M98.82,57.64s0,0,0,0Z" transform="translate(0 0)" fill="#fefefe"/><path d="M91.75,59.1l0,0A0,0,0,0,1,91.75,59.1Z" transform="translate(0 0)" fill="#fefefe"/><path d="M99.37,55.72s0,0,0,0S99.39,55.72,99.37,55.72Z" transform="translate(0 0)" fill="#fcfcfc"/><path d="M91.72,59.13l0,0A0,0,0,0,1,91.72,59.13Z" transform="translate(0 0)" fill="#fefefe"/><path d="M94.69,55.63s0,0,0,0S94.68,55.59,94.69,55.63Z" transform="translate(0 0)" fill="#fcfcfc"/><path d="M94.45,55.6h0S94.43,55.58,94.45,55.6Z" transform="translate(0 0)" fill="#fefefe"/><path d="M102.44,57.3s0,0,0,0S102.42,57.31,102.44,57.3Z" transform="translate(0 0)" fill="#fefefe"/><path d="M95.18,54.31s0,0,0,0S95.18,54.32,95.18,54.31Z" transform="translate(0 0)" fill="#fcfcfc"/><path d="M97.81,58.66s0,0,0,0S97.79,58.64,97.81,58.66Z" transform="translate(0 0)" fill="#fefefe"/><path d="M97.31,51.81s0,0,0,0A0,0,0,0,1,97.31,51.81Z" transform="translate(0 0)" fill="#fefefe"/><path d="M96.2,59.75s0,0,0,0S96.2,59.73,96.2,59.75Z" transform="translate(0 0)" fill="#fcfcfc"/><path d="M96.36,51.19h-.07S96.33,51.19,96.36,51.19Z" transform="translate(0 0)" fill="#fcfcfc"/><path d="M93.4,56.21l0,0S93.38,56.21,93.4,56.21Z" transform="translate(0 0)" fill="#fcfcfc"/><path d="M97.6,58.58h0v0h0Z" transform="translate(0 0)" fill="#9f91bd"/><path d="M99,58.7s0,0,0-.05,0,0,0,.05Z" transform="translate(0 0)" fill="#fcfcfc"/><path d="M95.57,60v0s0,0,0,0Z" transform="translate(0 0)" fill="#fefefe"/><path d="M96.09,60.22s0,0,0,0S96.11,60.22,96.09,60.22Z" transform="translate(0 0)" fill="#fcfcfc"/><path d="M92.46,58s0,0,0,0S92.44,58,92.46,58Z" transform="translate(0 0)" fill="#96e8f4"/><path d="M89.2,59.82l0,0S89.19,59.85,89.2,59.82Z" transform="translate(0 0)" fill="#fefefe"/><path d="M101.35,61.41h.06A0,0,0,0,1,101.35,61.41Z" transform="translate(0 0)" fill="#fcfcfc"/><path d="M95.1,58a.05.05,0,0,1,0-.05S95.13,58,95.1,58Z" transform="translate(0 0)" fill="#fefefe"/><path d="M96.92,59.5v0S96.9,59.52,96.92,59.5Z" transform="translate(0 0)" fill="#fefefe"/><path d="M91.42,58.25a0,0,0,0,1,0,0h0S91.41,58.25,91.42,58.25Z" transform="translate(0 0)" fill="#fefefe"/><path d="M99,58.7h0s0,0,0,0v0Z" transform="translate(0 0)" fill="#fefefe"/><path d="M93.8,56.75s0,0,0,0S93.82,56.75,93.8,56.75Z" transform="translate(0 0)" fill="#fcfcfc"/><path d="M93.93,56.65l0,0A0,0,0,0,1,93.93,56.65Z" transform="translate(0 0)" fill="#fcfcfc"/><path d="M94.29,56.36s0,0,0,0S94.31,56.36,94.29,56.36Z" transform="translate(0 0)" fill="#fcfcfc"/><path d="M89.54,60.07h0S89.55,60.09,89.54,60.07Z" transform="translate(0 0)" fill="#fefefe"/><path d="M95.86,49.79v.06A0,0,0,0,1,95.86,49.79Z" transform="translate(0 0)" fill="#fcfcfc"/><path d="M96.07,49.85v-.06A.06.06,0,0,1,96.07,49.85Z" transform="translate(0 0)" fill="#fcfcfc"/><path d="M91.79,57.78l0,0S91.77,57.78,91.79,57.78Z" transform="translate(0 0)" fill="#fcfcfc"/><path d="M98.88,58.89s0,0,0,0A0,0,0,0,1,98.88,58.89Z" transform="translate(0 0)" fill="#fefefe"/><path d="M95.78,50.39h0Z" transform="translate(0 0)" fill="#fcfcfc"/><path d="M94.43,56.26a.08.08,0,0,1,0,0A.08.08,0,0,1,94.43,56.26Z" transform="translate(0 0)" fill="#fcfcfc"/><path d="M98.49,61.41h.06A0,0,0,0,1,98.49,61.41Z" transform="translate(0 0)" fill="#fcfcfc"/><path d="M96,59.3s0,0,0,0S96,59.3,96,59.3Z" transform="translate(0 0)" fill="#fefefe"/><path d="M93.53,59.19l0,0A0,0,0,0,1,93.53,59.19Z" transform="translate(0 0)" fill="#fcfcfc"/><path d="M96.29,52h.06S96.31,52,96.29,52Z" transform="translate(0 0)" fill="#fcfcfc"/><path d="M96.43,51.2h-.05S96.41,51.18,96.43,51.2Z" transform="translate(0 0)" fill="#fcfcfc"/><path d="M100.05,58.55s0,0,0,0S100.05,58.53,100.05,58.55Z" transform="translate(0 0)" fill="#fcfcfc"/><path d="M95.23,58.73l0,0A0,0,0,0,1,95.23,58.73Z" transform="translate(0 0)" fill="#fcfcfc"/><path d="M99.36,57.93h0S99.34,57.93,99.36,57.93Z" transform="translate(0 0)" fill="#fefefe"/><path d="M94.59,59s0,0,0,0S94.59,59,94.59,59Z" transform="translate(0 0)" fill="#fefefe"/><path d="M94.11,55.69h0a0,0,0,0,1,0,0v0Z" transform="translate(0 0)" fill="#fefefe"/><path d="M99.42,57.83v0h0S99.4,57.83,99.42,57.83Z" transform="translate(0 0)" fill="#fefefe"/><path d="M90.73,57.75h0l0,0Z" transform="translate(0 0)" fill="#fefefe"/><path d="M100,58.26s0,0,0,0S100,58.25,100,58.26Z" transform="translate(0 0)" fill="#fefefe"/><path d="M103.88,58h0S103.89,58.05,103.88,58Z" transform="translate(0 0)" fill="#fefefe"/><path d="M96.5,58.77s0,0,0,0S96.52,58.76,96.5,58.77Z" transform="translate(0 0)" fill="#fefefe"/><path d="M105.12,57.92l0,0S105.12,57.9,105.12,57.92Z" transform="translate(0 0)" fill="#fcfcfc"/><path d="M93.94,58.78s0,0,0,0S94,58.77,93.94,58.78Z" transform="translate(0 0)" fill="#fefefe"/><path d="M99.29,58.15s0,0,0,0S99.28,58.16,99.29,58.15Z" transform="translate(0 0)" fill="#fefefe"/><path d="M99.4,57.86h0a0,0,0,0,1,0,0v0Z" transform="translate(0 0)" fill="#fcfcfc"/><path d="M88.88,59.32s0,0,0,0S88.88,59.34,88.88,59.32Z" transform="translate(0 0)" fill="#fefefe"/><path d="M101,57.49s0,0,0,0S101,57.47,101,57.49Z" transform="translate(0 0)" fill="#fefefe"/><path d="M98.62,57.48a0,0,0,0,1,0,0S98.61,57.47,98.62,57.48Z" transform="translate(0 0)" fill="#fefefe"/><path d="M92.91,57.44s0,0,0,0Z" transform="translate(0 0)" fill="#8ee7f3"/><path d="M96.42,58a.08.08,0,0,1,0,0S96.42,57.93,96.42,58Z" transform="translate(0 0)" fill="#fcfcfc"/><path d="M89.88,60.14l0,0S89.9,60.14,89.88,60.14Z" transform="translate(0 0)" fill="#fefefe"/><path d="M89.63,58.88l0,0A0,0,0,0,1,89.63,58.88Z" transform="translate(0 0)" fill="#fefefe"/><path d="M94.71,56.91l0,0S94.71,56.89,94.71,56.91Z" transform="translate(0 0)" fill="#fefefe"/><path d="M90.82,59.68l0,0a0,0,0,0,1,0,0Z" transform="translate(0 0)" fill="#fefefe"/><path d="M99,58a0,0,0,0,1,0,0S99,57.94,99,58Z" transform="translate(0 0)" fill="#fefefe"/><path d="M96.59,50.9h0Z" transform="translate(0 0)" fill="#fcfcfc"/><path d="M95.81,58.6l0,0S95.79,58.6,95.81,58.6Z" transform="translate(0 0)" fill="#fefefe"/><path d="M99.93,61.32s0,0-.05,0Z" transform="translate(0 0)" fill="#fcfcfc"/><path d="M94,58.69l0,0S94,58.69,94,58.69Z" transform="translate(0 0)" fill="#fefefe"/><path d="M91.5,58.06s0,0,0,0S91.48,58.06,91.5,58.06Z" transform="translate(0 0)" fill="#fefefe"/><path d="M102.3,58.2a.32.32,0,0,1,.12-.2.25.25,0,0,1,.12,0h.22a.23.23,0,0,1,.12,0,.35.35,0,0,1,.17.19v0c0,.14,0,.28,0,.42s0,0,0,0h-.42a.5.5,0,0,1-.13,0l-.08,0a.3.3,0,0,1-.06-.11.51.51,0,0,1,0-.24Z" transform="translate(0 0)" fill="#fefefe"/><path d="M103.89,59.26h0s0,.06,0,.06h0S103.89,59.28,103.89,59.26Z" transform="translate(0 0)" fill="#a597c1"/><path d="M102.3,58.2s0,0,0,0S102.27,58.2,102.3,58.2Z" transform="translate(0 0)" fill="#b2a6ca"/><path d="M104.86,59.05a0,0,0,0,1,0,0Z" transform="translate(0 0)" fill="#fcfcfc"/><path d="M89.55,60l-.06,0S89.55,60,89.55,60Z" transform="translate(0 0)" fill="#65deef"/><path d="M90.34,58.25h0s0,0,0,0h0S90.33,58.26,90.34,58.25Z" transform="translate(0 0)" fill="#d2f5fa"/><path d="M99,54.49h.26s0,0,0,0,0,.24,0,.36a.22.22,0,0,1-.21.17c-.16,0-.33,0-.5,0,0,0,0,0,0,0s0-.24,0-.36a.22.22,0,0,1,.21-.18Z" transform="translate(0 0)" fill="#fefefe"/><path d="M98,54.49h.24s0,0,0,0a1.83,1.83,0,0,1,0,.33.24.24,0,0,1-.22.21,3.69,3.69,0,0,0-.47,0s0,0,0,0v-.31a.24.24,0,0,1,.24-.23Z" transform="translate(0 0)" fill="#fefefe"/><path d="M95.81,54.49H96a.22.22,0,0,1,.25.22l0,.31s0,0,0,0h-.5a.2.2,0,0,1-.2-.21c0-.11,0-.21,0-.32s0,0,0,0Z" transform="translate(0 0)" fill="#fefefe"/><path d="M96.82,54.49H97a.21.21,0,0,1,.23.22c0,.1,0,.21,0,.31a0,0,0,0,1,0,0h-.47a.21.21,0,0,1-.21-.21c0-.1,0-.2,0-.3s0-.06,0-.06Z" transform="translate(0 0)" fill="#fefefe"/><path d="M95.66,55.52a1.11,1.11,0,0,0,0-.19s0,0,0,0h.45a.26.26,0,0,1,.23.2c0,.09,0,.18,0,.26s0,0,0,0h-.45c-.12,0-.2-.09-.21-.23S95.68,55.53,95.66,55.52Z" transform="translate(0 0)" fill="#fefefe"/><path d="M96.85,55.29h.21a.23.23,0,0,1,.22.18,1.41,1.41,0,0,1,0,.29s0,0,0,0h-.42a.24.24,0,0,1-.22-.21c0-.09,0-.17,0-.26s0,0,0,0Z" transform="translate(0 0)" fill="#fefefe"/><path d="M98.92,55.29h.23s0,0,0,0a2,2,0,0,0,0,.26.23.23,0,0,1-.24.2H98.5s0,0,0,0,0-.17,0-.25a.22.22,0,0,1,.23-.21Z" transform="translate(0 0)" fill="#fefefe"/><path d="M97.79,55.79h-.21s0,0,0,0a1.31,1.31,0,0,1,0-.28.21.21,0,0,1,.2-.19h.45s0,0,0,0a1.77,1.77,0,0,0,0,.23.23.23,0,0,1-.24.23Z" transform="translate(0 0)" fill="#fefefe"/><path d="M95.82,54.19H99s0,0,.06,0H95.82Z" transform="translate(0 0)" fill="#837cbe"/><path d="M95.66,55.52s0,0,0,0A0,0,0,0,1,95.66,55.52Z" transform="translate(0 0)" fill="#c7c8e9"/><path d="M97.12,57.74h0s0,0,0,0Z" transform="translate(0 0)" fill="#a99cc4"/><path d="M98.66,53.66H96.2l.1-.12a1.89,1.89,0,0,0,.2-.2c.1-.09.18-.19.27-.28l.5-.52.16-.17s0,0,.07,0,.27.31.41.47l.33.35.32.36Z" transform="translate(0 0)" fill="#fefefe"/><path d="M95.66,54a.11.11,0,0,1-.12-.11.11.11,0,0,1,.12-.11.11.11,0,1,1,0,.22Z" transform="translate(0 0)" fill="#5b418e"/><path d="M99.29,53.87a.11.11,0,0,1-.12.11.12.12,0,0,1-.13-.1.13.13,0,0,1,.25,0Z" transform="translate(0 0)" fill="#5b418e"/><path d="M99.54,54s0,0,0,.06Z" transform="translate(0 0)" fill="#6459ac"/><path d="M93.52,61c0-.07,0-.06.07-.06h.08a0,0,0,0,1,0,.05.05.05,0,0,1,0,.06H93.6C93.51,61,93.53,61,93.52,61Z" transform="translate(0 0)" fill="#fdfdfd"/><path d="M92.88,60.94c0,.07,0,.13.07.19s0,0,0,0-.12,0-.08-.11Z" transform="translate(0 0)" fill="#faf9fb"/><path d="M94.34,60.94a1.07,1.07,0,0,0,.07.19s0,0,0,0-.11,0-.08-.11S94.32,61,94.34,60.94Z" transform="translate(0 0)" fill="#fcfcfd"/><path d="M95.94,61l.07.18s0,0,0,0-.13,0-.09-.11Z" transform="translate(0 0)" fill="#fafafb"/><path d="M100.74,61.29c-.12,0-.12,0-.12-.11s0,0,0,0h.17a.08.08,0,0,1,.07.08.07.07,0,0,1-.07.07h-.1Z" transform="translate(0 0)" fill="#fdfefe"/><path d="M100.73,61c-.11,0-.11,0-.11-.11s0,0,0,0h.17s0,0,.06.06a.08.08,0,0,1,0,.07Z" transform="translate(0 0)" fill="#fefefe"/><path d="M98.64,61.17c0,.1,0,.14-.12.15a.13.13,0,0,1-.12-.14.14.14,0,0,1,.12-.15C98.59,61,98.64,61.08,98.64,61.17Z" transform="translate(0 0)" fill="#fefefe"/><path d="M101.5,61.18a.12.12,0,0,1-.17.12.15.15,0,0,1-.06-.17.12.12,0,0,1,.12-.1A.14.14,0,0,1,101.5,61.18Z" transform="translate(0 0)" fill="#fefefe"/><path d="M99.89,61.14h0s-.06,0,0-.06a.1.1,0,0,1,.1,0s.06,0,.07.07,0,0,0,0Z" transform="translate(0 0)" fill="#fdfefe"/><path d="M90.32,58.51s0,0,0,0,0-.06,0-.09Z" transform="translate(0 0)" fill="#fefefe"/><path d="M19.28,25.23a.82.82,0,0,0-.59-.25.8.8,0,0,0-.83.77.26.26,0,0,0,.26.26h0a.27.27,0,0,0,.27-.25.28.28,0,0,1,.29-.28.31.31,0,0,1,.21.09.27.27,0,0,0,.37,0A.25.25,0,0,0,19.28,25.23Z" transform="translate(0 0)" fill="#fff"/><path d="M20.68,26.06a.74.74,0,0,0-.43-.4.77.77,0,0,0-1,.43.24.24,0,0,0,.16.32.15.15,0,0,0,.09,0,.26.26,0,0,0,.25-.16.22.22,0,0,1,.29-.13.2.2,0,0,1,.12.12.28.28,0,0,0,.35.13A.26.26,0,0,0,20.68,26.06Z" transform="translate(0 0)" fill="#fff"/><path d="M22.37,23.82a.27.27,0,0,0-.37,0l-.25.24a.24.24,0,0,0,0,.35.27.27,0,0,0,.19.08.27.27,0,0,0,.18-.08l.25-.24A.24.24,0,0,0,22.37,23.82Z" transform="translate(0 0)" fill="#fff"/><path d="M20.74,27.08h-.35a.27.27,0,0,0-.27.26.26.26,0,0,0,.27.25h.35a.26.26,0,0,0,.26-.25A.26.26,0,0,0,20.74,27.08Z" transform="translate(0 0)" fill="#fff"/><path d="M23.42,27.08h-.35a.27.27,0,0,0-.27.26.26.26,0,0,0,.27.25h.35a.26.26,0,0,0,.26-.25A.26.26,0,0,0,23.42,27.08Z" transform="translate(0 0)" fill="#fff"/><path d="M30.26,31.65l-.07-.36a.49.49,0,0,0-.49-.39h-.09l-1.39.24.63-.4a.46.46,0,0,0,.21-.49.88.88,0,0,0,0-.15l-.19-.32a.48.48,0,0,0-.31-.23.41.41,0,0,0-.19,0,6.3,6.3,0,0,0,.1-1.15.4.4,0,0,0-.26-.38,1.87,1.87,0,0,0,0-1.47.36.36,0,0,0-.07-.1.26.26,0,0,0-.11-.07,2.11,2.11,0,0,0-.74-.14h-.1A1.36,1.36,0,0,0,25.78,25a1.27,1.27,0,0,0-.28,0,2,2,0,0,0-.13-1.11.26.26,0,0,0-.07-.11.41.41,0,0,0-.11-.07,2.15,2.15,0,0,0-.8-.15,2.19,2.19,0,0,0-1.15.32,2.41,2.41,0,0,0-.62-.95.44.44,0,0,0-.31-.13.48.48,0,0,0-.32.13l-1.27,1.23a1.34,1.34,0,0,0-.88-.33l-.23,0a1.36,1.36,0,0,0-.71.37,1.33,1.33,0,0,0-.81-.11l-.17,0V23.2A1.22,1.22,0,0,0,16.7,22v-.54a.42.42,0,0,0,.37-.41V19.84a.43.43,0,0,0-.44-.42H14.49a.42.42,0,0,0-.43.42v1.22a.41.41,0,0,0,.36.41V22A1.22,1.22,0,0,0,13.2,23.2v7.39a2.4,2.4,0,0,0-.85,1.8,2.68,2.68,0,0,0,2.81,2.51H25.67a1.23,1.23,0,0,0,.92-.42,1.12,1.12,0,0,0,.27-.92l2.09.36H29a.49.49,0,0,0,.49-.41l.06-.37a.43.43,0,0,0,0-.16.52.52,0,0,0-.38-.38l-.74-.16,1.39-.25a.48.48,0,0,0,.32-.2A.44.44,0,0,0,30.26,31.65Zm-3-4.9a1.43,1.43,0,0,1,.46.07A1.35,1.35,0,0,1,27.6,28h-.71l.23-.22a.24.24,0,0,0,0-.35.28.28,0,0,0-.38,0l-.12.11a1.08,1.08,0,0,0-.28-.47A1.49,1.49,0,0,1,27.26,26.75Zm-1.48-1.27a.85.85,0,0,1,.86.83v0a2.16,2.16,0,0,0-.75.43l-.11,0a1.16,1.16,0,0,0-.72-.87A.86.86,0,0,1,25.78,25.48Zm-1.39-1.41a1.77,1.77,0,0,1,.52.08,1.53,1.53,0,0,1-.06,1.17,1.49,1.49,0,0,0-.34.45l-.14,0a1.24,1.24,0,0,0-.55.24,1.89,1.89,0,0,0-.2-.27l.6-.58a.24.24,0,0,0,0-.35.27.27,0,0,0-.37,0l-.66.63a1.14,1.14,0,0,0-.4-.11,1.52,1.52,0,0,1,.45-.82A1.64,1.64,0,0,1,24.39,24.07Zm-2,3.91h-.23a.26.26,0,0,0-.48,0H21.4a.24.24,0,0,0,0-.31.27.27,0,0,0-.37,0l-.25.24,0,.07h-.53a1.88,1.88,0,0,1-.34-1H24a1.88,1.88,0,0,1-.33,1h-.56L23,27.91l-.25-.24a.27.27,0,0,0-.37,0A.24.24,0,0,0,22.38,28Zm-.61-1.53a.86.86,0,0,1,.83-.61.86.86,0,0,1,.83.61Zm.54-3.11a2,2,0,0,1,.49.9,2.15,2.15,0,0,0-.33.46.23.23,0,0,0-.14,0H22a.26.26,0,0,0-.26.25.26.26,0,0,0,.26.26h.31a1.55,1.55,0,0,0,0,.21,1.21,1.21,0,0,0-.3.11,1.32,1.32,0,0,0-.8-.6h0a1.21,1.21,0,0,0-.11-.32Zm-4.75,2.29,0-.13a.78.78,0,0,1,.65-.89h.14a.83.83,0,0,1,.48.15.29.29,0,0,0,.2.05.28.28,0,0,0,.17-.11.85.85,0,0,1,.53-.34h.14a.8.8,0,0,1,.79.64.57.57,0,0,1,0,.13.25.25,0,0,0,.24.25.81.81,0,0,1,.66.46,1.2,1.2,0,0,0-.3.63h-1.5a.43.43,0,0,0-.41.27,2.07,2.07,0,0,0-1.87-.19.24.24,0,0,0-.11.06.41.41,0,0,0-.07.11,1.88,1.88,0,0,0-.12.45.85.85,0,0,1-.19-.38.77.77,0,0,1,.46-.83A.24.24,0,0,0,17.56,25.63Zm.79,2.28.07.07h-.63a1.41,1.41,0,0,1-.05-1,1.48,1.48,0,0,1,.46-.08,1.5,1.5,0,0,1,1.05.42l.1.12a2.6,2.6,0,0,0,.21.55h-.4l-.44-.43a.29.29,0,0,0-.37,0A.25.25,0,0,0,18.35,27.91ZM17.23,28h-.94a.9.9,0,0,1,.41-.58,1.29,1.29,0,0,0,.48.39A1.33,1.33,0,0,0,17.23,28Zm-2.65-8h2v1h-2Zm1.6,1.55V22H14.94v-.53Zm-2.45,2.75h1.7A.26.26,0,0,0,15.7,24a.27.27,0,0,0-.27-.26h-1.7V23.2a.7.7,0,0,1,.71-.68h2.24a.7.7,0,0,1,.71.68v.52H16.9a.26.26,0,0,0-.26.26.26.26,0,0,0,.26.25h.49v.23A1.26,1.26,0,0,0,17,25.59h0a1.25,1.25,0,0,0-.55,1.27.19.19,0,0,0,0,.08,1.31,1.31,0,0,0-.35.27h-2.4Zm0,3.49h2.09a1.1,1.1,0,0,0-.06.26h0a.43.43,0,0,0-.44.42,5.86,5.86,0,0,0,.12,1.19h-.23a2.78,2.78,0,0,0-.86.13c-.35.14-.45.33-.47.46l-.11.06Zm3.32,3.1a1.79,1.79,0,0,1,.19.18h0a1.56,1.56,0,0,1-.72-.22,1.72,1.72,0,0,1-.3-.19.27.27,0,0,0-.34,0,1.72,1.72,0,0,1-.3.19,1.59,1.59,0,0,1-.72.22h0a1.14,1.14,0,0,1,.19-.18.24.24,0,0,0,.08-.26.25.25,0,0,0-.22-.18,1.39,1.39,0,0,1-.49-.14,1.46,1.46,0,0,1,.77-.16,1.83,1.83,0,0,1,.74.14.24.24,0,0,0,.26,0,1.76,1.76,0,0,1,.74-.14,1.52,1.52,0,0,1,.77.16,1.46,1.46,0,0,1-.49.14.26.26,0,0,0-.23.18A.24.24,0,0,0,17.05,30.82Zm-.52,3.08V34a1,1,0,0,0,.19.44H15.16a2.16,2.16,0,0,1-2.28-2,2,2,0,0,1,1.18-1.76,1.12,1.12,0,0,0,.31.15.48.48,0,0,0-.09.25.38.38,0,0,0,.1.31.61.61,0,0,0,.47.17,2.29,2.29,0,0,0,1-.28L16,31.1l.22.13a2.29,2.29,0,0,0,1,.28h0a.63.63,0,0,0,.47-.17.42.42,0,0,0,.1-.31.58.58,0,0,0-.09-.25,1.05,1.05,0,0,0,.3-.15,2.07,2.07,0,0,1,1.13,1.3l-1.86.68A1.14,1.14,0,0,0,16.53,33.9Zm9.66.25a.69.69,0,0,1-.52.24h-.28l-.17-.9a.27.27,0,0,0-.31-.2.27.27,0,0,0-.21.3l.16.8H24l-.11-.61a.28.28,0,0,0-.31-.2.27.27,0,0,0-.21.3l.1.51h-2.1l-.16-.82a.25.25,0,0,0-.3-.2.24.24,0,0,0-.21.29l.14.73H17.72a.67.67,0,0,1-.67-.53v0a.64.64,0,0,1,.43-.72l1-.38.08.4a.25.25,0,0,0,.25.2h.05a.25.25,0,0,0,.21-.29l-.09-.5L20.53,32a.24.24,0,0,0,.15-.32.27.27,0,0,0-.34-.15l-.71.26a2.61,2.61,0,0,0-1.39-1.58c0-.13-.12-.32-.48-.46a2.66,2.66,0,0,0-.85-.13,2.93,2.93,0,0,0-.61.06v-.15a.26.26,0,0,0-.26-.25.28.28,0,0,0-.16.05,5.29,5.29,0,0,1-.07-.8h8.55a.26.26,0,0,0,.26-.26.26.26,0,0,0-.26-.25h-.11a2.51,2.51,0,0,0,.26-1.1.43.43,0,0,0-.4-.42.73.73,0,0,1,.35-.18h.12a.7.7,0,0,1,.69.56.41.41,0,0,1,0,.11.27.27,0,0,0,.24.26.67.67,0,0,1,.62.55.45.45,0,0,1,0,.23h-.28a.25.25,0,0,0-.26.25.26.26,0,0,0,.26.26h2a5.5,5.5,0,0,1-.19,1.35l-1.42.81a1.16,1.16,0,0,0-.56-.69,1.3,1.3,0,0,0-1-.07L21.78,31a.23.23,0,0,0-.15.32.26.26,0,0,0,.33.15l.39-.14.12.62a.26.26,0,0,0,.26.21h.05a.25.25,0,0,0,.21-.29l-.14-.72,2-.74a.69.69,0,0,1,.58,0,.64.64,0,0,1,.33.45l.53,2.76A.6.6,0,0,1,26.19,34.15Zm.94-2a.26.26,0,0,0-.22.25.26.26,0,0,0,.2.25l2,.43-.05.32L26.75,33l-.35-1.84,2-1.12.17.28-1.67,1.07a.25.25,0,0,0-.09.31.26.26,0,0,0,.29.15l2.61-.46.06.3Z" transform="translate(0 0)" fill="#fff"/><g id="Outline"><path d="M116.56,31.2a.87.87,0,1,0-.87.88A.87.87,0,0,0,116.56,31.2Zm-1.3,0a.44.44,0,0,1,.43-.44.44.44,0,1,1,0,.88A.44.44,0,0,1,115.26,31.2Z" transform="translate(0 0)" fill="#5b418e"/><path d="M118.32,30.94a.21.21,0,0,0-.24.19l-.19,1.39h-3.28a.22.22,0,0,0,0,.44h3.47a.21.21,0,0,0,.21-.19l.22-1.58a.23.23,0,0,0-.19-.25Z" transform="translate(0 0)" fill="#5b418e"/><path d="M118.89,27.75a.2.2,0,0,0-.16-.07h-1l.36-1.94a.11.11,0,0,0,0-.08l.1-.48.33.55L118.24,27a.22.22,0,0,0,.16.26h0a.21.21,0,0,0,.21-.17l.28-1.33a.3.3,0,0,0,0-.16l-.65-1.1a.22.22,0,0,0-.3-.08.23.23,0,0,0-.1.15l-.18.84-.83-.34a.21.21,0,0,0-.28.12l0,0-.18,1.47-.14,0-.11-1.41a.26.26,0,0,0-.06-.13l0-.57.21-.06.57.31a.22.22,0,0,0,.21-.39h0l-.65-.35a.2.2,0,0,0-.17,0l-.43.13a.22.22,0,0,0-.16.19l0,.35-.26-.26a.2.2,0,0,0-.3,0,0,0,0,0,0,0,0l-.26.35v-.22a.66.66,0,0,0-.65-.66h-.44v-.22a.66.66,0,0,0-.65-.66H112V22l1.66-1.13a.21.21,0,0,0,.06-.3h0l-.48-.73a.22.22,0,0,0-.3-.07h0l-2,1.33a.63.63,0,0,0-.29.55v1.39h-1.09a.66.66,0,0,0-.65.66v.22h-.43a.66.66,0,0,0-.65.66V25l.13,1.16a.22.22,0,0,0,.21.2h0a.23.23,0,0,0,.19-.25l-.1-.89h1.71a.22.22,0,0,0,0-.44h-1.74v-.22a.22.22,0,0,1,.22-.22h5.64a.21.21,0,0,1,.21.22v.22h-3.47a.22.22,0,0,0,0,.44h3.58l-.06.09a.21.21,0,0,0,0,.15l.07.8-.08-.23a.21.21,0,0,0-.13-.13l-.65-.23a.21.21,0,0,0-.27.14l-.12.35-.13-.36a.24.24,0,0,0-.21-.14H112a.22.22,0,0,0-.22.22.19.19,0,0,0,0,.08l.14.37h-2.32a2.28,2.28,0,0,0-1.31.41.22.22,0,1,0,.24.36,1.94,1.94,0,0,1,1.07-.32h2.17a2,2,0,0,1,1.94,1.76h-6a2.07,2.07,0,0,1,.31-.87.23.23,0,0,0-.07-.31.22.22,0,0,0-.29.06,2.44,2.44,0,0,0-.39,1.34.21.21,0,0,0,.21.22h0a.91.91,0,0,0,.22.41,1.07,1.07,0,0,0,0,.25,1.08,1.08,0,0,0,.31.76.65.65,0,0,0-.27.78h-.26a.21.21,0,0,0-.21.22v.44a1.09,1.09,0,0,0,1.08,1.1H109a.22.22,0,0,0,0-.44h-.65a.65.65,0,0,1-.65-.66v-.22h3.41l.11.14a.21.21,0,0,0,.3,0l0,0,.8-1h.76a.22.22,0,0,1,0,.44h-.48a.22.22,0,0,0,0,.44h1.13v.22a.65.65,0,0,1-.65.66h-3.25a.22.22,0,0,0,0,.44h3.25a1.09,1.09,0,0,0,1.09-1.1v-.44a.22.22,0,0,0-.22-.22h-.26a.65.65,0,0,0-.26-.78,1.12,1.12,0,0,0,.3-.76,1.64,1.64,0,0,0,0-.23A.7.7,0,0,0,114,29h0a2.36,2.36,0,0,0,1.69.67,2.08,2.08,0,0,0,2.16-1.54h.63l-.29,2.14a.22.22,0,0,0,.19.24h0a.22.22,0,0,0,.21-.2l.32-2.38A.23.23,0,0,0,118.89,27.75Zm-7.75-6.09a.23.23,0,0,1,.1-.19l1.77-1.2.24.37-1.58,1.07a.22.22,0,0,0-.1.18v1.16h-.43Zm-1.74,2.27v-.22a.22.22,0,0,1,.22-.22h3.47a.22.22,0,0,1,.22.22v.22Zm6.71,3.14.44.11-.11,1.91a2.18,2.18,0,0,1-.44.11Zm-.83-2.14.42.42.1,1.26h0a.21.21,0,0,0-.08.16l-.14,2.43a2.14,2.14,0,0,1-.43-.07l-.3-3.6Zm-3,1.2h.41l.19.52a1.74,1.74,0,0,0-.49-.2Zm1,3.46a.17.17,0,0,1,0,.07.66.66,0,0,1-.65.66h-3.91a.65.65,0,0,1-.64-.63h0a.91.91,0,0,0,.82,0l.35-.18a.26.26,0,0,1,.21,0l.46.23a.64.64,0,0,0,.6,0l.46-.23a.22.22,0,0,1,.22,0l.45.23a.66.66,0,0,0,.61,0l.46-.23a.2.2,0,0,1,.21,0,.71.71,0,0,0,.32.07Zm-5,1.61a.22.22,0,0,1,0-.44h2.06l.35.44Zm3,.09-.42-.53h.83Zm2-2.18,0,0h0a.19.19,0,0,1-.19,0,.72.72,0,0,0-.61,0l-.45.24a.28.28,0,0,1-.22,0l-.46-.23a.64.64,0,0,0-.6,0l-.46.23a.26.26,0,0,1-.21,0l-.46-.23a.66.66,0,0,0-.61,0l-.34.17a.49.49,0,0,1-.44,0l-.17-.08a.56.56,0,0,1-.21-.22h5.57a.22.22,0,0,1-.1.11Zm.75-.61a2.48,2.48,0,0,0-.33-1l-.29-.94.13-.39.34.12.59,1.7.08.95a1.53,1.53,0,0,1-.52-.46Zm2.73.35L117,27a.24.24,0,0,0-.17-.23h0l.15-1.24.66.27-.54,2.86-.19.16Z" transform="translate(0 0)" fill="#5b418e"/><circle cx="111.14" cy="27.68" r="0.22" fill="#5b418e"/><circle cx="110.27" cy="27.46" r="0.22" fill="#5b418e"/><circle cx="109.62" cy="27.9" r="0.22" fill="#5b418e"/><circle cx="112.87" cy="27.9" r="0.22" fill="#5b418e"/><circle cx="108.75" cy="27.68" r="0.22" fill="#5b418e"/><circle cx="112.01" cy="27.46" r="0.22" fill="#5b418e"/></g></g></svg>
